%TF.GenerationSoftware,KiCad,Pcbnew,10.0.0*%
%TF.CreationDate,2026-04-22T21:27:18+05:30*%
%TF.ProjectId,Split-Keyboard,53706c69-742d-44b6-9579-626f6172642e,V1*%
%TF.SameCoordinates,Original*%
%TF.FileFunction,Legend,Top*%
%TF.FilePolarity,Positive*%
%FSLAX46Y46*%
G04 Gerber Fmt 4.6, Leading zero omitted, Abs format (unit mm)*
G04 Created by KiCad (PCBNEW 10.0.0) date 2026-04-22 21:27:18*
%MOMM*%
%LPD*%
G01*
G04 APERTURE LIST*
%ADD10C,0.150000*%
%ADD11C,0.101600*%
%ADD12C,0.120000*%
%ADD13C,0.127000*%
%ADD14C,0.100000*%
%ADD15C,0.504000*%
G04 APERTURE END LIST*
D10*
G36*
X19261779Y-118355847D02*
G01*
X19128598Y-118422438D01*
X18687817Y-118422438D01*
X18535537Y-118346298D01*
X18459398Y-118194018D01*
X18459398Y-118038952D01*
X18535537Y-117886672D01*
X18687817Y-117810533D01*
X19146303Y-117810533D01*
X19160935Y-117809092D01*
X19163424Y-117808060D01*
X19166112Y-117807870D01*
X19179844Y-117802615D01*
X19261779Y-117761647D01*
X19261779Y-118355847D01*
G37*
G36*
X21071303Y-117305694D02*
G01*
X21071303Y-118355847D01*
X20938122Y-118422438D01*
X20592579Y-118422438D01*
X20428825Y-118340561D01*
X20350799Y-118262534D01*
X20268922Y-118098780D01*
X20268922Y-117562761D01*
X20350798Y-117399007D01*
X20428825Y-117320981D01*
X20592579Y-117239104D01*
X20938122Y-117239104D01*
X21071303Y-117305694D01*
G37*
G36*
X26214160Y-118355847D02*
G01*
X26080979Y-118422438D01*
X25640198Y-118422438D01*
X25487918Y-118346298D01*
X25411779Y-118194018D01*
X25411779Y-118038952D01*
X25487918Y-117886672D01*
X25640198Y-117810533D01*
X26098684Y-117810533D01*
X26113316Y-117809092D01*
X26115805Y-117808060D01*
X26118493Y-117807870D01*
X26132225Y-117802615D01*
X26214160Y-117761647D01*
X26214160Y-118355847D01*
G37*
G36*
X26586382Y-118794660D02*
G01*
X16182414Y-118794660D01*
X16182414Y-116878390D01*
X16404636Y-116878390D01*
X16404636Y-117068866D01*
X16406077Y-117083498D01*
X16407108Y-117085987D01*
X16407299Y-117088675D01*
X16412554Y-117102407D01*
X16507792Y-117292883D01*
X16511755Y-117299179D01*
X16512514Y-117301010D01*
X16514205Y-117303071D01*
X16515625Y-117305326D01*
X16517120Y-117306623D01*
X16521841Y-117312375D01*
X16617079Y-117407613D01*
X16622832Y-117412335D01*
X16624128Y-117413829D01*
X16626378Y-117415245D01*
X16628444Y-117416941D01*
X16630278Y-117417700D01*
X16636571Y-117421662D01*
X16827047Y-117516901D01*
X16828116Y-117517310D01*
X16828552Y-117517633D01*
X16834688Y-117519825D01*
X16840778Y-117522156D01*
X16841318Y-117522194D01*
X16842398Y-117522580D01*
X17215365Y-117615821D01*
X17387590Y-117701934D01*
X17465616Y-117779960D01*
X17547493Y-117943714D01*
X17547493Y-118098780D01*
X17465615Y-118262534D01*
X17387589Y-118340561D01*
X17223836Y-118422438D01*
X16777520Y-118422438D01*
X16503353Y-118331049D01*
X16489016Y-118327789D01*
X16459826Y-118329864D01*
X16433653Y-118342950D01*
X16414479Y-118365057D01*
X16405225Y-118392820D01*
X16407300Y-118422010D01*
X16420386Y-118448183D01*
X16442493Y-118467357D01*
X16455919Y-118473351D01*
X16741633Y-118568589D01*
X16748886Y-118570238D01*
X16750718Y-118570997D01*
X16753372Y-118571258D01*
X16755970Y-118571849D01*
X16757944Y-118571708D01*
X16765350Y-118572438D01*
X17241541Y-118572438D01*
X17256173Y-118570997D01*
X17258662Y-118569965D01*
X17261350Y-118569775D01*
X17275082Y-118564520D01*
X17465558Y-118469282D01*
X17471854Y-118465318D01*
X17473685Y-118464560D01*
X17475746Y-118462868D01*
X17478001Y-118461449D01*
X17479298Y-118459953D01*
X17485050Y-118455233D01*
X17580289Y-118359993D01*
X17585006Y-118354244D01*
X17586505Y-118352945D01*
X17587926Y-118350686D01*
X17589616Y-118348628D01*
X17590373Y-118346798D01*
X17594337Y-118340502D01*
X17689575Y-118150026D01*
X17694830Y-118136294D01*
X17695020Y-118133606D01*
X17696052Y-118131117D01*
X17697493Y-118116485D01*
X17697493Y-118021247D01*
X18309398Y-118021247D01*
X18309398Y-118211723D01*
X18310839Y-118226355D01*
X18311870Y-118228844D01*
X18312061Y-118231532D01*
X18317316Y-118245264D01*
X18412554Y-118435741D01*
X18414094Y-118438187D01*
X18414479Y-118439342D01*
X18415726Y-118440780D01*
X18420387Y-118448184D01*
X18427489Y-118454344D01*
X18433652Y-118461450D01*
X18441053Y-118466109D01*
X18442494Y-118467358D01*
X18443650Y-118467743D01*
X18446095Y-118469282D01*
X18636571Y-118564520D01*
X18650303Y-118569775D01*
X18652990Y-118569965D01*
X18655480Y-118570997D01*
X18670112Y-118572438D01*
X19146303Y-118572438D01*
X19160935Y-118570997D01*
X19163424Y-118569965D01*
X19166112Y-118569775D01*
X19179844Y-118564520D01*
X19266913Y-118520985D01*
X19274419Y-118539106D01*
X19295111Y-118559798D01*
X19322147Y-118570997D01*
X19351411Y-118570997D01*
X19378447Y-118559798D01*
X19399139Y-118539106D01*
X19410338Y-118512070D01*
X19411779Y-118497438D01*
X19411779Y-117545057D01*
X20118922Y-117545057D01*
X20118922Y-118116485D01*
X20120363Y-118131117D01*
X20121394Y-118133606D01*
X20121585Y-118136294D01*
X20126840Y-118150026D01*
X20222078Y-118340502D01*
X20226040Y-118346796D01*
X20226799Y-118348628D01*
X20228492Y-118350690D01*
X20229911Y-118352945D01*
X20231406Y-118354241D01*
X20236127Y-118359994D01*
X20331365Y-118455233D01*
X20337115Y-118459953D01*
X20338414Y-118461450D01*
X20340668Y-118462869D01*
X20342730Y-118464561D01*
X20344562Y-118465319D01*
X20350857Y-118469282D01*
X20541333Y-118564520D01*
X20555065Y-118569775D01*
X20557752Y-118569965D01*
X20560242Y-118570997D01*
X20574874Y-118572438D01*
X20955827Y-118572438D01*
X20970459Y-118570997D01*
X20972948Y-118569965D01*
X20975636Y-118569775D01*
X20989368Y-118564520D01*
X21076437Y-118520985D01*
X21083943Y-118539106D01*
X21104635Y-118559798D01*
X21131671Y-118570997D01*
X21160935Y-118570997D01*
X21187971Y-118559798D01*
X21208663Y-118539106D01*
X21219862Y-118512070D01*
X21221303Y-118497438D01*
X21221303Y-117164104D01*
X22023684Y-117164104D01*
X22023684Y-118497438D01*
X22025125Y-118512070D01*
X22036324Y-118539106D01*
X22057016Y-118559798D01*
X22084052Y-118570997D01*
X22113316Y-118570997D01*
X22140352Y-118559798D01*
X22161044Y-118539106D01*
X22172243Y-118512070D01*
X22173684Y-118497438D01*
X22173684Y-117562761D01*
X22255560Y-117399007D01*
X22333587Y-117320981D01*
X22497341Y-117239104D01*
X22670113Y-117239104D01*
X22684745Y-117237663D01*
X22711781Y-117226464D01*
X22732473Y-117205772D01*
X22743672Y-117178736D01*
X22743672Y-117164104D01*
X23261779Y-117164104D01*
X23261779Y-118497438D01*
X23263220Y-118512070D01*
X23274419Y-118539106D01*
X23295111Y-118559798D01*
X23322147Y-118570997D01*
X23351411Y-118570997D01*
X23378447Y-118559798D01*
X23399139Y-118539106D01*
X23410338Y-118512070D01*
X23411779Y-118497438D01*
X23411779Y-117164104D01*
X23410338Y-117149472D01*
X23929887Y-117149472D01*
X23929887Y-117178736D01*
X23941086Y-117205772D01*
X23961778Y-117226464D01*
X23988814Y-117237663D01*
X24003446Y-117239104D01*
X24214160Y-117239104D01*
X24214160Y-118211723D01*
X24215601Y-118226355D01*
X24216632Y-118228844D01*
X24216823Y-118231532D01*
X24222078Y-118245264D01*
X24317316Y-118435741D01*
X24318856Y-118438187D01*
X24319241Y-118439342D01*
X24320488Y-118440780D01*
X24325149Y-118448184D01*
X24332251Y-118454344D01*
X24338414Y-118461450D01*
X24345815Y-118466109D01*
X24347256Y-118467358D01*
X24348412Y-118467743D01*
X24350857Y-118469282D01*
X24541333Y-118564520D01*
X24555065Y-118569775D01*
X24557752Y-118569965D01*
X24560242Y-118570997D01*
X24574874Y-118572438D01*
X24765350Y-118572438D01*
X24779982Y-118570997D01*
X24807018Y-118559798D01*
X24827710Y-118539106D01*
X24838909Y-118512070D01*
X24838909Y-118482806D01*
X24827710Y-118455770D01*
X24807018Y-118435078D01*
X24779982Y-118423879D01*
X24765350Y-118422438D01*
X24592579Y-118422438D01*
X24440299Y-118346298D01*
X24364160Y-118194018D01*
X24364160Y-118021247D01*
X25261779Y-118021247D01*
X25261779Y-118211723D01*
X25263220Y-118226355D01*
X25264251Y-118228844D01*
X25264442Y-118231532D01*
X25269697Y-118245264D01*
X25364935Y-118435741D01*
X25366475Y-118438187D01*
X25366860Y-118439342D01*
X25368107Y-118440780D01*
X25372768Y-118448184D01*
X25379870Y-118454344D01*
X25386033Y-118461450D01*
X25393434Y-118466109D01*
X25394875Y-118467358D01*
X25396031Y-118467743D01*
X25398476Y-118469282D01*
X25588952Y-118564520D01*
X25602684Y-118569775D01*
X25605371Y-118569965D01*
X25607861Y-118570997D01*
X25622493Y-118572438D01*
X26098684Y-118572438D01*
X26113316Y-118570997D01*
X26115805Y-118569965D01*
X26118493Y-118569775D01*
X26132225Y-118564520D01*
X26219294Y-118520985D01*
X26226800Y-118539106D01*
X26247492Y-118559798D01*
X26274528Y-118570997D01*
X26303792Y-118570997D01*
X26330828Y-118559798D01*
X26351520Y-118539106D01*
X26362719Y-118512070D01*
X26364160Y-118497438D01*
X26364160Y-117449819D01*
X26362719Y-117435187D01*
X26361687Y-117432697D01*
X26361497Y-117430010D01*
X26356242Y-117416279D01*
X26261004Y-117225801D01*
X26259465Y-117223356D01*
X26259080Y-117222200D01*
X26257831Y-117220759D01*
X26253172Y-117213358D01*
X26246066Y-117207195D01*
X26239906Y-117200093D01*
X26232502Y-117195432D01*
X26231064Y-117194185D01*
X26229909Y-117193800D01*
X26227463Y-117192260D01*
X26036987Y-117097022D01*
X26023255Y-117091767D01*
X26020567Y-117091576D01*
X26018078Y-117090545D01*
X26003446Y-117089104D01*
X25622493Y-117089104D01*
X25607861Y-117090545D01*
X25605371Y-117091576D01*
X25602684Y-117091767D01*
X25588952Y-117097022D01*
X25398476Y-117192260D01*
X25386033Y-117200092D01*
X25366860Y-117222200D01*
X25357606Y-117249961D01*
X25359680Y-117279151D01*
X25372767Y-117305326D01*
X25394875Y-117324499D01*
X25422636Y-117333753D01*
X25451826Y-117331679D01*
X25465558Y-117326424D01*
X25640198Y-117239104D01*
X25985741Y-117239104D01*
X26138020Y-117315243D01*
X26214160Y-117467523D01*
X26214160Y-117593942D01*
X26080979Y-117660533D01*
X25622493Y-117660533D01*
X25607861Y-117661974D01*
X25605371Y-117663005D01*
X25602684Y-117663196D01*
X25588952Y-117668451D01*
X25398476Y-117763689D01*
X25396031Y-117765227D01*
X25394875Y-117765613D01*
X25393434Y-117766861D01*
X25386033Y-117771521D01*
X25379870Y-117778626D01*
X25372768Y-117784787D01*
X25368107Y-117792190D01*
X25366860Y-117793629D01*
X25366476Y-117794782D01*
X25364935Y-117797230D01*
X25269697Y-117987706D01*
X25264442Y-118001438D01*
X25264251Y-118004125D01*
X25263220Y-118006615D01*
X25261779Y-118021247D01*
X24364160Y-118021247D01*
X24364160Y-117239104D01*
X24765350Y-117239104D01*
X24779982Y-117237663D01*
X24807018Y-117226464D01*
X24827710Y-117205772D01*
X24838909Y-117178736D01*
X24838909Y-117149472D01*
X24827710Y-117122436D01*
X24807018Y-117101744D01*
X24779982Y-117090545D01*
X24765350Y-117089104D01*
X24364160Y-117089104D01*
X24364160Y-116497438D01*
X24362719Y-116482806D01*
X24351520Y-116455770D01*
X24330828Y-116435078D01*
X24303792Y-116423879D01*
X24274528Y-116423879D01*
X24247492Y-116435078D01*
X24226800Y-116455770D01*
X24215601Y-116482806D01*
X24214160Y-116497438D01*
X24214160Y-117089104D01*
X24003446Y-117089104D01*
X23988814Y-117090545D01*
X23961778Y-117101744D01*
X23941086Y-117122436D01*
X23929887Y-117149472D01*
X23410338Y-117149472D01*
X23399139Y-117122436D01*
X23378447Y-117101744D01*
X23351411Y-117090545D01*
X23322147Y-117090545D01*
X23295111Y-117101744D01*
X23274419Y-117122436D01*
X23263220Y-117149472D01*
X23261779Y-117164104D01*
X22743672Y-117164104D01*
X22743672Y-117149472D01*
X22732473Y-117122436D01*
X22711781Y-117101744D01*
X22684745Y-117090545D01*
X22670113Y-117089104D01*
X22479636Y-117089104D01*
X22465004Y-117090545D01*
X22462514Y-117091576D01*
X22459827Y-117091767D01*
X22446095Y-117097022D01*
X22255619Y-117192260D01*
X22249324Y-117196222D01*
X22247492Y-117196981D01*
X22245430Y-117198672D01*
X22243176Y-117200092D01*
X22241877Y-117201588D01*
X22236127Y-117206309D01*
X22173684Y-117268752D01*
X22173684Y-117164104D01*
X22172243Y-117149472D01*
X22161044Y-117122436D01*
X22140352Y-117101744D01*
X22113316Y-117090545D01*
X22084052Y-117090545D01*
X22057016Y-117101744D01*
X22036324Y-117122436D01*
X22025125Y-117149472D01*
X22023684Y-117164104D01*
X21221303Y-117164104D01*
X21221303Y-116578045D01*
X23167982Y-116578045D01*
X23167982Y-116607307D01*
X23179181Y-116634344D01*
X23188508Y-116645709D01*
X23283746Y-116740947D01*
X23295111Y-116750275D01*
X23314228Y-116758193D01*
X23322147Y-116761473D01*
X23322148Y-116761473D01*
X23351410Y-116761473D01*
X23351411Y-116761473D01*
X23378447Y-116750275D01*
X23378452Y-116750269D01*
X23389812Y-116740947D01*
X23485050Y-116645709D01*
X23494378Y-116634344D01*
X23496731Y-116628664D01*
X23505576Y-116607308D01*
X23505576Y-116578045D01*
X23499974Y-116564520D01*
X23494378Y-116551008D01*
X23485050Y-116539643D01*
X23389812Y-116444405D01*
X23378452Y-116435082D01*
X23378447Y-116435077D01*
X23351411Y-116423879D01*
X23322147Y-116423879D01*
X23319195Y-116425102D01*
X23295111Y-116435077D01*
X23283746Y-116444405D01*
X23188508Y-116539643D01*
X23179181Y-116551008D01*
X23167982Y-116578045D01*
X21221303Y-116578045D01*
X21221303Y-116497438D01*
X21219862Y-116482806D01*
X21208663Y-116455770D01*
X21187971Y-116435078D01*
X21160935Y-116423879D01*
X21131671Y-116423879D01*
X21104635Y-116435078D01*
X21083943Y-116455770D01*
X21072744Y-116482806D01*
X21071303Y-116497438D01*
X21071303Y-117137989D01*
X20989368Y-117097022D01*
X20975636Y-117091767D01*
X20972948Y-117091576D01*
X20970459Y-117090545D01*
X20955827Y-117089104D01*
X20574874Y-117089104D01*
X20560242Y-117090545D01*
X20557752Y-117091576D01*
X20555065Y-117091767D01*
X20541333Y-117097022D01*
X20350857Y-117192260D01*
X20344562Y-117196222D01*
X20342730Y-117196981D01*
X20340668Y-117198672D01*
X20338414Y-117200092D01*
X20337115Y-117201588D01*
X20331365Y-117206309D01*
X20236127Y-117301547D01*
X20231406Y-117307298D01*
X20229911Y-117308596D01*
X20228491Y-117310850D01*
X20226800Y-117312912D01*
X20226041Y-117314742D01*
X20222078Y-117321039D01*
X20126840Y-117511516D01*
X20121585Y-117525248D01*
X20121394Y-117527935D01*
X20120363Y-117530425D01*
X20118922Y-117545057D01*
X19411779Y-117545057D01*
X19411779Y-117449819D01*
X19410338Y-117435187D01*
X19409306Y-117432697D01*
X19409116Y-117430010D01*
X19403861Y-117416279D01*
X19308623Y-117225801D01*
X19307084Y-117223356D01*
X19306699Y-117222200D01*
X19305450Y-117220759D01*
X19300791Y-117213358D01*
X19293685Y-117207195D01*
X19287525Y-117200093D01*
X19280121Y-117195432D01*
X19278683Y-117194185D01*
X19277528Y-117193800D01*
X19275082Y-117192260D01*
X19084606Y-117097022D01*
X19070874Y-117091767D01*
X19068186Y-117091576D01*
X19065697Y-117090545D01*
X19051065Y-117089104D01*
X18670112Y-117089104D01*
X18655480Y-117090545D01*
X18652990Y-117091576D01*
X18650303Y-117091767D01*
X18636571Y-117097022D01*
X18446095Y-117192260D01*
X18433652Y-117200092D01*
X18414479Y-117222200D01*
X18405225Y-117249961D01*
X18407299Y-117279151D01*
X18420386Y-117305326D01*
X18442494Y-117324499D01*
X18470255Y-117333753D01*
X18499445Y-117331679D01*
X18513177Y-117326424D01*
X18687817Y-117239104D01*
X19033360Y-117239104D01*
X19185639Y-117315243D01*
X19261779Y-117467523D01*
X19261779Y-117593942D01*
X19128598Y-117660533D01*
X18670112Y-117660533D01*
X18655480Y-117661974D01*
X18652990Y-117663005D01*
X18650303Y-117663196D01*
X18636571Y-117668451D01*
X18446095Y-117763689D01*
X18443650Y-117765227D01*
X18442494Y-117765613D01*
X18441053Y-117766861D01*
X18433652Y-117771521D01*
X18427489Y-117778626D01*
X18420387Y-117784787D01*
X18415726Y-117792190D01*
X18414479Y-117793629D01*
X18414095Y-117794782D01*
X18412554Y-117797230D01*
X18317316Y-117987706D01*
X18312061Y-118001438D01*
X18311870Y-118004125D01*
X18310839Y-118006615D01*
X18309398Y-118021247D01*
X17697493Y-118021247D01*
X17697493Y-117926009D01*
X17696052Y-117911377D01*
X17695020Y-117908887D01*
X17694830Y-117906200D01*
X17689575Y-117892468D01*
X17594337Y-117701992D01*
X17590374Y-117695697D01*
X17589616Y-117693865D01*
X17587924Y-117691803D01*
X17586505Y-117689549D01*
X17585008Y-117688250D01*
X17580288Y-117682500D01*
X17485050Y-117587262D01*
X17479298Y-117582541D01*
X17478001Y-117581046D01*
X17475746Y-117579626D01*
X17473685Y-117577935D01*
X17471854Y-117577176D01*
X17465558Y-117573213D01*
X17275082Y-117477975D01*
X17274010Y-117477564D01*
X17273576Y-117477243D01*
X17267439Y-117475050D01*
X17261350Y-117472720D01*
X17260810Y-117472681D01*
X17259731Y-117472296D01*
X16886764Y-117379054D01*
X16714539Y-117292941D01*
X16636513Y-117214915D01*
X16554636Y-117051161D01*
X16554636Y-116896095D01*
X16636513Y-116732341D01*
X16714539Y-116654315D01*
X16878293Y-116572438D01*
X17324609Y-116572438D01*
X17598776Y-116663827D01*
X17613113Y-116667087D01*
X17642303Y-116665012D01*
X17668476Y-116651926D01*
X17687650Y-116629819D01*
X17696904Y-116602056D01*
X17694829Y-116572866D01*
X17681743Y-116546693D01*
X17659636Y-116527519D01*
X17646210Y-116521525D01*
X17360496Y-116426287D01*
X17353242Y-116424637D01*
X17351411Y-116423879D01*
X17348756Y-116423617D01*
X17346159Y-116423027D01*
X17344184Y-116423167D01*
X17336779Y-116422438D01*
X16860588Y-116422438D01*
X16845956Y-116423879D01*
X16843466Y-116424910D01*
X16840779Y-116425101D01*
X16827047Y-116430356D01*
X16636571Y-116525594D01*
X16630276Y-116529556D01*
X16628444Y-116530315D01*
X16626382Y-116532006D01*
X16624128Y-116533426D01*
X16622829Y-116534922D01*
X16617079Y-116539643D01*
X16521841Y-116634881D01*
X16517120Y-116640632D01*
X16515625Y-116641930D01*
X16514205Y-116644184D01*
X16512514Y-116646246D01*
X16511755Y-116648076D01*
X16507792Y-116654373D01*
X16412554Y-116844849D01*
X16407299Y-116858581D01*
X16407108Y-116861268D01*
X16406077Y-116863758D01*
X16404636Y-116878390D01*
X16182414Y-116878390D01*
X16182414Y-116200216D01*
X26586382Y-116200216D01*
X26586382Y-118794660D01*
G37*
G36*
X275011779Y-119605847D02*
G01*
X274878598Y-119672438D01*
X274437817Y-119672438D01*
X274285537Y-119596298D01*
X274209398Y-119444018D01*
X274209398Y-119288952D01*
X274285537Y-119136672D01*
X274437817Y-119060533D01*
X274896303Y-119060533D01*
X274910935Y-119059092D01*
X274913424Y-119058060D01*
X274916112Y-119057870D01*
X274929844Y-119052615D01*
X275011779Y-119011647D01*
X275011779Y-119605847D01*
G37*
G36*
X276821303Y-118555694D02*
G01*
X276821303Y-119605847D01*
X276688122Y-119672438D01*
X276342579Y-119672438D01*
X276178825Y-119590561D01*
X276100799Y-119512534D01*
X276018922Y-119348780D01*
X276018922Y-118812761D01*
X276100798Y-118649007D01*
X276178825Y-118570981D01*
X276342579Y-118489104D01*
X276688122Y-118489104D01*
X276821303Y-118555694D01*
G37*
G36*
X281964160Y-119605847D02*
G01*
X281830979Y-119672438D01*
X281390198Y-119672438D01*
X281237918Y-119596298D01*
X281161779Y-119444018D01*
X281161779Y-119288952D01*
X281237918Y-119136672D01*
X281390198Y-119060533D01*
X281848684Y-119060533D01*
X281863316Y-119059092D01*
X281865805Y-119058060D01*
X281868493Y-119057870D01*
X281882225Y-119052615D01*
X281964160Y-119011647D01*
X281964160Y-119605847D01*
G37*
G36*
X282336382Y-120044660D02*
G01*
X271932414Y-120044660D01*
X271932414Y-118128390D01*
X272154636Y-118128390D01*
X272154636Y-118318866D01*
X272156077Y-118333498D01*
X272157108Y-118335987D01*
X272157299Y-118338675D01*
X272162554Y-118352407D01*
X272257792Y-118542883D01*
X272261755Y-118549179D01*
X272262514Y-118551010D01*
X272264205Y-118553071D01*
X272265625Y-118555326D01*
X272267120Y-118556623D01*
X272271841Y-118562375D01*
X272367079Y-118657613D01*
X272372832Y-118662335D01*
X272374128Y-118663829D01*
X272376378Y-118665245D01*
X272378444Y-118666941D01*
X272380278Y-118667700D01*
X272386571Y-118671662D01*
X272577047Y-118766901D01*
X272578116Y-118767310D01*
X272578552Y-118767633D01*
X272584688Y-118769825D01*
X272590778Y-118772156D01*
X272591318Y-118772194D01*
X272592398Y-118772580D01*
X272965365Y-118865821D01*
X273137590Y-118951934D01*
X273215616Y-119029960D01*
X273297493Y-119193714D01*
X273297493Y-119348780D01*
X273215615Y-119512534D01*
X273137589Y-119590561D01*
X272973836Y-119672438D01*
X272527520Y-119672438D01*
X272253353Y-119581049D01*
X272239016Y-119577789D01*
X272209826Y-119579864D01*
X272183653Y-119592950D01*
X272164479Y-119615057D01*
X272155225Y-119642820D01*
X272157300Y-119672010D01*
X272170386Y-119698183D01*
X272192493Y-119717357D01*
X272205919Y-119723351D01*
X272491633Y-119818589D01*
X272498886Y-119820238D01*
X272500718Y-119820997D01*
X272503372Y-119821258D01*
X272505970Y-119821849D01*
X272507944Y-119821708D01*
X272515350Y-119822438D01*
X272991541Y-119822438D01*
X273006173Y-119820997D01*
X273008662Y-119819965D01*
X273011350Y-119819775D01*
X273025082Y-119814520D01*
X273215558Y-119719282D01*
X273221854Y-119715318D01*
X273223685Y-119714560D01*
X273225746Y-119712868D01*
X273228001Y-119711449D01*
X273229298Y-119709953D01*
X273235050Y-119705233D01*
X273330289Y-119609993D01*
X273335006Y-119604244D01*
X273336505Y-119602945D01*
X273337926Y-119600686D01*
X273339616Y-119598628D01*
X273340373Y-119596798D01*
X273344337Y-119590502D01*
X273439575Y-119400026D01*
X273444830Y-119386294D01*
X273445020Y-119383606D01*
X273446052Y-119381117D01*
X273447493Y-119366485D01*
X273447493Y-119271247D01*
X274059398Y-119271247D01*
X274059398Y-119461723D01*
X274060839Y-119476355D01*
X274061870Y-119478844D01*
X274062061Y-119481532D01*
X274067316Y-119495264D01*
X274162554Y-119685741D01*
X274164094Y-119688187D01*
X274164479Y-119689342D01*
X274165726Y-119690780D01*
X274170387Y-119698184D01*
X274177489Y-119704344D01*
X274183652Y-119711450D01*
X274191053Y-119716109D01*
X274192494Y-119717358D01*
X274193650Y-119717743D01*
X274196095Y-119719282D01*
X274386571Y-119814520D01*
X274400303Y-119819775D01*
X274402990Y-119819965D01*
X274405480Y-119820997D01*
X274420112Y-119822438D01*
X274896303Y-119822438D01*
X274910935Y-119820997D01*
X274913424Y-119819965D01*
X274916112Y-119819775D01*
X274929844Y-119814520D01*
X275016913Y-119770985D01*
X275024419Y-119789106D01*
X275045111Y-119809798D01*
X275072147Y-119820997D01*
X275101411Y-119820997D01*
X275128447Y-119809798D01*
X275149139Y-119789106D01*
X275160338Y-119762070D01*
X275161779Y-119747438D01*
X275161779Y-118795057D01*
X275868922Y-118795057D01*
X275868922Y-119366485D01*
X275870363Y-119381117D01*
X275871394Y-119383606D01*
X275871585Y-119386294D01*
X275876840Y-119400026D01*
X275972078Y-119590502D01*
X275976040Y-119596796D01*
X275976799Y-119598628D01*
X275978492Y-119600690D01*
X275979911Y-119602945D01*
X275981406Y-119604241D01*
X275986127Y-119609994D01*
X276081365Y-119705233D01*
X276087115Y-119709953D01*
X276088414Y-119711450D01*
X276090668Y-119712869D01*
X276092730Y-119714561D01*
X276094562Y-119715319D01*
X276100857Y-119719282D01*
X276291333Y-119814520D01*
X276305065Y-119819775D01*
X276307752Y-119819965D01*
X276310242Y-119820997D01*
X276324874Y-119822438D01*
X276705827Y-119822438D01*
X276720459Y-119820997D01*
X276722948Y-119819965D01*
X276725636Y-119819775D01*
X276739368Y-119814520D01*
X276826437Y-119770985D01*
X276833943Y-119789106D01*
X276854635Y-119809798D01*
X276881671Y-119820997D01*
X276910935Y-119820997D01*
X276937971Y-119809798D01*
X276958663Y-119789106D01*
X276969862Y-119762070D01*
X276971303Y-119747438D01*
X276971303Y-118414104D01*
X277773684Y-118414104D01*
X277773684Y-119747438D01*
X277775125Y-119762070D01*
X277786324Y-119789106D01*
X277807016Y-119809798D01*
X277834052Y-119820997D01*
X277863316Y-119820997D01*
X277890352Y-119809798D01*
X277911044Y-119789106D01*
X277922243Y-119762070D01*
X277923684Y-119747438D01*
X277923684Y-118812761D01*
X278005560Y-118649007D01*
X278083587Y-118570981D01*
X278247341Y-118489104D01*
X278420113Y-118489104D01*
X278434745Y-118487663D01*
X278461781Y-118476464D01*
X278482473Y-118455772D01*
X278493672Y-118428736D01*
X278493672Y-118414104D01*
X279011779Y-118414104D01*
X279011779Y-119747438D01*
X279013220Y-119762070D01*
X279024419Y-119789106D01*
X279045111Y-119809798D01*
X279072147Y-119820997D01*
X279101411Y-119820997D01*
X279128447Y-119809798D01*
X279149139Y-119789106D01*
X279160338Y-119762070D01*
X279161779Y-119747438D01*
X279161779Y-118414104D01*
X279160338Y-118399472D01*
X279679887Y-118399472D01*
X279679887Y-118428736D01*
X279691086Y-118455772D01*
X279711778Y-118476464D01*
X279738814Y-118487663D01*
X279753446Y-118489104D01*
X279964160Y-118489104D01*
X279964160Y-119461723D01*
X279965601Y-119476355D01*
X279966632Y-119478844D01*
X279966823Y-119481532D01*
X279972078Y-119495264D01*
X280067316Y-119685741D01*
X280068856Y-119688187D01*
X280069241Y-119689342D01*
X280070488Y-119690780D01*
X280075149Y-119698184D01*
X280082251Y-119704344D01*
X280088414Y-119711450D01*
X280095815Y-119716109D01*
X280097256Y-119717358D01*
X280098412Y-119717743D01*
X280100857Y-119719282D01*
X280291333Y-119814520D01*
X280305065Y-119819775D01*
X280307752Y-119819965D01*
X280310242Y-119820997D01*
X280324874Y-119822438D01*
X280515350Y-119822438D01*
X280529982Y-119820997D01*
X280557018Y-119809798D01*
X280577710Y-119789106D01*
X280588909Y-119762070D01*
X280588909Y-119732806D01*
X280577710Y-119705770D01*
X280557018Y-119685078D01*
X280529982Y-119673879D01*
X280515350Y-119672438D01*
X280342579Y-119672438D01*
X280190299Y-119596298D01*
X280114160Y-119444018D01*
X280114160Y-119271247D01*
X281011779Y-119271247D01*
X281011779Y-119461723D01*
X281013220Y-119476355D01*
X281014251Y-119478844D01*
X281014442Y-119481532D01*
X281019697Y-119495264D01*
X281114935Y-119685741D01*
X281116475Y-119688187D01*
X281116860Y-119689342D01*
X281118107Y-119690780D01*
X281122768Y-119698184D01*
X281129870Y-119704344D01*
X281136033Y-119711450D01*
X281143434Y-119716109D01*
X281144875Y-119717358D01*
X281146031Y-119717743D01*
X281148476Y-119719282D01*
X281338952Y-119814520D01*
X281352684Y-119819775D01*
X281355371Y-119819965D01*
X281357861Y-119820997D01*
X281372493Y-119822438D01*
X281848684Y-119822438D01*
X281863316Y-119820997D01*
X281865805Y-119819965D01*
X281868493Y-119819775D01*
X281882225Y-119814520D01*
X281969294Y-119770985D01*
X281976800Y-119789106D01*
X281997492Y-119809798D01*
X282024528Y-119820997D01*
X282053792Y-119820997D01*
X282080828Y-119809798D01*
X282101520Y-119789106D01*
X282112719Y-119762070D01*
X282114160Y-119747438D01*
X282114160Y-118699819D01*
X282112719Y-118685187D01*
X282111687Y-118682697D01*
X282111497Y-118680010D01*
X282106242Y-118666279D01*
X282011004Y-118475801D01*
X282009465Y-118473356D01*
X282009080Y-118472200D01*
X282007831Y-118470759D01*
X282003172Y-118463358D01*
X281996066Y-118457195D01*
X281989906Y-118450093D01*
X281982502Y-118445432D01*
X281981064Y-118444185D01*
X281979909Y-118443800D01*
X281977463Y-118442260D01*
X281786987Y-118347022D01*
X281773255Y-118341767D01*
X281770567Y-118341576D01*
X281768078Y-118340545D01*
X281753446Y-118339104D01*
X281372493Y-118339104D01*
X281357861Y-118340545D01*
X281355371Y-118341576D01*
X281352684Y-118341767D01*
X281338952Y-118347022D01*
X281148476Y-118442260D01*
X281136033Y-118450092D01*
X281116860Y-118472200D01*
X281107606Y-118499961D01*
X281109680Y-118529151D01*
X281122767Y-118555326D01*
X281144875Y-118574499D01*
X281172636Y-118583753D01*
X281201826Y-118581679D01*
X281215558Y-118576424D01*
X281390198Y-118489104D01*
X281735741Y-118489104D01*
X281888020Y-118565243D01*
X281964160Y-118717523D01*
X281964160Y-118843942D01*
X281830979Y-118910533D01*
X281372493Y-118910533D01*
X281357861Y-118911974D01*
X281355371Y-118913005D01*
X281352684Y-118913196D01*
X281338952Y-118918451D01*
X281148476Y-119013689D01*
X281146031Y-119015227D01*
X281144875Y-119015613D01*
X281143434Y-119016861D01*
X281136033Y-119021521D01*
X281129870Y-119028626D01*
X281122768Y-119034787D01*
X281118107Y-119042190D01*
X281116860Y-119043629D01*
X281116476Y-119044782D01*
X281114935Y-119047230D01*
X281019697Y-119237706D01*
X281014442Y-119251438D01*
X281014251Y-119254125D01*
X281013220Y-119256615D01*
X281011779Y-119271247D01*
X280114160Y-119271247D01*
X280114160Y-118489104D01*
X280515350Y-118489104D01*
X280529982Y-118487663D01*
X280557018Y-118476464D01*
X280577710Y-118455772D01*
X280588909Y-118428736D01*
X280588909Y-118399472D01*
X280577710Y-118372436D01*
X280557018Y-118351744D01*
X280529982Y-118340545D01*
X280515350Y-118339104D01*
X280114160Y-118339104D01*
X280114160Y-117747438D01*
X280112719Y-117732806D01*
X280101520Y-117705770D01*
X280080828Y-117685078D01*
X280053792Y-117673879D01*
X280024528Y-117673879D01*
X279997492Y-117685078D01*
X279976800Y-117705770D01*
X279965601Y-117732806D01*
X279964160Y-117747438D01*
X279964160Y-118339104D01*
X279753446Y-118339104D01*
X279738814Y-118340545D01*
X279711778Y-118351744D01*
X279691086Y-118372436D01*
X279679887Y-118399472D01*
X279160338Y-118399472D01*
X279149139Y-118372436D01*
X279128447Y-118351744D01*
X279101411Y-118340545D01*
X279072147Y-118340545D01*
X279045111Y-118351744D01*
X279024419Y-118372436D01*
X279013220Y-118399472D01*
X279011779Y-118414104D01*
X278493672Y-118414104D01*
X278493672Y-118399472D01*
X278482473Y-118372436D01*
X278461781Y-118351744D01*
X278434745Y-118340545D01*
X278420113Y-118339104D01*
X278229636Y-118339104D01*
X278215004Y-118340545D01*
X278212514Y-118341576D01*
X278209827Y-118341767D01*
X278196095Y-118347022D01*
X278005619Y-118442260D01*
X277999324Y-118446222D01*
X277997492Y-118446981D01*
X277995430Y-118448672D01*
X277993176Y-118450092D01*
X277991877Y-118451588D01*
X277986127Y-118456309D01*
X277923684Y-118518752D01*
X277923684Y-118414104D01*
X277922243Y-118399472D01*
X277911044Y-118372436D01*
X277890352Y-118351744D01*
X277863316Y-118340545D01*
X277834052Y-118340545D01*
X277807016Y-118351744D01*
X277786324Y-118372436D01*
X277775125Y-118399472D01*
X277773684Y-118414104D01*
X276971303Y-118414104D01*
X276971303Y-117828045D01*
X278917982Y-117828045D01*
X278917982Y-117857307D01*
X278929181Y-117884344D01*
X278938508Y-117895709D01*
X279033746Y-117990947D01*
X279045111Y-118000275D01*
X279064228Y-118008193D01*
X279072147Y-118011473D01*
X279072148Y-118011473D01*
X279101410Y-118011473D01*
X279101411Y-118011473D01*
X279128447Y-118000275D01*
X279128452Y-118000269D01*
X279139812Y-117990947D01*
X279235050Y-117895709D01*
X279244378Y-117884344D01*
X279246731Y-117878664D01*
X279255576Y-117857308D01*
X279255576Y-117828045D01*
X279249974Y-117814520D01*
X279244378Y-117801008D01*
X279235050Y-117789643D01*
X279139812Y-117694405D01*
X279128452Y-117685082D01*
X279128447Y-117685077D01*
X279101411Y-117673879D01*
X279072147Y-117673879D01*
X279069195Y-117675102D01*
X279045111Y-117685077D01*
X279033746Y-117694405D01*
X278938508Y-117789643D01*
X278929181Y-117801008D01*
X278917982Y-117828045D01*
X276971303Y-117828045D01*
X276971303Y-117747438D01*
X276969862Y-117732806D01*
X276958663Y-117705770D01*
X276937971Y-117685078D01*
X276910935Y-117673879D01*
X276881671Y-117673879D01*
X276854635Y-117685078D01*
X276833943Y-117705770D01*
X276822744Y-117732806D01*
X276821303Y-117747438D01*
X276821303Y-118387989D01*
X276739368Y-118347022D01*
X276725636Y-118341767D01*
X276722948Y-118341576D01*
X276720459Y-118340545D01*
X276705827Y-118339104D01*
X276324874Y-118339104D01*
X276310242Y-118340545D01*
X276307752Y-118341576D01*
X276305065Y-118341767D01*
X276291333Y-118347022D01*
X276100857Y-118442260D01*
X276094562Y-118446222D01*
X276092730Y-118446981D01*
X276090668Y-118448672D01*
X276088414Y-118450092D01*
X276087115Y-118451588D01*
X276081365Y-118456309D01*
X275986127Y-118551547D01*
X275981406Y-118557298D01*
X275979911Y-118558596D01*
X275978491Y-118560850D01*
X275976800Y-118562912D01*
X275976041Y-118564742D01*
X275972078Y-118571039D01*
X275876840Y-118761516D01*
X275871585Y-118775248D01*
X275871394Y-118777935D01*
X275870363Y-118780425D01*
X275868922Y-118795057D01*
X275161779Y-118795057D01*
X275161779Y-118699819D01*
X275160338Y-118685187D01*
X275159306Y-118682697D01*
X275159116Y-118680010D01*
X275153861Y-118666279D01*
X275058623Y-118475801D01*
X275057084Y-118473356D01*
X275056699Y-118472200D01*
X275055450Y-118470759D01*
X275050791Y-118463358D01*
X275043685Y-118457195D01*
X275037525Y-118450093D01*
X275030121Y-118445432D01*
X275028683Y-118444185D01*
X275027528Y-118443800D01*
X275025082Y-118442260D01*
X274834606Y-118347022D01*
X274820874Y-118341767D01*
X274818186Y-118341576D01*
X274815697Y-118340545D01*
X274801065Y-118339104D01*
X274420112Y-118339104D01*
X274405480Y-118340545D01*
X274402990Y-118341576D01*
X274400303Y-118341767D01*
X274386571Y-118347022D01*
X274196095Y-118442260D01*
X274183652Y-118450092D01*
X274164479Y-118472200D01*
X274155225Y-118499961D01*
X274157299Y-118529151D01*
X274170386Y-118555326D01*
X274192494Y-118574499D01*
X274220255Y-118583753D01*
X274249445Y-118581679D01*
X274263177Y-118576424D01*
X274437817Y-118489104D01*
X274783360Y-118489104D01*
X274935639Y-118565243D01*
X275011779Y-118717523D01*
X275011779Y-118843942D01*
X274878598Y-118910533D01*
X274420112Y-118910533D01*
X274405480Y-118911974D01*
X274402990Y-118913005D01*
X274400303Y-118913196D01*
X274386571Y-118918451D01*
X274196095Y-119013689D01*
X274193650Y-119015227D01*
X274192494Y-119015613D01*
X274191053Y-119016861D01*
X274183652Y-119021521D01*
X274177489Y-119028626D01*
X274170387Y-119034787D01*
X274165726Y-119042190D01*
X274164479Y-119043629D01*
X274164095Y-119044782D01*
X274162554Y-119047230D01*
X274067316Y-119237706D01*
X274062061Y-119251438D01*
X274061870Y-119254125D01*
X274060839Y-119256615D01*
X274059398Y-119271247D01*
X273447493Y-119271247D01*
X273447493Y-119176009D01*
X273446052Y-119161377D01*
X273445020Y-119158887D01*
X273444830Y-119156200D01*
X273439575Y-119142468D01*
X273344337Y-118951992D01*
X273340374Y-118945697D01*
X273339616Y-118943865D01*
X273337924Y-118941803D01*
X273336505Y-118939549D01*
X273335008Y-118938250D01*
X273330288Y-118932500D01*
X273235050Y-118837262D01*
X273229298Y-118832541D01*
X273228001Y-118831046D01*
X273225746Y-118829626D01*
X273223685Y-118827935D01*
X273221854Y-118827176D01*
X273215558Y-118823213D01*
X273025082Y-118727975D01*
X273024010Y-118727564D01*
X273023576Y-118727243D01*
X273017439Y-118725050D01*
X273011350Y-118722720D01*
X273010810Y-118722681D01*
X273009731Y-118722296D01*
X272636764Y-118629054D01*
X272464539Y-118542941D01*
X272386513Y-118464915D01*
X272304636Y-118301161D01*
X272304636Y-118146095D01*
X272386513Y-117982341D01*
X272464539Y-117904315D01*
X272628293Y-117822438D01*
X273074609Y-117822438D01*
X273348776Y-117913827D01*
X273363113Y-117917087D01*
X273392303Y-117915012D01*
X273418476Y-117901926D01*
X273437650Y-117879819D01*
X273446904Y-117852056D01*
X273444829Y-117822866D01*
X273431743Y-117796693D01*
X273409636Y-117777519D01*
X273396210Y-117771525D01*
X273110496Y-117676287D01*
X273103242Y-117674637D01*
X273101411Y-117673879D01*
X273098756Y-117673617D01*
X273096159Y-117673027D01*
X273094184Y-117673167D01*
X273086779Y-117672438D01*
X272610588Y-117672438D01*
X272595956Y-117673879D01*
X272593466Y-117674910D01*
X272590779Y-117675101D01*
X272577047Y-117680356D01*
X272386571Y-117775594D01*
X272380276Y-117779556D01*
X272378444Y-117780315D01*
X272376382Y-117782006D01*
X272374128Y-117783426D01*
X272372829Y-117784922D01*
X272367079Y-117789643D01*
X272271841Y-117884881D01*
X272267120Y-117890632D01*
X272265625Y-117891930D01*
X272264205Y-117894184D01*
X272262514Y-117896246D01*
X272261755Y-117898076D01*
X272257792Y-117904373D01*
X272162554Y-118094849D01*
X272157299Y-118108581D01*
X272157108Y-118111268D01*
X272156077Y-118113758D01*
X272154636Y-118128390D01*
X271932414Y-118128390D01*
X271932414Y-117450216D01*
X282336382Y-117450216D01*
X282336382Y-120044660D01*
G37*
X235420476Y-92284700D02*
X235563333Y-92332319D01*
X235563333Y-92332319D02*
X235801428Y-92332319D01*
X235801428Y-92332319D02*
X235896666Y-92284700D01*
X235896666Y-92284700D02*
X235944285Y-92237080D01*
X235944285Y-92237080D02*
X235991904Y-92141842D01*
X235991904Y-92141842D02*
X235991904Y-92046604D01*
X235991904Y-92046604D02*
X235944285Y-91951366D01*
X235944285Y-91951366D02*
X235896666Y-91903747D01*
X235896666Y-91903747D02*
X235801428Y-91856128D01*
X235801428Y-91856128D02*
X235610952Y-91808509D01*
X235610952Y-91808509D02*
X235515714Y-91760890D01*
X235515714Y-91760890D02*
X235468095Y-91713271D01*
X235468095Y-91713271D02*
X235420476Y-91618033D01*
X235420476Y-91618033D02*
X235420476Y-91522795D01*
X235420476Y-91522795D02*
X235468095Y-91427557D01*
X235468095Y-91427557D02*
X235515714Y-91379938D01*
X235515714Y-91379938D02*
X235610952Y-91332319D01*
X235610952Y-91332319D02*
X235849047Y-91332319D01*
X235849047Y-91332319D02*
X235991904Y-91379938D01*
X236325238Y-91332319D02*
X236563333Y-92332319D01*
X236563333Y-92332319D02*
X236753809Y-91618033D01*
X236753809Y-91618033D02*
X236944285Y-92332319D01*
X236944285Y-92332319D02*
X237182381Y-91332319D01*
X238087142Y-92332319D02*
X237515714Y-92332319D01*
X237801428Y-92332319D02*
X237801428Y-91332319D01*
X237801428Y-91332319D02*
X237706190Y-91475176D01*
X237706190Y-91475176D02*
X237610952Y-91570414D01*
X237610952Y-91570414D02*
X237515714Y-91618033D01*
X238420476Y-91332319D02*
X239087142Y-91332319D01*
X239087142Y-91332319D02*
X238658571Y-92332319D01*
X58830476Y-73072200D02*
X58973333Y-73119819D01*
X58973333Y-73119819D02*
X59211428Y-73119819D01*
X59211428Y-73119819D02*
X59306666Y-73072200D01*
X59306666Y-73072200D02*
X59354285Y-73024580D01*
X59354285Y-73024580D02*
X59401904Y-72929342D01*
X59401904Y-72929342D02*
X59401904Y-72834104D01*
X59401904Y-72834104D02*
X59354285Y-72738866D01*
X59354285Y-72738866D02*
X59306666Y-72691247D01*
X59306666Y-72691247D02*
X59211428Y-72643628D01*
X59211428Y-72643628D02*
X59020952Y-72596009D01*
X59020952Y-72596009D02*
X58925714Y-72548390D01*
X58925714Y-72548390D02*
X58878095Y-72500771D01*
X58878095Y-72500771D02*
X58830476Y-72405533D01*
X58830476Y-72405533D02*
X58830476Y-72310295D01*
X58830476Y-72310295D02*
X58878095Y-72215057D01*
X58878095Y-72215057D02*
X58925714Y-72167438D01*
X58925714Y-72167438D02*
X59020952Y-72119819D01*
X59020952Y-72119819D02*
X59259047Y-72119819D01*
X59259047Y-72119819D02*
X59401904Y-72167438D01*
X59735238Y-72119819D02*
X59973333Y-73119819D01*
X59973333Y-73119819D02*
X60163809Y-72405533D01*
X60163809Y-72405533D02*
X60354285Y-73119819D01*
X60354285Y-73119819D02*
X60592381Y-72119819D01*
X60878095Y-72119819D02*
X61497142Y-72119819D01*
X61497142Y-72119819D02*
X61163809Y-72500771D01*
X61163809Y-72500771D02*
X61306666Y-72500771D01*
X61306666Y-72500771D02*
X61401904Y-72548390D01*
X61401904Y-72548390D02*
X61449523Y-72596009D01*
X61449523Y-72596009D02*
X61497142Y-72691247D01*
X61497142Y-72691247D02*
X61497142Y-72929342D01*
X61497142Y-72929342D02*
X61449523Y-73024580D01*
X61449523Y-73024580D02*
X61401904Y-73072200D01*
X61401904Y-73072200D02*
X61306666Y-73119819D01*
X61306666Y-73119819D02*
X61020952Y-73119819D01*
X61020952Y-73119819D02*
X60925714Y-73072200D01*
X60925714Y-73072200D02*
X60878095Y-73024580D01*
X62116190Y-72119819D02*
X62211428Y-72119819D01*
X62211428Y-72119819D02*
X62306666Y-72167438D01*
X62306666Y-72167438D02*
X62354285Y-72215057D01*
X62354285Y-72215057D02*
X62401904Y-72310295D01*
X62401904Y-72310295D02*
X62449523Y-72500771D01*
X62449523Y-72500771D02*
X62449523Y-72738866D01*
X62449523Y-72738866D02*
X62401904Y-72929342D01*
X62401904Y-72929342D02*
X62354285Y-73024580D01*
X62354285Y-73024580D02*
X62306666Y-73072200D01*
X62306666Y-73072200D02*
X62211428Y-73119819D01*
X62211428Y-73119819D02*
X62116190Y-73119819D01*
X62116190Y-73119819D02*
X62020952Y-73072200D01*
X62020952Y-73072200D02*
X61973333Y-73024580D01*
X61973333Y-73024580D02*
X61925714Y-72929342D01*
X61925714Y-72929342D02*
X61878095Y-72738866D01*
X61878095Y-72738866D02*
X61878095Y-72500771D01*
X61878095Y-72500771D02*
X61925714Y-72310295D01*
X61925714Y-72310295D02*
X61973333Y-72215057D01*
X61973333Y-72215057D02*
X62020952Y-72167438D01*
X62020952Y-72167438D02*
X62116190Y-72119819D01*
X96960476Y-69899700D02*
X97103333Y-69947319D01*
X97103333Y-69947319D02*
X97341428Y-69947319D01*
X97341428Y-69947319D02*
X97436666Y-69899700D01*
X97436666Y-69899700D02*
X97484285Y-69852080D01*
X97484285Y-69852080D02*
X97531904Y-69756842D01*
X97531904Y-69756842D02*
X97531904Y-69661604D01*
X97531904Y-69661604D02*
X97484285Y-69566366D01*
X97484285Y-69566366D02*
X97436666Y-69518747D01*
X97436666Y-69518747D02*
X97341428Y-69471128D01*
X97341428Y-69471128D02*
X97150952Y-69423509D01*
X97150952Y-69423509D02*
X97055714Y-69375890D01*
X97055714Y-69375890D02*
X97008095Y-69328271D01*
X97008095Y-69328271D02*
X96960476Y-69233033D01*
X96960476Y-69233033D02*
X96960476Y-69137795D01*
X96960476Y-69137795D02*
X97008095Y-69042557D01*
X97008095Y-69042557D02*
X97055714Y-68994938D01*
X97055714Y-68994938D02*
X97150952Y-68947319D01*
X97150952Y-68947319D02*
X97389047Y-68947319D01*
X97389047Y-68947319D02*
X97531904Y-68994938D01*
X97865238Y-68947319D02*
X98103333Y-69947319D01*
X98103333Y-69947319D02*
X98293809Y-69233033D01*
X98293809Y-69233033D02*
X98484285Y-69947319D01*
X98484285Y-69947319D02*
X98722381Y-68947319D01*
X99008095Y-68947319D02*
X99627142Y-68947319D01*
X99627142Y-68947319D02*
X99293809Y-69328271D01*
X99293809Y-69328271D02*
X99436666Y-69328271D01*
X99436666Y-69328271D02*
X99531904Y-69375890D01*
X99531904Y-69375890D02*
X99579523Y-69423509D01*
X99579523Y-69423509D02*
X99627142Y-69518747D01*
X99627142Y-69518747D02*
X99627142Y-69756842D01*
X99627142Y-69756842D02*
X99579523Y-69852080D01*
X99579523Y-69852080D02*
X99531904Y-69899700D01*
X99531904Y-69899700D02*
X99436666Y-69947319D01*
X99436666Y-69947319D02*
X99150952Y-69947319D01*
X99150952Y-69947319D02*
X99055714Y-69899700D01*
X99055714Y-69899700D02*
X99008095Y-69852080D01*
X100198571Y-69375890D02*
X100103333Y-69328271D01*
X100103333Y-69328271D02*
X100055714Y-69280652D01*
X100055714Y-69280652D02*
X100008095Y-69185414D01*
X100008095Y-69185414D02*
X100008095Y-69137795D01*
X100008095Y-69137795D02*
X100055714Y-69042557D01*
X100055714Y-69042557D02*
X100103333Y-68994938D01*
X100103333Y-68994938D02*
X100198571Y-68947319D01*
X100198571Y-68947319D02*
X100389047Y-68947319D01*
X100389047Y-68947319D02*
X100484285Y-68994938D01*
X100484285Y-68994938D02*
X100531904Y-69042557D01*
X100531904Y-69042557D02*
X100579523Y-69137795D01*
X100579523Y-69137795D02*
X100579523Y-69185414D01*
X100579523Y-69185414D02*
X100531904Y-69280652D01*
X100531904Y-69280652D02*
X100484285Y-69328271D01*
X100484285Y-69328271D02*
X100389047Y-69375890D01*
X100389047Y-69375890D02*
X100198571Y-69375890D01*
X100198571Y-69375890D02*
X100103333Y-69423509D01*
X100103333Y-69423509D02*
X100055714Y-69471128D01*
X100055714Y-69471128D02*
X100008095Y-69566366D01*
X100008095Y-69566366D02*
X100008095Y-69756842D01*
X100008095Y-69756842D02*
X100055714Y-69852080D01*
X100055714Y-69852080D02*
X100103333Y-69899700D01*
X100103333Y-69899700D02*
X100198571Y-69947319D01*
X100198571Y-69947319D02*
X100389047Y-69947319D01*
X100389047Y-69947319D02*
X100484285Y-69899700D01*
X100484285Y-69899700D02*
X100531904Y-69852080D01*
X100531904Y-69852080D02*
X100579523Y-69756842D01*
X100579523Y-69756842D02*
X100579523Y-69566366D01*
X100579523Y-69566366D02*
X100531904Y-69471128D01*
X100531904Y-69471128D02*
X100484285Y-69423509D01*
X100484285Y-69423509D02*
X100389047Y-69375890D01*
X254470476Y-77987200D02*
X254613333Y-78034819D01*
X254613333Y-78034819D02*
X254851428Y-78034819D01*
X254851428Y-78034819D02*
X254946666Y-77987200D01*
X254946666Y-77987200D02*
X254994285Y-77939580D01*
X254994285Y-77939580D02*
X255041904Y-77844342D01*
X255041904Y-77844342D02*
X255041904Y-77749104D01*
X255041904Y-77749104D02*
X254994285Y-77653866D01*
X254994285Y-77653866D02*
X254946666Y-77606247D01*
X254946666Y-77606247D02*
X254851428Y-77558628D01*
X254851428Y-77558628D02*
X254660952Y-77511009D01*
X254660952Y-77511009D02*
X254565714Y-77463390D01*
X254565714Y-77463390D02*
X254518095Y-77415771D01*
X254518095Y-77415771D02*
X254470476Y-77320533D01*
X254470476Y-77320533D02*
X254470476Y-77225295D01*
X254470476Y-77225295D02*
X254518095Y-77130057D01*
X254518095Y-77130057D02*
X254565714Y-77082438D01*
X254565714Y-77082438D02*
X254660952Y-77034819D01*
X254660952Y-77034819D02*
X254899047Y-77034819D01*
X254899047Y-77034819D02*
X255041904Y-77082438D01*
X255375238Y-77034819D02*
X255613333Y-78034819D01*
X255613333Y-78034819D02*
X255803809Y-77320533D01*
X255803809Y-77320533D02*
X255994285Y-78034819D01*
X255994285Y-78034819D02*
X256232381Y-77034819D01*
X257137142Y-78034819D02*
X256565714Y-78034819D01*
X256851428Y-78034819D02*
X256851428Y-77034819D01*
X256851428Y-77034819D02*
X256756190Y-77177676D01*
X256756190Y-77177676D02*
X256660952Y-77272914D01*
X256660952Y-77272914D02*
X256565714Y-77320533D01*
X257518095Y-77130057D02*
X257565714Y-77082438D01*
X257565714Y-77082438D02*
X257660952Y-77034819D01*
X257660952Y-77034819D02*
X257899047Y-77034819D01*
X257899047Y-77034819D02*
X257994285Y-77082438D01*
X257994285Y-77082438D02*
X258041904Y-77130057D01*
X258041904Y-77130057D02*
X258089523Y-77225295D01*
X258089523Y-77225295D02*
X258089523Y-77320533D01*
X258089523Y-77320533D02*
X258041904Y-77463390D01*
X258041904Y-77463390D02*
X257470476Y-78034819D01*
X257470476Y-78034819D02*
X258089523Y-78034819D01*
X78012976Y-48500950D02*
X78155833Y-48548569D01*
X78155833Y-48548569D02*
X78393928Y-48548569D01*
X78393928Y-48548569D02*
X78489166Y-48500950D01*
X78489166Y-48500950D02*
X78536785Y-48453330D01*
X78536785Y-48453330D02*
X78584404Y-48358092D01*
X78584404Y-48358092D02*
X78584404Y-48262854D01*
X78584404Y-48262854D02*
X78536785Y-48167616D01*
X78536785Y-48167616D02*
X78489166Y-48119997D01*
X78489166Y-48119997D02*
X78393928Y-48072378D01*
X78393928Y-48072378D02*
X78203452Y-48024759D01*
X78203452Y-48024759D02*
X78108214Y-47977140D01*
X78108214Y-47977140D02*
X78060595Y-47929521D01*
X78060595Y-47929521D02*
X78012976Y-47834283D01*
X78012976Y-47834283D02*
X78012976Y-47739045D01*
X78012976Y-47739045D02*
X78060595Y-47643807D01*
X78060595Y-47643807D02*
X78108214Y-47596188D01*
X78108214Y-47596188D02*
X78203452Y-47548569D01*
X78203452Y-47548569D02*
X78441547Y-47548569D01*
X78441547Y-47548569D02*
X78584404Y-47596188D01*
X78917738Y-47548569D02*
X79155833Y-48548569D01*
X79155833Y-48548569D02*
X79346309Y-47834283D01*
X79346309Y-47834283D02*
X79536785Y-48548569D01*
X79536785Y-48548569D02*
X79774881Y-47548569D01*
X80060595Y-47548569D02*
X80679642Y-47548569D01*
X80679642Y-47548569D02*
X80346309Y-47929521D01*
X80346309Y-47929521D02*
X80489166Y-47929521D01*
X80489166Y-47929521D02*
X80584404Y-47977140D01*
X80584404Y-47977140D02*
X80632023Y-48024759D01*
X80632023Y-48024759D02*
X80679642Y-48119997D01*
X80679642Y-48119997D02*
X80679642Y-48358092D01*
X80679642Y-48358092D02*
X80632023Y-48453330D01*
X80632023Y-48453330D02*
X80584404Y-48500950D01*
X80584404Y-48500950D02*
X80489166Y-48548569D01*
X80489166Y-48548569D02*
X80203452Y-48548569D01*
X80203452Y-48548569D02*
X80108214Y-48500950D01*
X80108214Y-48500950D02*
X80060595Y-48453330D01*
X81012976Y-47548569D02*
X81632023Y-47548569D01*
X81632023Y-47548569D02*
X81298690Y-47929521D01*
X81298690Y-47929521D02*
X81441547Y-47929521D01*
X81441547Y-47929521D02*
X81536785Y-47977140D01*
X81536785Y-47977140D02*
X81584404Y-48024759D01*
X81584404Y-48024759D02*
X81632023Y-48119997D01*
X81632023Y-48119997D02*
X81632023Y-48358092D01*
X81632023Y-48358092D02*
X81584404Y-48453330D01*
X81584404Y-48453330D02*
X81536785Y-48500950D01*
X81536785Y-48500950D02*
X81441547Y-48548569D01*
X81441547Y-48548569D02*
X81155833Y-48548569D01*
X81155833Y-48548569D02*
X81060595Y-48500950D01*
X81060595Y-48500950D02*
X81012976Y-48453330D01*
X235420476Y-111324700D02*
X235563333Y-111372319D01*
X235563333Y-111372319D02*
X235801428Y-111372319D01*
X235801428Y-111372319D02*
X235896666Y-111324700D01*
X235896666Y-111324700D02*
X235944285Y-111277080D01*
X235944285Y-111277080D02*
X235991904Y-111181842D01*
X235991904Y-111181842D02*
X235991904Y-111086604D01*
X235991904Y-111086604D02*
X235944285Y-110991366D01*
X235944285Y-110991366D02*
X235896666Y-110943747D01*
X235896666Y-110943747D02*
X235801428Y-110896128D01*
X235801428Y-110896128D02*
X235610952Y-110848509D01*
X235610952Y-110848509D02*
X235515714Y-110800890D01*
X235515714Y-110800890D02*
X235468095Y-110753271D01*
X235468095Y-110753271D02*
X235420476Y-110658033D01*
X235420476Y-110658033D02*
X235420476Y-110562795D01*
X235420476Y-110562795D02*
X235468095Y-110467557D01*
X235468095Y-110467557D02*
X235515714Y-110419938D01*
X235515714Y-110419938D02*
X235610952Y-110372319D01*
X235610952Y-110372319D02*
X235849047Y-110372319D01*
X235849047Y-110372319D02*
X235991904Y-110419938D01*
X236325238Y-110372319D02*
X236563333Y-111372319D01*
X236563333Y-111372319D02*
X236753809Y-110658033D01*
X236753809Y-110658033D02*
X236944285Y-111372319D01*
X236944285Y-111372319D02*
X237182381Y-110372319D01*
X237515714Y-110467557D02*
X237563333Y-110419938D01*
X237563333Y-110419938D02*
X237658571Y-110372319D01*
X237658571Y-110372319D02*
X237896666Y-110372319D01*
X237896666Y-110372319D02*
X237991904Y-110419938D01*
X237991904Y-110419938D02*
X238039523Y-110467557D01*
X238039523Y-110467557D02*
X238087142Y-110562795D01*
X238087142Y-110562795D02*
X238087142Y-110658033D01*
X238087142Y-110658033D02*
X238039523Y-110800890D01*
X238039523Y-110800890D02*
X237468095Y-111372319D01*
X237468095Y-111372319D02*
X238087142Y-111372319D01*
X238420476Y-110372319D02*
X239039523Y-110372319D01*
X239039523Y-110372319D02*
X238706190Y-110753271D01*
X238706190Y-110753271D02*
X238849047Y-110753271D01*
X238849047Y-110753271D02*
X238944285Y-110800890D01*
X238944285Y-110800890D02*
X238991904Y-110848509D01*
X238991904Y-110848509D02*
X239039523Y-110943747D01*
X239039523Y-110943747D02*
X239039523Y-111181842D01*
X239039523Y-111181842D02*
X238991904Y-111277080D01*
X238991904Y-111277080D02*
X238944285Y-111324700D01*
X238944285Y-111324700D02*
X238849047Y-111372319D01*
X238849047Y-111372319D02*
X238563333Y-111372319D01*
X238563333Y-111372319D02*
X238468095Y-111324700D01*
X238468095Y-111324700D02*
X238420476Y-111277080D01*
D11*
X268019940Y-110863479D02*
X268019940Y-111377526D01*
X268019940Y-111377526D02*
X268050178Y-111438002D01*
X268050178Y-111438002D02*
X268080416Y-111468241D01*
X268080416Y-111468241D02*
X268140892Y-111498479D01*
X268140892Y-111498479D02*
X268261845Y-111498479D01*
X268261845Y-111498479D02*
X268322321Y-111468241D01*
X268322321Y-111468241D02*
X268352559Y-111438002D01*
X268352559Y-111438002D02*
X268382797Y-111377526D01*
X268382797Y-111377526D02*
X268382797Y-110863479D01*
X269017797Y-111498479D02*
X268654940Y-111498479D01*
X268836368Y-111498479D02*
X268836368Y-110863479D01*
X268836368Y-110863479D02*
X268775892Y-110954193D01*
X268775892Y-110954193D02*
X268715416Y-111014669D01*
X268715416Y-111014669D02*
X268654940Y-111044907D01*
D10*
X135025476Y-77837200D02*
X135168333Y-77884819D01*
X135168333Y-77884819D02*
X135406428Y-77884819D01*
X135406428Y-77884819D02*
X135501666Y-77837200D01*
X135501666Y-77837200D02*
X135549285Y-77789580D01*
X135549285Y-77789580D02*
X135596904Y-77694342D01*
X135596904Y-77694342D02*
X135596904Y-77599104D01*
X135596904Y-77599104D02*
X135549285Y-77503866D01*
X135549285Y-77503866D02*
X135501666Y-77456247D01*
X135501666Y-77456247D02*
X135406428Y-77408628D01*
X135406428Y-77408628D02*
X135215952Y-77361009D01*
X135215952Y-77361009D02*
X135120714Y-77313390D01*
X135120714Y-77313390D02*
X135073095Y-77265771D01*
X135073095Y-77265771D02*
X135025476Y-77170533D01*
X135025476Y-77170533D02*
X135025476Y-77075295D01*
X135025476Y-77075295D02*
X135073095Y-76980057D01*
X135073095Y-76980057D02*
X135120714Y-76932438D01*
X135120714Y-76932438D02*
X135215952Y-76884819D01*
X135215952Y-76884819D02*
X135454047Y-76884819D01*
X135454047Y-76884819D02*
X135596904Y-76932438D01*
X135930238Y-76884819D02*
X136168333Y-77884819D01*
X136168333Y-77884819D02*
X136358809Y-77170533D01*
X136358809Y-77170533D02*
X136549285Y-77884819D01*
X136549285Y-77884819D02*
X136787381Y-76884819D01*
X137596904Y-77218152D02*
X137596904Y-77884819D01*
X137358809Y-76837200D02*
X137120714Y-77551485D01*
X137120714Y-77551485D02*
X137739761Y-77551485D01*
X138549285Y-76884819D02*
X138358809Y-76884819D01*
X138358809Y-76884819D02*
X138263571Y-76932438D01*
X138263571Y-76932438D02*
X138215952Y-76980057D01*
X138215952Y-76980057D02*
X138120714Y-77122914D01*
X138120714Y-77122914D02*
X138073095Y-77313390D01*
X138073095Y-77313390D02*
X138073095Y-77694342D01*
X138073095Y-77694342D02*
X138120714Y-77789580D01*
X138120714Y-77789580D02*
X138168333Y-77837200D01*
X138168333Y-77837200D02*
X138263571Y-77884819D01*
X138263571Y-77884819D02*
X138454047Y-77884819D01*
X138454047Y-77884819D02*
X138549285Y-77837200D01*
X138549285Y-77837200D02*
X138596904Y-77789580D01*
X138596904Y-77789580D02*
X138644523Y-77694342D01*
X138644523Y-77694342D02*
X138644523Y-77456247D01*
X138644523Y-77456247D02*
X138596904Y-77361009D01*
X138596904Y-77361009D02*
X138549285Y-77313390D01*
X138549285Y-77313390D02*
X138454047Y-77265771D01*
X138454047Y-77265771D02*
X138263571Y-77265771D01*
X138263571Y-77265771D02*
X138168333Y-77313390D01*
X138168333Y-77313390D02*
X138120714Y-77361009D01*
X138120714Y-77361009D02*
X138073095Y-77456247D01*
X39790476Y-115967200D02*
X39933333Y-116014819D01*
X39933333Y-116014819D02*
X40171428Y-116014819D01*
X40171428Y-116014819D02*
X40266666Y-115967200D01*
X40266666Y-115967200D02*
X40314285Y-115919580D01*
X40314285Y-115919580D02*
X40361904Y-115824342D01*
X40361904Y-115824342D02*
X40361904Y-115729104D01*
X40361904Y-115729104D02*
X40314285Y-115633866D01*
X40314285Y-115633866D02*
X40266666Y-115586247D01*
X40266666Y-115586247D02*
X40171428Y-115538628D01*
X40171428Y-115538628D02*
X39980952Y-115491009D01*
X39980952Y-115491009D02*
X39885714Y-115443390D01*
X39885714Y-115443390D02*
X39838095Y-115395771D01*
X39838095Y-115395771D02*
X39790476Y-115300533D01*
X39790476Y-115300533D02*
X39790476Y-115205295D01*
X39790476Y-115205295D02*
X39838095Y-115110057D01*
X39838095Y-115110057D02*
X39885714Y-115062438D01*
X39885714Y-115062438D02*
X39980952Y-115014819D01*
X39980952Y-115014819D02*
X40219047Y-115014819D01*
X40219047Y-115014819D02*
X40361904Y-115062438D01*
X40695238Y-115014819D02*
X40933333Y-116014819D01*
X40933333Y-116014819D02*
X41123809Y-115300533D01*
X41123809Y-115300533D02*
X41314285Y-116014819D01*
X41314285Y-116014819D02*
X41552381Y-115014819D01*
X41885714Y-115110057D02*
X41933333Y-115062438D01*
X41933333Y-115062438D02*
X42028571Y-115014819D01*
X42028571Y-115014819D02*
X42266666Y-115014819D01*
X42266666Y-115014819D02*
X42361904Y-115062438D01*
X42361904Y-115062438D02*
X42409523Y-115110057D01*
X42409523Y-115110057D02*
X42457142Y-115205295D01*
X42457142Y-115205295D02*
X42457142Y-115300533D01*
X42457142Y-115300533D02*
X42409523Y-115443390D01*
X42409523Y-115443390D02*
X41838095Y-116014819D01*
X41838095Y-116014819D02*
X42457142Y-116014819D01*
X43028571Y-115443390D02*
X42933333Y-115395771D01*
X42933333Y-115395771D02*
X42885714Y-115348152D01*
X42885714Y-115348152D02*
X42838095Y-115252914D01*
X42838095Y-115252914D02*
X42838095Y-115205295D01*
X42838095Y-115205295D02*
X42885714Y-115110057D01*
X42885714Y-115110057D02*
X42933333Y-115062438D01*
X42933333Y-115062438D02*
X43028571Y-115014819D01*
X43028571Y-115014819D02*
X43219047Y-115014819D01*
X43219047Y-115014819D02*
X43314285Y-115062438D01*
X43314285Y-115062438D02*
X43361904Y-115110057D01*
X43361904Y-115110057D02*
X43409523Y-115205295D01*
X43409523Y-115205295D02*
X43409523Y-115252914D01*
X43409523Y-115252914D02*
X43361904Y-115348152D01*
X43361904Y-115348152D02*
X43314285Y-115395771D01*
X43314285Y-115395771D02*
X43219047Y-115443390D01*
X43219047Y-115443390D02*
X43028571Y-115443390D01*
X43028571Y-115443390D02*
X42933333Y-115491009D01*
X42933333Y-115491009D02*
X42885714Y-115538628D01*
X42885714Y-115538628D02*
X42838095Y-115633866D01*
X42838095Y-115633866D02*
X42838095Y-115824342D01*
X42838095Y-115824342D02*
X42885714Y-115919580D01*
X42885714Y-115919580D02*
X42933333Y-115967200D01*
X42933333Y-115967200D02*
X43028571Y-116014819D01*
X43028571Y-116014819D02*
X43219047Y-116014819D01*
X43219047Y-116014819D02*
X43314285Y-115967200D01*
X43314285Y-115967200D02*
X43361904Y-115919580D01*
X43361904Y-115919580D02*
X43409523Y-115824342D01*
X43409523Y-115824342D02*
X43409523Y-115633866D01*
X43409523Y-115633866D02*
X43361904Y-115538628D01*
X43361904Y-115538628D02*
X43314285Y-115491009D01*
X43314285Y-115491009D02*
X43219047Y-115443390D01*
X135137976Y-58827200D02*
X135280833Y-58874819D01*
X135280833Y-58874819D02*
X135518928Y-58874819D01*
X135518928Y-58874819D02*
X135614166Y-58827200D01*
X135614166Y-58827200D02*
X135661785Y-58779580D01*
X135661785Y-58779580D02*
X135709404Y-58684342D01*
X135709404Y-58684342D02*
X135709404Y-58589104D01*
X135709404Y-58589104D02*
X135661785Y-58493866D01*
X135661785Y-58493866D02*
X135614166Y-58446247D01*
X135614166Y-58446247D02*
X135518928Y-58398628D01*
X135518928Y-58398628D02*
X135328452Y-58351009D01*
X135328452Y-58351009D02*
X135233214Y-58303390D01*
X135233214Y-58303390D02*
X135185595Y-58255771D01*
X135185595Y-58255771D02*
X135137976Y-58160533D01*
X135137976Y-58160533D02*
X135137976Y-58065295D01*
X135137976Y-58065295D02*
X135185595Y-57970057D01*
X135185595Y-57970057D02*
X135233214Y-57922438D01*
X135233214Y-57922438D02*
X135328452Y-57874819D01*
X135328452Y-57874819D02*
X135566547Y-57874819D01*
X135566547Y-57874819D02*
X135709404Y-57922438D01*
X136042738Y-57874819D02*
X136280833Y-58874819D01*
X136280833Y-58874819D02*
X136471309Y-58160533D01*
X136471309Y-58160533D02*
X136661785Y-58874819D01*
X136661785Y-58874819D02*
X136899881Y-57874819D01*
X137709404Y-58208152D02*
X137709404Y-58874819D01*
X137471309Y-57827200D02*
X137233214Y-58541485D01*
X137233214Y-58541485D02*
X137852261Y-58541485D01*
X138709404Y-57874819D02*
X138233214Y-57874819D01*
X138233214Y-57874819D02*
X138185595Y-58351009D01*
X138185595Y-58351009D02*
X138233214Y-58303390D01*
X138233214Y-58303390D02*
X138328452Y-58255771D01*
X138328452Y-58255771D02*
X138566547Y-58255771D01*
X138566547Y-58255771D02*
X138661785Y-58303390D01*
X138661785Y-58303390D02*
X138709404Y-58351009D01*
X138709404Y-58351009D02*
X138757023Y-58446247D01*
X138757023Y-58446247D02*
X138757023Y-58684342D01*
X138757023Y-58684342D02*
X138709404Y-58779580D01*
X138709404Y-58779580D02*
X138661785Y-58827200D01*
X138661785Y-58827200D02*
X138566547Y-58874819D01*
X138566547Y-58874819D02*
X138328452Y-58874819D01*
X138328452Y-58874819D02*
X138233214Y-58827200D01*
X138233214Y-58827200D02*
X138185595Y-58779580D01*
X159220476Y-97037200D02*
X159363333Y-97084819D01*
X159363333Y-97084819D02*
X159601428Y-97084819D01*
X159601428Y-97084819D02*
X159696666Y-97037200D01*
X159696666Y-97037200D02*
X159744285Y-96989580D01*
X159744285Y-96989580D02*
X159791904Y-96894342D01*
X159791904Y-96894342D02*
X159791904Y-96799104D01*
X159791904Y-96799104D02*
X159744285Y-96703866D01*
X159744285Y-96703866D02*
X159696666Y-96656247D01*
X159696666Y-96656247D02*
X159601428Y-96608628D01*
X159601428Y-96608628D02*
X159410952Y-96561009D01*
X159410952Y-96561009D02*
X159315714Y-96513390D01*
X159315714Y-96513390D02*
X159268095Y-96465771D01*
X159268095Y-96465771D02*
X159220476Y-96370533D01*
X159220476Y-96370533D02*
X159220476Y-96275295D01*
X159220476Y-96275295D02*
X159268095Y-96180057D01*
X159268095Y-96180057D02*
X159315714Y-96132438D01*
X159315714Y-96132438D02*
X159410952Y-96084819D01*
X159410952Y-96084819D02*
X159649047Y-96084819D01*
X159649047Y-96084819D02*
X159791904Y-96132438D01*
X160125238Y-96084819D02*
X160363333Y-97084819D01*
X160363333Y-97084819D02*
X160553809Y-96370533D01*
X160553809Y-96370533D02*
X160744285Y-97084819D01*
X160744285Y-97084819D02*
X160982381Y-96084819D01*
X161887142Y-97084819D02*
X161315714Y-97084819D01*
X161601428Y-97084819D02*
X161601428Y-96084819D01*
X161601428Y-96084819D02*
X161506190Y-96227676D01*
X161506190Y-96227676D02*
X161410952Y-96322914D01*
X161410952Y-96322914D02*
X161315714Y-96370533D01*
X162220476Y-96084819D02*
X162839523Y-96084819D01*
X162839523Y-96084819D02*
X162506190Y-96465771D01*
X162506190Y-96465771D02*
X162649047Y-96465771D01*
X162649047Y-96465771D02*
X162744285Y-96513390D01*
X162744285Y-96513390D02*
X162791904Y-96561009D01*
X162791904Y-96561009D02*
X162839523Y-96656247D01*
X162839523Y-96656247D02*
X162839523Y-96894342D01*
X162839523Y-96894342D02*
X162791904Y-96989580D01*
X162791904Y-96989580D02*
X162744285Y-97037200D01*
X162744285Y-97037200D02*
X162649047Y-97084819D01*
X162649047Y-97084819D02*
X162363333Y-97084819D01*
X162363333Y-97084819D02*
X162268095Y-97037200D01*
X162268095Y-97037200D02*
X162220476Y-96989580D01*
X254470476Y-116087200D02*
X254613333Y-116134819D01*
X254613333Y-116134819D02*
X254851428Y-116134819D01*
X254851428Y-116134819D02*
X254946666Y-116087200D01*
X254946666Y-116087200D02*
X254994285Y-116039580D01*
X254994285Y-116039580D02*
X255041904Y-115944342D01*
X255041904Y-115944342D02*
X255041904Y-115849104D01*
X255041904Y-115849104D02*
X254994285Y-115753866D01*
X254994285Y-115753866D02*
X254946666Y-115706247D01*
X254946666Y-115706247D02*
X254851428Y-115658628D01*
X254851428Y-115658628D02*
X254660952Y-115611009D01*
X254660952Y-115611009D02*
X254565714Y-115563390D01*
X254565714Y-115563390D02*
X254518095Y-115515771D01*
X254518095Y-115515771D02*
X254470476Y-115420533D01*
X254470476Y-115420533D02*
X254470476Y-115325295D01*
X254470476Y-115325295D02*
X254518095Y-115230057D01*
X254518095Y-115230057D02*
X254565714Y-115182438D01*
X254565714Y-115182438D02*
X254660952Y-115134819D01*
X254660952Y-115134819D02*
X254899047Y-115134819D01*
X254899047Y-115134819D02*
X255041904Y-115182438D01*
X255375238Y-115134819D02*
X255613333Y-116134819D01*
X255613333Y-116134819D02*
X255803809Y-115420533D01*
X255803809Y-115420533D02*
X255994285Y-116134819D01*
X255994285Y-116134819D02*
X256232381Y-115134819D01*
X256565714Y-115230057D02*
X256613333Y-115182438D01*
X256613333Y-115182438D02*
X256708571Y-115134819D01*
X256708571Y-115134819D02*
X256946666Y-115134819D01*
X256946666Y-115134819D02*
X257041904Y-115182438D01*
X257041904Y-115182438D02*
X257089523Y-115230057D01*
X257089523Y-115230057D02*
X257137142Y-115325295D01*
X257137142Y-115325295D02*
X257137142Y-115420533D01*
X257137142Y-115420533D02*
X257089523Y-115563390D01*
X257089523Y-115563390D02*
X256518095Y-116134819D01*
X256518095Y-116134819D02*
X257137142Y-116134819D01*
X257994285Y-115468152D02*
X257994285Y-116134819D01*
X257756190Y-115087200D02*
X257518095Y-115801485D01*
X257518095Y-115801485D02*
X258137142Y-115801485D01*
X116050476Y-112887200D02*
X116193333Y-112934819D01*
X116193333Y-112934819D02*
X116431428Y-112934819D01*
X116431428Y-112934819D02*
X116526666Y-112887200D01*
X116526666Y-112887200D02*
X116574285Y-112839580D01*
X116574285Y-112839580D02*
X116621904Y-112744342D01*
X116621904Y-112744342D02*
X116621904Y-112649104D01*
X116621904Y-112649104D02*
X116574285Y-112553866D01*
X116574285Y-112553866D02*
X116526666Y-112506247D01*
X116526666Y-112506247D02*
X116431428Y-112458628D01*
X116431428Y-112458628D02*
X116240952Y-112411009D01*
X116240952Y-112411009D02*
X116145714Y-112363390D01*
X116145714Y-112363390D02*
X116098095Y-112315771D01*
X116098095Y-112315771D02*
X116050476Y-112220533D01*
X116050476Y-112220533D02*
X116050476Y-112125295D01*
X116050476Y-112125295D02*
X116098095Y-112030057D01*
X116098095Y-112030057D02*
X116145714Y-111982438D01*
X116145714Y-111982438D02*
X116240952Y-111934819D01*
X116240952Y-111934819D02*
X116479047Y-111934819D01*
X116479047Y-111934819D02*
X116621904Y-111982438D01*
X116955238Y-111934819D02*
X117193333Y-112934819D01*
X117193333Y-112934819D02*
X117383809Y-112220533D01*
X117383809Y-112220533D02*
X117574285Y-112934819D01*
X117574285Y-112934819D02*
X117812381Y-111934819D01*
X118621904Y-112268152D02*
X118621904Y-112934819D01*
X118383809Y-111887200D02*
X118145714Y-112601485D01*
X118145714Y-112601485D02*
X118764761Y-112601485D01*
X119574285Y-112268152D02*
X119574285Y-112934819D01*
X119336190Y-111887200D02*
X119098095Y-112601485D01*
X119098095Y-112601485D02*
X119717142Y-112601485D01*
X77922976Y-86737200D02*
X78065833Y-86784819D01*
X78065833Y-86784819D02*
X78303928Y-86784819D01*
X78303928Y-86784819D02*
X78399166Y-86737200D01*
X78399166Y-86737200D02*
X78446785Y-86689580D01*
X78446785Y-86689580D02*
X78494404Y-86594342D01*
X78494404Y-86594342D02*
X78494404Y-86499104D01*
X78494404Y-86499104D02*
X78446785Y-86403866D01*
X78446785Y-86403866D02*
X78399166Y-86356247D01*
X78399166Y-86356247D02*
X78303928Y-86308628D01*
X78303928Y-86308628D02*
X78113452Y-86261009D01*
X78113452Y-86261009D02*
X78018214Y-86213390D01*
X78018214Y-86213390D02*
X77970595Y-86165771D01*
X77970595Y-86165771D02*
X77922976Y-86070533D01*
X77922976Y-86070533D02*
X77922976Y-85975295D01*
X77922976Y-85975295D02*
X77970595Y-85880057D01*
X77970595Y-85880057D02*
X78018214Y-85832438D01*
X78018214Y-85832438D02*
X78113452Y-85784819D01*
X78113452Y-85784819D02*
X78351547Y-85784819D01*
X78351547Y-85784819D02*
X78494404Y-85832438D01*
X78827738Y-85784819D02*
X79065833Y-86784819D01*
X79065833Y-86784819D02*
X79256309Y-86070533D01*
X79256309Y-86070533D02*
X79446785Y-86784819D01*
X79446785Y-86784819D02*
X79684881Y-85784819D01*
X79970595Y-85784819D02*
X80589642Y-85784819D01*
X80589642Y-85784819D02*
X80256309Y-86165771D01*
X80256309Y-86165771D02*
X80399166Y-86165771D01*
X80399166Y-86165771D02*
X80494404Y-86213390D01*
X80494404Y-86213390D02*
X80542023Y-86261009D01*
X80542023Y-86261009D02*
X80589642Y-86356247D01*
X80589642Y-86356247D02*
X80589642Y-86594342D01*
X80589642Y-86594342D02*
X80542023Y-86689580D01*
X80542023Y-86689580D02*
X80494404Y-86737200D01*
X80494404Y-86737200D02*
X80399166Y-86784819D01*
X80399166Y-86784819D02*
X80113452Y-86784819D01*
X80113452Y-86784819D02*
X80018214Y-86737200D01*
X80018214Y-86737200D02*
X79970595Y-86689580D01*
X81494404Y-85784819D02*
X81018214Y-85784819D01*
X81018214Y-85784819D02*
X80970595Y-86261009D01*
X80970595Y-86261009D02*
X81018214Y-86213390D01*
X81018214Y-86213390D02*
X81113452Y-86165771D01*
X81113452Y-86165771D02*
X81351547Y-86165771D01*
X81351547Y-86165771D02*
X81446785Y-86213390D01*
X81446785Y-86213390D02*
X81494404Y-86261009D01*
X81494404Y-86261009D02*
X81542023Y-86356247D01*
X81542023Y-86356247D02*
X81542023Y-86594342D01*
X81542023Y-86594342D02*
X81494404Y-86689580D01*
X81494404Y-86689580D02*
X81446785Y-86737200D01*
X81446785Y-86737200D02*
X81351547Y-86784819D01*
X81351547Y-86784819D02*
X81113452Y-86784819D01*
X81113452Y-86784819D02*
X81018214Y-86737200D01*
X81018214Y-86737200D02*
X80970595Y-86689580D01*
X178746667Y-55762200D02*
X178889524Y-55809819D01*
X178889524Y-55809819D02*
X179127619Y-55809819D01*
X179127619Y-55809819D02*
X179222857Y-55762200D01*
X179222857Y-55762200D02*
X179270476Y-55714580D01*
X179270476Y-55714580D02*
X179318095Y-55619342D01*
X179318095Y-55619342D02*
X179318095Y-55524104D01*
X179318095Y-55524104D02*
X179270476Y-55428866D01*
X179270476Y-55428866D02*
X179222857Y-55381247D01*
X179222857Y-55381247D02*
X179127619Y-55333628D01*
X179127619Y-55333628D02*
X178937143Y-55286009D01*
X178937143Y-55286009D02*
X178841905Y-55238390D01*
X178841905Y-55238390D02*
X178794286Y-55190771D01*
X178794286Y-55190771D02*
X178746667Y-55095533D01*
X178746667Y-55095533D02*
X178746667Y-55000295D01*
X178746667Y-55000295D02*
X178794286Y-54905057D01*
X178794286Y-54905057D02*
X178841905Y-54857438D01*
X178841905Y-54857438D02*
X178937143Y-54809819D01*
X178937143Y-54809819D02*
X179175238Y-54809819D01*
X179175238Y-54809819D02*
X179318095Y-54857438D01*
X179651429Y-54809819D02*
X179889524Y-55809819D01*
X179889524Y-55809819D02*
X180080000Y-55095533D01*
X180080000Y-55095533D02*
X180270476Y-55809819D01*
X180270476Y-55809819D02*
X180508572Y-54809819D01*
X180841905Y-54905057D02*
X180889524Y-54857438D01*
X180889524Y-54857438D02*
X180984762Y-54809819D01*
X180984762Y-54809819D02*
X181222857Y-54809819D01*
X181222857Y-54809819D02*
X181318095Y-54857438D01*
X181318095Y-54857438D02*
X181365714Y-54905057D01*
X181365714Y-54905057D02*
X181413333Y-55000295D01*
X181413333Y-55000295D02*
X181413333Y-55095533D01*
X181413333Y-55095533D02*
X181365714Y-55238390D01*
X181365714Y-55238390D02*
X180794286Y-55809819D01*
X180794286Y-55809819D02*
X181413333Y-55809819D01*
X115975476Y-74662200D02*
X116118333Y-74709819D01*
X116118333Y-74709819D02*
X116356428Y-74709819D01*
X116356428Y-74709819D02*
X116451666Y-74662200D01*
X116451666Y-74662200D02*
X116499285Y-74614580D01*
X116499285Y-74614580D02*
X116546904Y-74519342D01*
X116546904Y-74519342D02*
X116546904Y-74424104D01*
X116546904Y-74424104D02*
X116499285Y-74328866D01*
X116499285Y-74328866D02*
X116451666Y-74281247D01*
X116451666Y-74281247D02*
X116356428Y-74233628D01*
X116356428Y-74233628D02*
X116165952Y-74186009D01*
X116165952Y-74186009D02*
X116070714Y-74138390D01*
X116070714Y-74138390D02*
X116023095Y-74090771D01*
X116023095Y-74090771D02*
X115975476Y-73995533D01*
X115975476Y-73995533D02*
X115975476Y-73900295D01*
X115975476Y-73900295D02*
X116023095Y-73805057D01*
X116023095Y-73805057D02*
X116070714Y-73757438D01*
X116070714Y-73757438D02*
X116165952Y-73709819D01*
X116165952Y-73709819D02*
X116404047Y-73709819D01*
X116404047Y-73709819D02*
X116546904Y-73757438D01*
X116880238Y-73709819D02*
X117118333Y-74709819D01*
X117118333Y-74709819D02*
X117308809Y-73995533D01*
X117308809Y-73995533D02*
X117499285Y-74709819D01*
X117499285Y-74709819D02*
X117737381Y-73709819D01*
X118546904Y-74043152D02*
X118546904Y-74709819D01*
X118308809Y-73662200D02*
X118070714Y-74376485D01*
X118070714Y-74376485D02*
X118689761Y-74376485D01*
X119023095Y-73805057D02*
X119070714Y-73757438D01*
X119070714Y-73757438D02*
X119165952Y-73709819D01*
X119165952Y-73709819D02*
X119404047Y-73709819D01*
X119404047Y-73709819D02*
X119499285Y-73757438D01*
X119499285Y-73757438D02*
X119546904Y-73805057D01*
X119546904Y-73805057D02*
X119594523Y-73900295D01*
X119594523Y-73900295D02*
X119594523Y-73995533D01*
X119594523Y-73995533D02*
X119546904Y-74138390D01*
X119546904Y-74138390D02*
X118975476Y-74709819D01*
X118975476Y-74709819D02*
X119594523Y-74709819D01*
X178270476Y-112912200D02*
X178413333Y-112959819D01*
X178413333Y-112959819D02*
X178651428Y-112959819D01*
X178651428Y-112959819D02*
X178746666Y-112912200D01*
X178746666Y-112912200D02*
X178794285Y-112864580D01*
X178794285Y-112864580D02*
X178841904Y-112769342D01*
X178841904Y-112769342D02*
X178841904Y-112674104D01*
X178841904Y-112674104D02*
X178794285Y-112578866D01*
X178794285Y-112578866D02*
X178746666Y-112531247D01*
X178746666Y-112531247D02*
X178651428Y-112483628D01*
X178651428Y-112483628D02*
X178460952Y-112436009D01*
X178460952Y-112436009D02*
X178365714Y-112388390D01*
X178365714Y-112388390D02*
X178318095Y-112340771D01*
X178318095Y-112340771D02*
X178270476Y-112245533D01*
X178270476Y-112245533D02*
X178270476Y-112150295D01*
X178270476Y-112150295D02*
X178318095Y-112055057D01*
X178318095Y-112055057D02*
X178365714Y-112007438D01*
X178365714Y-112007438D02*
X178460952Y-111959819D01*
X178460952Y-111959819D02*
X178699047Y-111959819D01*
X178699047Y-111959819D02*
X178841904Y-112007438D01*
X179175238Y-111959819D02*
X179413333Y-112959819D01*
X179413333Y-112959819D02*
X179603809Y-112245533D01*
X179603809Y-112245533D02*
X179794285Y-112959819D01*
X179794285Y-112959819D02*
X180032381Y-111959819D01*
X180365714Y-112055057D02*
X180413333Y-112007438D01*
X180413333Y-112007438D02*
X180508571Y-111959819D01*
X180508571Y-111959819D02*
X180746666Y-111959819D01*
X180746666Y-111959819D02*
X180841904Y-112007438D01*
X180841904Y-112007438D02*
X180889523Y-112055057D01*
X180889523Y-112055057D02*
X180937142Y-112150295D01*
X180937142Y-112150295D02*
X180937142Y-112245533D01*
X180937142Y-112245533D02*
X180889523Y-112388390D01*
X180889523Y-112388390D02*
X180318095Y-112959819D01*
X180318095Y-112959819D02*
X180937142Y-112959819D01*
X181556190Y-111959819D02*
X181651428Y-111959819D01*
X181651428Y-111959819D02*
X181746666Y-112007438D01*
X181746666Y-112007438D02*
X181794285Y-112055057D01*
X181794285Y-112055057D02*
X181841904Y-112150295D01*
X181841904Y-112150295D02*
X181889523Y-112340771D01*
X181889523Y-112340771D02*
X181889523Y-112578866D01*
X181889523Y-112578866D02*
X181841904Y-112769342D01*
X181841904Y-112769342D02*
X181794285Y-112864580D01*
X181794285Y-112864580D02*
X181746666Y-112912200D01*
X181746666Y-112912200D02*
X181651428Y-112959819D01*
X181651428Y-112959819D02*
X181556190Y-112959819D01*
X181556190Y-112959819D02*
X181460952Y-112912200D01*
X181460952Y-112912200D02*
X181413333Y-112864580D01*
X181413333Y-112864580D02*
X181365714Y-112769342D01*
X181365714Y-112769342D02*
X181318095Y-112578866D01*
X181318095Y-112578866D02*
X181318095Y-112340771D01*
X181318095Y-112340771D02*
X181365714Y-112150295D01*
X181365714Y-112150295D02*
X181413333Y-112055057D01*
X181413333Y-112055057D02*
X181460952Y-112007438D01*
X181460952Y-112007438D02*
X181556190Y-111959819D01*
X216370476Y-105768450D02*
X216513333Y-105816069D01*
X216513333Y-105816069D02*
X216751428Y-105816069D01*
X216751428Y-105816069D02*
X216846666Y-105768450D01*
X216846666Y-105768450D02*
X216894285Y-105720830D01*
X216894285Y-105720830D02*
X216941904Y-105625592D01*
X216941904Y-105625592D02*
X216941904Y-105530354D01*
X216941904Y-105530354D02*
X216894285Y-105435116D01*
X216894285Y-105435116D02*
X216846666Y-105387497D01*
X216846666Y-105387497D02*
X216751428Y-105339878D01*
X216751428Y-105339878D02*
X216560952Y-105292259D01*
X216560952Y-105292259D02*
X216465714Y-105244640D01*
X216465714Y-105244640D02*
X216418095Y-105197021D01*
X216418095Y-105197021D02*
X216370476Y-105101783D01*
X216370476Y-105101783D02*
X216370476Y-105006545D01*
X216370476Y-105006545D02*
X216418095Y-104911307D01*
X216418095Y-104911307D02*
X216465714Y-104863688D01*
X216465714Y-104863688D02*
X216560952Y-104816069D01*
X216560952Y-104816069D02*
X216799047Y-104816069D01*
X216799047Y-104816069D02*
X216941904Y-104863688D01*
X217275238Y-104816069D02*
X217513333Y-105816069D01*
X217513333Y-105816069D02*
X217703809Y-105101783D01*
X217703809Y-105101783D02*
X217894285Y-105816069D01*
X217894285Y-105816069D02*
X218132381Y-104816069D01*
X218465714Y-104911307D02*
X218513333Y-104863688D01*
X218513333Y-104863688D02*
X218608571Y-104816069D01*
X218608571Y-104816069D02*
X218846666Y-104816069D01*
X218846666Y-104816069D02*
X218941904Y-104863688D01*
X218941904Y-104863688D02*
X218989523Y-104911307D01*
X218989523Y-104911307D02*
X219037142Y-105006545D01*
X219037142Y-105006545D02*
X219037142Y-105101783D01*
X219037142Y-105101783D02*
X218989523Y-105244640D01*
X218989523Y-105244640D02*
X218418095Y-105816069D01*
X218418095Y-105816069D02*
X219037142Y-105816069D01*
X219418095Y-104911307D02*
X219465714Y-104863688D01*
X219465714Y-104863688D02*
X219560952Y-104816069D01*
X219560952Y-104816069D02*
X219799047Y-104816069D01*
X219799047Y-104816069D02*
X219894285Y-104863688D01*
X219894285Y-104863688D02*
X219941904Y-104911307D01*
X219941904Y-104911307D02*
X219989523Y-105006545D01*
X219989523Y-105006545D02*
X219989523Y-105101783D01*
X219989523Y-105101783D02*
X219941904Y-105244640D01*
X219941904Y-105244640D02*
X219370476Y-105816069D01*
X219370476Y-105816069D02*
X219989523Y-105816069D01*
X116022976Y-93777200D02*
X116165833Y-93824819D01*
X116165833Y-93824819D02*
X116403928Y-93824819D01*
X116403928Y-93824819D02*
X116499166Y-93777200D01*
X116499166Y-93777200D02*
X116546785Y-93729580D01*
X116546785Y-93729580D02*
X116594404Y-93634342D01*
X116594404Y-93634342D02*
X116594404Y-93539104D01*
X116594404Y-93539104D02*
X116546785Y-93443866D01*
X116546785Y-93443866D02*
X116499166Y-93396247D01*
X116499166Y-93396247D02*
X116403928Y-93348628D01*
X116403928Y-93348628D02*
X116213452Y-93301009D01*
X116213452Y-93301009D02*
X116118214Y-93253390D01*
X116118214Y-93253390D02*
X116070595Y-93205771D01*
X116070595Y-93205771D02*
X116022976Y-93110533D01*
X116022976Y-93110533D02*
X116022976Y-93015295D01*
X116022976Y-93015295D02*
X116070595Y-92920057D01*
X116070595Y-92920057D02*
X116118214Y-92872438D01*
X116118214Y-92872438D02*
X116213452Y-92824819D01*
X116213452Y-92824819D02*
X116451547Y-92824819D01*
X116451547Y-92824819D02*
X116594404Y-92872438D01*
X116927738Y-92824819D02*
X117165833Y-93824819D01*
X117165833Y-93824819D02*
X117356309Y-93110533D01*
X117356309Y-93110533D02*
X117546785Y-93824819D01*
X117546785Y-93824819D02*
X117784881Y-92824819D01*
X118594404Y-93158152D02*
X118594404Y-93824819D01*
X118356309Y-92777200D02*
X118118214Y-93491485D01*
X118118214Y-93491485D02*
X118737261Y-93491485D01*
X119022976Y-92824819D02*
X119642023Y-92824819D01*
X119642023Y-92824819D02*
X119308690Y-93205771D01*
X119308690Y-93205771D02*
X119451547Y-93205771D01*
X119451547Y-93205771D02*
X119546785Y-93253390D01*
X119546785Y-93253390D02*
X119594404Y-93301009D01*
X119594404Y-93301009D02*
X119642023Y-93396247D01*
X119642023Y-93396247D02*
X119642023Y-93634342D01*
X119642023Y-93634342D02*
X119594404Y-93729580D01*
X119594404Y-93729580D02*
X119546785Y-93777200D01*
X119546785Y-93777200D02*
X119451547Y-93824819D01*
X119451547Y-93824819D02*
X119165833Y-93824819D01*
X119165833Y-93824819D02*
X119070595Y-93777200D01*
X119070595Y-93777200D02*
X119022976Y-93729580D01*
X235420476Y-73224700D02*
X235563333Y-73272319D01*
X235563333Y-73272319D02*
X235801428Y-73272319D01*
X235801428Y-73272319D02*
X235896666Y-73224700D01*
X235896666Y-73224700D02*
X235944285Y-73177080D01*
X235944285Y-73177080D02*
X235991904Y-73081842D01*
X235991904Y-73081842D02*
X235991904Y-72986604D01*
X235991904Y-72986604D02*
X235944285Y-72891366D01*
X235944285Y-72891366D02*
X235896666Y-72843747D01*
X235896666Y-72843747D02*
X235801428Y-72796128D01*
X235801428Y-72796128D02*
X235610952Y-72748509D01*
X235610952Y-72748509D02*
X235515714Y-72700890D01*
X235515714Y-72700890D02*
X235468095Y-72653271D01*
X235468095Y-72653271D02*
X235420476Y-72558033D01*
X235420476Y-72558033D02*
X235420476Y-72462795D01*
X235420476Y-72462795D02*
X235468095Y-72367557D01*
X235468095Y-72367557D02*
X235515714Y-72319938D01*
X235515714Y-72319938D02*
X235610952Y-72272319D01*
X235610952Y-72272319D02*
X235849047Y-72272319D01*
X235849047Y-72272319D02*
X235991904Y-72319938D01*
X236325238Y-72272319D02*
X236563333Y-73272319D01*
X236563333Y-73272319D02*
X236753809Y-72558033D01*
X236753809Y-72558033D02*
X236944285Y-73272319D01*
X236944285Y-73272319D02*
X237182381Y-72272319D01*
X238087142Y-73272319D02*
X237515714Y-73272319D01*
X237801428Y-73272319D02*
X237801428Y-72272319D01*
X237801428Y-72272319D02*
X237706190Y-72415176D01*
X237706190Y-72415176D02*
X237610952Y-72510414D01*
X237610952Y-72510414D02*
X237515714Y-72558033D01*
X239039523Y-73272319D02*
X238468095Y-73272319D01*
X238753809Y-73272319D02*
X238753809Y-72272319D01*
X238753809Y-72272319D02*
X238658571Y-72415176D01*
X238658571Y-72415176D02*
X238563333Y-72510414D01*
X238563333Y-72510414D02*
X238468095Y-72558033D01*
X216846667Y-48618450D02*
X216989524Y-48666069D01*
X216989524Y-48666069D02*
X217227619Y-48666069D01*
X217227619Y-48666069D02*
X217322857Y-48618450D01*
X217322857Y-48618450D02*
X217370476Y-48570830D01*
X217370476Y-48570830D02*
X217418095Y-48475592D01*
X217418095Y-48475592D02*
X217418095Y-48380354D01*
X217418095Y-48380354D02*
X217370476Y-48285116D01*
X217370476Y-48285116D02*
X217322857Y-48237497D01*
X217322857Y-48237497D02*
X217227619Y-48189878D01*
X217227619Y-48189878D02*
X217037143Y-48142259D01*
X217037143Y-48142259D02*
X216941905Y-48094640D01*
X216941905Y-48094640D02*
X216894286Y-48047021D01*
X216894286Y-48047021D02*
X216846667Y-47951783D01*
X216846667Y-47951783D02*
X216846667Y-47856545D01*
X216846667Y-47856545D02*
X216894286Y-47761307D01*
X216894286Y-47761307D02*
X216941905Y-47713688D01*
X216941905Y-47713688D02*
X217037143Y-47666069D01*
X217037143Y-47666069D02*
X217275238Y-47666069D01*
X217275238Y-47666069D02*
X217418095Y-47713688D01*
X217751429Y-47666069D02*
X217989524Y-48666069D01*
X217989524Y-48666069D02*
X218180000Y-47951783D01*
X218180000Y-47951783D02*
X218370476Y-48666069D01*
X218370476Y-48666069D02*
X218608572Y-47666069D01*
X219418095Y-47999402D02*
X219418095Y-48666069D01*
X219180000Y-47618450D02*
X218941905Y-48332735D01*
X218941905Y-48332735D02*
X219560952Y-48332735D01*
X135080476Y-97017200D02*
X135223333Y-97064819D01*
X135223333Y-97064819D02*
X135461428Y-97064819D01*
X135461428Y-97064819D02*
X135556666Y-97017200D01*
X135556666Y-97017200D02*
X135604285Y-96969580D01*
X135604285Y-96969580D02*
X135651904Y-96874342D01*
X135651904Y-96874342D02*
X135651904Y-96779104D01*
X135651904Y-96779104D02*
X135604285Y-96683866D01*
X135604285Y-96683866D02*
X135556666Y-96636247D01*
X135556666Y-96636247D02*
X135461428Y-96588628D01*
X135461428Y-96588628D02*
X135270952Y-96541009D01*
X135270952Y-96541009D02*
X135175714Y-96493390D01*
X135175714Y-96493390D02*
X135128095Y-96445771D01*
X135128095Y-96445771D02*
X135080476Y-96350533D01*
X135080476Y-96350533D02*
X135080476Y-96255295D01*
X135080476Y-96255295D02*
X135128095Y-96160057D01*
X135128095Y-96160057D02*
X135175714Y-96112438D01*
X135175714Y-96112438D02*
X135270952Y-96064819D01*
X135270952Y-96064819D02*
X135509047Y-96064819D01*
X135509047Y-96064819D02*
X135651904Y-96112438D01*
X135985238Y-96064819D02*
X136223333Y-97064819D01*
X136223333Y-97064819D02*
X136413809Y-96350533D01*
X136413809Y-96350533D02*
X136604285Y-97064819D01*
X136604285Y-97064819D02*
X136842381Y-96064819D01*
X137651904Y-96398152D02*
X137651904Y-97064819D01*
X137413809Y-96017200D02*
X137175714Y-96731485D01*
X137175714Y-96731485D02*
X137794761Y-96731485D01*
X138080476Y-96064819D02*
X138747142Y-96064819D01*
X138747142Y-96064819D02*
X138318571Y-97064819D01*
X77790476Y-105757200D02*
X77933333Y-105804819D01*
X77933333Y-105804819D02*
X78171428Y-105804819D01*
X78171428Y-105804819D02*
X78266666Y-105757200D01*
X78266666Y-105757200D02*
X78314285Y-105709580D01*
X78314285Y-105709580D02*
X78361904Y-105614342D01*
X78361904Y-105614342D02*
X78361904Y-105519104D01*
X78361904Y-105519104D02*
X78314285Y-105423866D01*
X78314285Y-105423866D02*
X78266666Y-105376247D01*
X78266666Y-105376247D02*
X78171428Y-105328628D01*
X78171428Y-105328628D02*
X77980952Y-105281009D01*
X77980952Y-105281009D02*
X77885714Y-105233390D01*
X77885714Y-105233390D02*
X77838095Y-105185771D01*
X77838095Y-105185771D02*
X77790476Y-105090533D01*
X77790476Y-105090533D02*
X77790476Y-104995295D01*
X77790476Y-104995295D02*
X77838095Y-104900057D01*
X77838095Y-104900057D02*
X77885714Y-104852438D01*
X77885714Y-104852438D02*
X77980952Y-104804819D01*
X77980952Y-104804819D02*
X78219047Y-104804819D01*
X78219047Y-104804819D02*
X78361904Y-104852438D01*
X78695238Y-104804819D02*
X78933333Y-105804819D01*
X78933333Y-105804819D02*
X79123809Y-105090533D01*
X79123809Y-105090533D02*
X79314285Y-105804819D01*
X79314285Y-105804819D02*
X79552381Y-104804819D01*
X79838095Y-104804819D02*
X80457142Y-104804819D01*
X80457142Y-104804819D02*
X80123809Y-105185771D01*
X80123809Y-105185771D02*
X80266666Y-105185771D01*
X80266666Y-105185771D02*
X80361904Y-105233390D01*
X80361904Y-105233390D02*
X80409523Y-105281009D01*
X80409523Y-105281009D02*
X80457142Y-105376247D01*
X80457142Y-105376247D02*
X80457142Y-105614342D01*
X80457142Y-105614342D02*
X80409523Y-105709580D01*
X80409523Y-105709580D02*
X80361904Y-105757200D01*
X80361904Y-105757200D02*
X80266666Y-105804819D01*
X80266666Y-105804819D02*
X79980952Y-105804819D01*
X79980952Y-105804819D02*
X79885714Y-105757200D01*
X79885714Y-105757200D02*
X79838095Y-105709580D01*
X81314285Y-104804819D02*
X81123809Y-104804819D01*
X81123809Y-104804819D02*
X81028571Y-104852438D01*
X81028571Y-104852438D02*
X80980952Y-104900057D01*
X80980952Y-104900057D02*
X80885714Y-105042914D01*
X80885714Y-105042914D02*
X80838095Y-105233390D01*
X80838095Y-105233390D02*
X80838095Y-105614342D01*
X80838095Y-105614342D02*
X80885714Y-105709580D01*
X80885714Y-105709580D02*
X80933333Y-105757200D01*
X80933333Y-105757200D02*
X81028571Y-105804819D01*
X81028571Y-105804819D02*
X81219047Y-105804819D01*
X81219047Y-105804819D02*
X81314285Y-105757200D01*
X81314285Y-105757200D02*
X81361904Y-105709580D01*
X81361904Y-105709580D02*
X81409523Y-105614342D01*
X81409523Y-105614342D02*
X81409523Y-105376247D01*
X81409523Y-105376247D02*
X81361904Y-105281009D01*
X81361904Y-105281009D02*
X81314285Y-105233390D01*
X81314285Y-105233390D02*
X81219047Y-105185771D01*
X81219047Y-105185771D02*
X81028571Y-105185771D01*
X81028571Y-105185771D02*
X80933333Y-105233390D01*
X80933333Y-105233390D02*
X80885714Y-105281009D01*
X80885714Y-105281009D02*
X80838095Y-105376247D01*
X197796667Y-70049700D02*
X197939524Y-70097319D01*
X197939524Y-70097319D02*
X198177619Y-70097319D01*
X198177619Y-70097319D02*
X198272857Y-70049700D01*
X198272857Y-70049700D02*
X198320476Y-70002080D01*
X198320476Y-70002080D02*
X198368095Y-69906842D01*
X198368095Y-69906842D02*
X198368095Y-69811604D01*
X198368095Y-69811604D02*
X198320476Y-69716366D01*
X198320476Y-69716366D02*
X198272857Y-69668747D01*
X198272857Y-69668747D02*
X198177619Y-69621128D01*
X198177619Y-69621128D02*
X197987143Y-69573509D01*
X197987143Y-69573509D02*
X197891905Y-69525890D01*
X197891905Y-69525890D02*
X197844286Y-69478271D01*
X197844286Y-69478271D02*
X197796667Y-69383033D01*
X197796667Y-69383033D02*
X197796667Y-69287795D01*
X197796667Y-69287795D02*
X197844286Y-69192557D01*
X197844286Y-69192557D02*
X197891905Y-69144938D01*
X197891905Y-69144938D02*
X197987143Y-69097319D01*
X197987143Y-69097319D02*
X198225238Y-69097319D01*
X198225238Y-69097319D02*
X198368095Y-69144938D01*
X198701429Y-69097319D02*
X198939524Y-70097319D01*
X198939524Y-70097319D02*
X199130000Y-69383033D01*
X199130000Y-69383033D02*
X199320476Y-70097319D01*
X199320476Y-70097319D02*
X199558572Y-69097319D01*
X199987143Y-70097319D02*
X200177619Y-70097319D01*
X200177619Y-70097319D02*
X200272857Y-70049700D01*
X200272857Y-70049700D02*
X200320476Y-70002080D01*
X200320476Y-70002080D02*
X200415714Y-69859223D01*
X200415714Y-69859223D02*
X200463333Y-69668747D01*
X200463333Y-69668747D02*
X200463333Y-69287795D01*
X200463333Y-69287795D02*
X200415714Y-69192557D01*
X200415714Y-69192557D02*
X200368095Y-69144938D01*
X200368095Y-69144938D02*
X200272857Y-69097319D01*
X200272857Y-69097319D02*
X200082381Y-69097319D01*
X200082381Y-69097319D02*
X199987143Y-69144938D01*
X199987143Y-69144938D02*
X199939524Y-69192557D01*
X199939524Y-69192557D02*
X199891905Y-69287795D01*
X199891905Y-69287795D02*
X199891905Y-69525890D01*
X199891905Y-69525890D02*
X199939524Y-69621128D01*
X199939524Y-69621128D02*
X199987143Y-69668747D01*
X199987143Y-69668747D02*
X200082381Y-69716366D01*
X200082381Y-69716366D02*
X200272857Y-69716366D01*
X200272857Y-69716366D02*
X200368095Y-69668747D01*
X200368095Y-69668747D02*
X200415714Y-69621128D01*
X200415714Y-69621128D02*
X200463333Y-69525890D01*
X116087976Y-55652200D02*
X116230833Y-55699819D01*
X116230833Y-55699819D02*
X116468928Y-55699819D01*
X116468928Y-55699819D02*
X116564166Y-55652200D01*
X116564166Y-55652200D02*
X116611785Y-55604580D01*
X116611785Y-55604580D02*
X116659404Y-55509342D01*
X116659404Y-55509342D02*
X116659404Y-55414104D01*
X116659404Y-55414104D02*
X116611785Y-55318866D01*
X116611785Y-55318866D02*
X116564166Y-55271247D01*
X116564166Y-55271247D02*
X116468928Y-55223628D01*
X116468928Y-55223628D02*
X116278452Y-55176009D01*
X116278452Y-55176009D02*
X116183214Y-55128390D01*
X116183214Y-55128390D02*
X116135595Y-55080771D01*
X116135595Y-55080771D02*
X116087976Y-54985533D01*
X116087976Y-54985533D02*
X116087976Y-54890295D01*
X116087976Y-54890295D02*
X116135595Y-54795057D01*
X116135595Y-54795057D02*
X116183214Y-54747438D01*
X116183214Y-54747438D02*
X116278452Y-54699819D01*
X116278452Y-54699819D02*
X116516547Y-54699819D01*
X116516547Y-54699819D02*
X116659404Y-54747438D01*
X116992738Y-54699819D02*
X117230833Y-55699819D01*
X117230833Y-55699819D02*
X117421309Y-54985533D01*
X117421309Y-54985533D02*
X117611785Y-55699819D01*
X117611785Y-55699819D02*
X117849881Y-54699819D01*
X118659404Y-55033152D02*
X118659404Y-55699819D01*
X118421309Y-54652200D02*
X118183214Y-55366485D01*
X118183214Y-55366485D02*
X118802261Y-55366485D01*
X119707023Y-55699819D02*
X119135595Y-55699819D01*
X119421309Y-55699819D02*
X119421309Y-54699819D01*
X119421309Y-54699819D02*
X119326071Y-54842676D01*
X119326071Y-54842676D02*
X119230833Y-54937914D01*
X119230833Y-54937914D02*
X119135595Y-54985533D01*
X39780476Y-77837200D02*
X39923333Y-77884819D01*
X39923333Y-77884819D02*
X40161428Y-77884819D01*
X40161428Y-77884819D02*
X40256666Y-77837200D01*
X40256666Y-77837200D02*
X40304285Y-77789580D01*
X40304285Y-77789580D02*
X40351904Y-77694342D01*
X40351904Y-77694342D02*
X40351904Y-77599104D01*
X40351904Y-77599104D02*
X40304285Y-77503866D01*
X40304285Y-77503866D02*
X40256666Y-77456247D01*
X40256666Y-77456247D02*
X40161428Y-77408628D01*
X40161428Y-77408628D02*
X39970952Y-77361009D01*
X39970952Y-77361009D02*
X39875714Y-77313390D01*
X39875714Y-77313390D02*
X39828095Y-77265771D01*
X39828095Y-77265771D02*
X39780476Y-77170533D01*
X39780476Y-77170533D02*
X39780476Y-77075295D01*
X39780476Y-77075295D02*
X39828095Y-76980057D01*
X39828095Y-76980057D02*
X39875714Y-76932438D01*
X39875714Y-76932438D02*
X39970952Y-76884819D01*
X39970952Y-76884819D02*
X40209047Y-76884819D01*
X40209047Y-76884819D02*
X40351904Y-76932438D01*
X40685238Y-76884819D02*
X40923333Y-77884819D01*
X40923333Y-77884819D02*
X41113809Y-77170533D01*
X41113809Y-77170533D02*
X41304285Y-77884819D01*
X41304285Y-77884819D02*
X41542381Y-76884819D01*
X41875714Y-76980057D02*
X41923333Y-76932438D01*
X41923333Y-76932438D02*
X42018571Y-76884819D01*
X42018571Y-76884819D02*
X42256666Y-76884819D01*
X42256666Y-76884819D02*
X42351904Y-76932438D01*
X42351904Y-76932438D02*
X42399523Y-76980057D01*
X42399523Y-76980057D02*
X42447142Y-77075295D01*
X42447142Y-77075295D02*
X42447142Y-77170533D01*
X42447142Y-77170533D02*
X42399523Y-77313390D01*
X42399523Y-77313390D02*
X41828095Y-77884819D01*
X41828095Y-77884819D02*
X42447142Y-77884819D01*
X43304285Y-76884819D02*
X43113809Y-76884819D01*
X43113809Y-76884819D02*
X43018571Y-76932438D01*
X43018571Y-76932438D02*
X42970952Y-76980057D01*
X42970952Y-76980057D02*
X42875714Y-77122914D01*
X42875714Y-77122914D02*
X42828095Y-77313390D01*
X42828095Y-77313390D02*
X42828095Y-77694342D01*
X42828095Y-77694342D02*
X42875714Y-77789580D01*
X42875714Y-77789580D02*
X42923333Y-77837200D01*
X42923333Y-77837200D02*
X43018571Y-77884819D01*
X43018571Y-77884819D02*
X43209047Y-77884819D01*
X43209047Y-77884819D02*
X43304285Y-77837200D01*
X43304285Y-77837200D02*
X43351904Y-77789580D01*
X43351904Y-77789580D02*
X43399523Y-77694342D01*
X43399523Y-77694342D02*
X43399523Y-77456247D01*
X43399523Y-77456247D02*
X43351904Y-77361009D01*
X43351904Y-77361009D02*
X43304285Y-77313390D01*
X43304285Y-77313390D02*
X43209047Y-77265771D01*
X43209047Y-77265771D02*
X43018571Y-77265771D01*
X43018571Y-77265771D02*
X42923333Y-77313390D01*
X42923333Y-77313390D02*
X42875714Y-77361009D01*
X42875714Y-77361009D02*
X42828095Y-77456247D01*
X96902976Y-89077200D02*
X97045833Y-89124819D01*
X97045833Y-89124819D02*
X97283928Y-89124819D01*
X97283928Y-89124819D02*
X97379166Y-89077200D01*
X97379166Y-89077200D02*
X97426785Y-89029580D01*
X97426785Y-89029580D02*
X97474404Y-88934342D01*
X97474404Y-88934342D02*
X97474404Y-88839104D01*
X97474404Y-88839104D02*
X97426785Y-88743866D01*
X97426785Y-88743866D02*
X97379166Y-88696247D01*
X97379166Y-88696247D02*
X97283928Y-88648628D01*
X97283928Y-88648628D02*
X97093452Y-88601009D01*
X97093452Y-88601009D02*
X96998214Y-88553390D01*
X96998214Y-88553390D02*
X96950595Y-88505771D01*
X96950595Y-88505771D02*
X96902976Y-88410533D01*
X96902976Y-88410533D02*
X96902976Y-88315295D01*
X96902976Y-88315295D02*
X96950595Y-88220057D01*
X96950595Y-88220057D02*
X96998214Y-88172438D01*
X96998214Y-88172438D02*
X97093452Y-88124819D01*
X97093452Y-88124819D02*
X97331547Y-88124819D01*
X97331547Y-88124819D02*
X97474404Y-88172438D01*
X97807738Y-88124819D02*
X98045833Y-89124819D01*
X98045833Y-89124819D02*
X98236309Y-88410533D01*
X98236309Y-88410533D02*
X98426785Y-89124819D01*
X98426785Y-89124819D02*
X98664881Y-88124819D01*
X98950595Y-88124819D02*
X99569642Y-88124819D01*
X99569642Y-88124819D02*
X99236309Y-88505771D01*
X99236309Y-88505771D02*
X99379166Y-88505771D01*
X99379166Y-88505771D02*
X99474404Y-88553390D01*
X99474404Y-88553390D02*
X99522023Y-88601009D01*
X99522023Y-88601009D02*
X99569642Y-88696247D01*
X99569642Y-88696247D02*
X99569642Y-88934342D01*
X99569642Y-88934342D02*
X99522023Y-89029580D01*
X99522023Y-89029580D02*
X99474404Y-89077200D01*
X99474404Y-89077200D02*
X99379166Y-89124819D01*
X99379166Y-89124819D02*
X99093452Y-89124819D01*
X99093452Y-89124819D02*
X98998214Y-89077200D01*
X98998214Y-89077200D02*
X98950595Y-89029580D01*
X100045833Y-89124819D02*
X100236309Y-89124819D01*
X100236309Y-89124819D02*
X100331547Y-89077200D01*
X100331547Y-89077200D02*
X100379166Y-89029580D01*
X100379166Y-89029580D02*
X100474404Y-88886723D01*
X100474404Y-88886723D02*
X100522023Y-88696247D01*
X100522023Y-88696247D02*
X100522023Y-88315295D01*
X100522023Y-88315295D02*
X100474404Y-88220057D01*
X100474404Y-88220057D02*
X100426785Y-88172438D01*
X100426785Y-88172438D02*
X100331547Y-88124819D01*
X100331547Y-88124819D02*
X100141071Y-88124819D01*
X100141071Y-88124819D02*
X100045833Y-88172438D01*
X100045833Y-88172438D02*
X99998214Y-88220057D01*
X99998214Y-88220057D02*
X99950595Y-88315295D01*
X99950595Y-88315295D02*
X99950595Y-88553390D01*
X99950595Y-88553390D02*
X99998214Y-88648628D01*
X99998214Y-88648628D02*
X100045833Y-88696247D01*
X100045833Y-88696247D02*
X100141071Y-88743866D01*
X100141071Y-88743866D02*
X100331547Y-88743866D01*
X100331547Y-88743866D02*
X100426785Y-88696247D01*
X100426785Y-88696247D02*
X100474404Y-88648628D01*
X100474404Y-88648628D02*
X100522023Y-88553390D01*
X134980476Y-115947200D02*
X135123333Y-115994819D01*
X135123333Y-115994819D02*
X135361428Y-115994819D01*
X135361428Y-115994819D02*
X135456666Y-115947200D01*
X135456666Y-115947200D02*
X135504285Y-115899580D01*
X135504285Y-115899580D02*
X135551904Y-115804342D01*
X135551904Y-115804342D02*
X135551904Y-115709104D01*
X135551904Y-115709104D02*
X135504285Y-115613866D01*
X135504285Y-115613866D02*
X135456666Y-115566247D01*
X135456666Y-115566247D02*
X135361428Y-115518628D01*
X135361428Y-115518628D02*
X135170952Y-115471009D01*
X135170952Y-115471009D02*
X135075714Y-115423390D01*
X135075714Y-115423390D02*
X135028095Y-115375771D01*
X135028095Y-115375771D02*
X134980476Y-115280533D01*
X134980476Y-115280533D02*
X134980476Y-115185295D01*
X134980476Y-115185295D02*
X135028095Y-115090057D01*
X135028095Y-115090057D02*
X135075714Y-115042438D01*
X135075714Y-115042438D02*
X135170952Y-114994819D01*
X135170952Y-114994819D02*
X135409047Y-114994819D01*
X135409047Y-114994819D02*
X135551904Y-115042438D01*
X135885238Y-114994819D02*
X136123333Y-115994819D01*
X136123333Y-115994819D02*
X136313809Y-115280533D01*
X136313809Y-115280533D02*
X136504285Y-115994819D01*
X136504285Y-115994819D02*
X136742381Y-114994819D01*
X137551904Y-115328152D02*
X137551904Y-115994819D01*
X137313809Y-114947200D02*
X137075714Y-115661485D01*
X137075714Y-115661485D02*
X137694761Y-115661485D01*
X138218571Y-115423390D02*
X138123333Y-115375771D01*
X138123333Y-115375771D02*
X138075714Y-115328152D01*
X138075714Y-115328152D02*
X138028095Y-115232914D01*
X138028095Y-115232914D02*
X138028095Y-115185295D01*
X138028095Y-115185295D02*
X138075714Y-115090057D01*
X138075714Y-115090057D02*
X138123333Y-115042438D01*
X138123333Y-115042438D02*
X138218571Y-114994819D01*
X138218571Y-114994819D02*
X138409047Y-114994819D01*
X138409047Y-114994819D02*
X138504285Y-115042438D01*
X138504285Y-115042438D02*
X138551904Y-115090057D01*
X138551904Y-115090057D02*
X138599523Y-115185295D01*
X138599523Y-115185295D02*
X138599523Y-115232914D01*
X138599523Y-115232914D02*
X138551904Y-115328152D01*
X138551904Y-115328152D02*
X138504285Y-115375771D01*
X138504285Y-115375771D02*
X138409047Y-115423390D01*
X138409047Y-115423390D02*
X138218571Y-115423390D01*
X138218571Y-115423390D02*
X138123333Y-115471009D01*
X138123333Y-115471009D02*
X138075714Y-115518628D01*
X138075714Y-115518628D02*
X138028095Y-115613866D01*
X138028095Y-115613866D02*
X138028095Y-115804342D01*
X138028095Y-115804342D02*
X138075714Y-115899580D01*
X138075714Y-115899580D02*
X138123333Y-115947200D01*
X138123333Y-115947200D02*
X138218571Y-115994819D01*
X138218571Y-115994819D02*
X138409047Y-115994819D01*
X138409047Y-115994819D02*
X138504285Y-115947200D01*
X138504285Y-115947200D02*
X138551904Y-115899580D01*
X138551904Y-115899580D02*
X138599523Y-115804342D01*
X138599523Y-115804342D02*
X138599523Y-115613866D01*
X138599523Y-115613866D02*
X138551904Y-115518628D01*
X138551904Y-115518628D02*
X138504285Y-115471009D01*
X138504285Y-115471009D02*
X138409047Y-115423390D01*
X254470476Y-97037200D02*
X254613333Y-97084819D01*
X254613333Y-97084819D02*
X254851428Y-97084819D01*
X254851428Y-97084819D02*
X254946666Y-97037200D01*
X254946666Y-97037200D02*
X254994285Y-96989580D01*
X254994285Y-96989580D02*
X255041904Y-96894342D01*
X255041904Y-96894342D02*
X255041904Y-96799104D01*
X255041904Y-96799104D02*
X254994285Y-96703866D01*
X254994285Y-96703866D02*
X254946666Y-96656247D01*
X254946666Y-96656247D02*
X254851428Y-96608628D01*
X254851428Y-96608628D02*
X254660952Y-96561009D01*
X254660952Y-96561009D02*
X254565714Y-96513390D01*
X254565714Y-96513390D02*
X254518095Y-96465771D01*
X254518095Y-96465771D02*
X254470476Y-96370533D01*
X254470476Y-96370533D02*
X254470476Y-96275295D01*
X254470476Y-96275295D02*
X254518095Y-96180057D01*
X254518095Y-96180057D02*
X254565714Y-96132438D01*
X254565714Y-96132438D02*
X254660952Y-96084819D01*
X254660952Y-96084819D02*
X254899047Y-96084819D01*
X254899047Y-96084819D02*
X255041904Y-96132438D01*
X255375238Y-96084819D02*
X255613333Y-97084819D01*
X255613333Y-97084819D02*
X255803809Y-96370533D01*
X255803809Y-96370533D02*
X255994285Y-97084819D01*
X255994285Y-97084819D02*
X256232381Y-96084819D01*
X257137142Y-97084819D02*
X256565714Y-97084819D01*
X256851428Y-97084819D02*
X256851428Y-96084819D01*
X256851428Y-96084819D02*
X256756190Y-96227676D01*
X256756190Y-96227676D02*
X256660952Y-96322914D01*
X256660952Y-96322914D02*
X256565714Y-96370533D01*
X257708571Y-96513390D02*
X257613333Y-96465771D01*
X257613333Y-96465771D02*
X257565714Y-96418152D01*
X257565714Y-96418152D02*
X257518095Y-96322914D01*
X257518095Y-96322914D02*
X257518095Y-96275295D01*
X257518095Y-96275295D02*
X257565714Y-96180057D01*
X257565714Y-96180057D02*
X257613333Y-96132438D01*
X257613333Y-96132438D02*
X257708571Y-96084819D01*
X257708571Y-96084819D02*
X257899047Y-96084819D01*
X257899047Y-96084819D02*
X257994285Y-96132438D01*
X257994285Y-96132438D02*
X258041904Y-96180057D01*
X258041904Y-96180057D02*
X258089523Y-96275295D01*
X258089523Y-96275295D02*
X258089523Y-96322914D01*
X258089523Y-96322914D02*
X258041904Y-96418152D01*
X258041904Y-96418152D02*
X257994285Y-96465771D01*
X257994285Y-96465771D02*
X257899047Y-96513390D01*
X257899047Y-96513390D02*
X257708571Y-96513390D01*
X257708571Y-96513390D02*
X257613333Y-96561009D01*
X257613333Y-96561009D02*
X257565714Y-96608628D01*
X257565714Y-96608628D02*
X257518095Y-96703866D01*
X257518095Y-96703866D02*
X257518095Y-96894342D01*
X257518095Y-96894342D02*
X257565714Y-96989580D01*
X257565714Y-96989580D02*
X257613333Y-97037200D01*
X257613333Y-97037200D02*
X257708571Y-97084819D01*
X257708571Y-97084819D02*
X257899047Y-97084819D01*
X257899047Y-97084819D02*
X257994285Y-97037200D01*
X257994285Y-97037200D02*
X258041904Y-96989580D01*
X258041904Y-96989580D02*
X258089523Y-96894342D01*
X258089523Y-96894342D02*
X258089523Y-96703866D01*
X258089523Y-96703866D02*
X258041904Y-96608628D01*
X258041904Y-96608628D02*
X257994285Y-96561009D01*
X257994285Y-96561009D02*
X257899047Y-96513390D01*
X254946667Y-58937200D02*
X255089524Y-58984819D01*
X255089524Y-58984819D02*
X255327619Y-58984819D01*
X255327619Y-58984819D02*
X255422857Y-58937200D01*
X255422857Y-58937200D02*
X255470476Y-58889580D01*
X255470476Y-58889580D02*
X255518095Y-58794342D01*
X255518095Y-58794342D02*
X255518095Y-58699104D01*
X255518095Y-58699104D02*
X255470476Y-58603866D01*
X255470476Y-58603866D02*
X255422857Y-58556247D01*
X255422857Y-58556247D02*
X255327619Y-58508628D01*
X255327619Y-58508628D02*
X255137143Y-58461009D01*
X255137143Y-58461009D02*
X255041905Y-58413390D01*
X255041905Y-58413390D02*
X254994286Y-58365771D01*
X254994286Y-58365771D02*
X254946667Y-58270533D01*
X254946667Y-58270533D02*
X254946667Y-58175295D01*
X254946667Y-58175295D02*
X254994286Y-58080057D01*
X254994286Y-58080057D02*
X255041905Y-58032438D01*
X255041905Y-58032438D02*
X255137143Y-57984819D01*
X255137143Y-57984819D02*
X255375238Y-57984819D01*
X255375238Y-57984819D02*
X255518095Y-58032438D01*
X255851429Y-57984819D02*
X256089524Y-58984819D01*
X256089524Y-58984819D02*
X256280000Y-58270533D01*
X256280000Y-58270533D02*
X256470476Y-58984819D01*
X256470476Y-58984819D02*
X256708572Y-57984819D01*
X257518095Y-57984819D02*
X257327619Y-57984819D01*
X257327619Y-57984819D02*
X257232381Y-58032438D01*
X257232381Y-58032438D02*
X257184762Y-58080057D01*
X257184762Y-58080057D02*
X257089524Y-58222914D01*
X257089524Y-58222914D02*
X257041905Y-58413390D01*
X257041905Y-58413390D02*
X257041905Y-58794342D01*
X257041905Y-58794342D02*
X257089524Y-58889580D01*
X257089524Y-58889580D02*
X257137143Y-58937200D01*
X257137143Y-58937200D02*
X257232381Y-58984819D01*
X257232381Y-58984819D02*
X257422857Y-58984819D01*
X257422857Y-58984819D02*
X257518095Y-58937200D01*
X257518095Y-58937200D02*
X257565714Y-58889580D01*
X257565714Y-58889580D02*
X257613333Y-58794342D01*
X257613333Y-58794342D02*
X257613333Y-58556247D01*
X257613333Y-58556247D02*
X257565714Y-58461009D01*
X257565714Y-58461009D02*
X257518095Y-58413390D01*
X257518095Y-58413390D02*
X257422857Y-58365771D01*
X257422857Y-58365771D02*
X257232381Y-58365771D01*
X257232381Y-58365771D02*
X257137143Y-58413390D01*
X257137143Y-58413390D02*
X257089524Y-58461009D01*
X257089524Y-58461009D02*
X257041905Y-58556247D01*
D11*
X12339940Y-110807229D02*
X12339940Y-111321276D01*
X12339940Y-111321276D02*
X12370178Y-111381752D01*
X12370178Y-111381752D02*
X12400416Y-111411991D01*
X12400416Y-111411991D02*
X12460892Y-111442229D01*
X12460892Y-111442229D02*
X12581845Y-111442229D01*
X12581845Y-111442229D02*
X12642321Y-111411991D01*
X12642321Y-111411991D02*
X12672559Y-111381752D01*
X12672559Y-111381752D02*
X12702797Y-111321276D01*
X12702797Y-111321276D02*
X12702797Y-110807229D01*
X12974940Y-110867705D02*
X13005178Y-110837467D01*
X13005178Y-110837467D02*
X13065654Y-110807229D01*
X13065654Y-110807229D02*
X13216845Y-110807229D01*
X13216845Y-110807229D02*
X13277321Y-110837467D01*
X13277321Y-110837467D02*
X13307559Y-110867705D01*
X13307559Y-110867705D02*
X13337797Y-110928181D01*
X13337797Y-110928181D02*
X13337797Y-110988657D01*
X13337797Y-110988657D02*
X13307559Y-111079371D01*
X13307559Y-111079371D02*
X12944702Y-111442229D01*
X12944702Y-111442229D02*
X13337797Y-111442229D01*
D10*
X159696667Y-77987200D02*
X159839524Y-78034819D01*
X159839524Y-78034819D02*
X160077619Y-78034819D01*
X160077619Y-78034819D02*
X160172857Y-77987200D01*
X160172857Y-77987200D02*
X160220476Y-77939580D01*
X160220476Y-77939580D02*
X160268095Y-77844342D01*
X160268095Y-77844342D02*
X160268095Y-77749104D01*
X160268095Y-77749104D02*
X160220476Y-77653866D01*
X160220476Y-77653866D02*
X160172857Y-77606247D01*
X160172857Y-77606247D02*
X160077619Y-77558628D01*
X160077619Y-77558628D02*
X159887143Y-77511009D01*
X159887143Y-77511009D02*
X159791905Y-77463390D01*
X159791905Y-77463390D02*
X159744286Y-77415771D01*
X159744286Y-77415771D02*
X159696667Y-77320533D01*
X159696667Y-77320533D02*
X159696667Y-77225295D01*
X159696667Y-77225295D02*
X159744286Y-77130057D01*
X159744286Y-77130057D02*
X159791905Y-77082438D01*
X159791905Y-77082438D02*
X159887143Y-77034819D01*
X159887143Y-77034819D02*
X160125238Y-77034819D01*
X160125238Y-77034819D02*
X160268095Y-77082438D01*
X160601429Y-77034819D02*
X160839524Y-78034819D01*
X160839524Y-78034819D02*
X161030000Y-77320533D01*
X161030000Y-77320533D02*
X161220476Y-78034819D01*
X161220476Y-78034819D02*
X161458572Y-77034819D01*
X161744286Y-77034819D02*
X162410952Y-77034819D01*
X162410952Y-77034819D02*
X161982381Y-78034819D01*
X197320476Y-89099700D02*
X197463333Y-89147319D01*
X197463333Y-89147319D02*
X197701428Y-89147319D01*
X197701428Y-89147319D02*
X197796666Y-89099700D01*
X197796666Y-89099700D02*
X197844285Y-89052080D01*
X197844285Y-89052080D02*
X197891904Y-88956842D01*
X197891904Y-88956842D02*
X197891904Y-88861604D01*
X197891904Y-88861604D02*
X197844285Y-88766366D01*
X197844285Y-88766366D02*
X197796666Y-88718747D01*
X197796666Y-88718747D02*
X197701428Y-88671128D01*
X197701428Y-88671128D02*
X197510952Y-88623509D01*
X197510952Y-88623509D02*
X197415714Y-88575890D01*
X197415714Y-88575890D02*
X197368095Y-88528271D01*
X197368095Y-88528271D02*
X197320476Y-88433033D01*
X197320476Y-88433033D02*
X197320476Y-88337795D01*
X197320476Y-88337795D02*
X197368095Y-88242557D01*
X197368095Y-88242557D02*
X197415714Y-88194938D01*
X197415714Y-88194938D02*
X197510952Y-88147319D01*
X197510952Y-88147319D02*
X197749047Y-88147319D01*
X197749047Y-88147319D02*
X197891904Y-88194938D01*
X198225238Y-88147319D02*
X198463333Y-89147319D01*
X198463333Y-89147319D02*
X198653809Y-88433033D01*
X198653809Y-88433033D02*
X198844285Y-89147319D01*
X198844285Y-89147319D02*
X199082381Y-88147319D01*
X199987142Y-89147319D02*
X199415714Y-89147319D01*
X199701428Y-89147319D02*
X199701428Y-88147319D01*
X199701428Y-88147319D02*
X199606190Y-88290176D01*
X199606190Y-88290176D02*
X199510952Y-88385414D01*
X199510952Y-88385414D02*
X199415714Y-88433033D01*
X200891904Y-88147319D02*
X200415714Y-88147319D01*
X200415714Y-88147319D02*
X200368095Y-88623509D01*
X200368095Y-88623509D02*
X200415714Y-88575890D01*
X200415714Y-88575890D02*
X200510952Y-88528271D01*
X200510952Y-88528271D02*
X200749047Y-88528271D01*
X200749047Y-88528271D02*
X200844285Y-88575890D01*
X200844285Y-88575890D02*
X200891904Y-88623509D01*
X200891904Y-88623509D02*
X200939523Y-88718747D01*
X200939523Y-88718747D02*
X200939523Y-88956842D01*
X200939523Y-88956842D02*
X200891904Y-89052080D01*
X200891904Y-89052080D02*
X200844285Y-89099700D01*
X200844285Y-89099700D02*
X200749047Y-89147319D01*
X200749047Y-89147319D02*
X200510952Y-89147319D01*
X200510952Y-89147319D02*
X200415714Y-89099700D01*
X200415714Y-89099700D02*
X200368095Y-89052080D01*
X159696667Y-58937200D02*
X159839524Y-58984819D01*
X159839524Y-58984819D02*
X160077619Y-58984819D01*
X160077619Y-58984819D02*
X160172857Y-58937200D01*
X160172857Y-58937200D02*
X160220476Y-58889580D01*
X160220476Y-58889580D02*
X160268095Y-58794342D01*
X160268095Y-58794342D02*
X160268095Y-58699104D01*
X160268095Y-58699104D02*
X160220476Y-58603866D01*
X160220476Y-58603866D02*
X160172857Y-58556247D01*
X160172857Y-58556247D02*
X160077619Y-58508628D01*
X160077619Y-58508628D02*
X159887143Y-58461009D01*
X159887143Y-58461009D02*
X159791905Y-58413390D01*
X159791905Y-58413390D02*
X159744286Y-58365771D01*
X159744286Y-58365771D02*
X159696667Y-58270533D01*
X159696667Y-58270533D02*
X159696667Y-58175295D01*
X159696667Y-58175295D02*
X159744286Y-58080057D01*
X159744286Y-58080057D02*
X159791905Y-58032438D01*
X159791905Y-58032438D02*
X159887143Y-57984819D01*
X159887143Y-57984819D02*
X160125238Y-57984819D01*
X160125238Y-57984819D02*
X160268095Y-58032438D01*
X160601429Y-57984819D02*
X160839524Y-58984819D01*
X160839524Y-58984819D02*
X161030000Y-58270533D01*
X161030000Y-58270533D02*
X161220476Y-58984819D01*
X161220476Y-58984819D02*
X161458572Y-57984819D01*
X162363333Y-58984819D02*
X161791905Y-58984819D01*
X162077619Y-58984819D02*
X162077619Y-57984819D01*
X162077619Y-57984819D02*
X161982381Y-58127676D01*
X161982381Y-58127676D02*
X161887143Y-58222914D01*
X161887143Y-58222914D02*
X161791905Y-58270533D01*
X235896667Y-54174700D02*
X236039524Y-54222319D01*
X236039524Y-54222319D02*
X236277619Y-54222319D01*
X236277619Y-54222319D02*
X236372857Y-54174700D01*
X236372857Y-54174700D02*
X236420476Y-54127080D01*
X236420476Y-54127080D02*
X236468095Y-54031842D01*
X236468095Y-54031842D02*
X236468095Y-53936604D01*
X236468095Y-53936604D02*
X236420476Y-53841366D01*
X236420476Y-53841366D02*
X236372857Y-53793747D01*
X236372857Y-53793747D02*
X236277619Y-53746128D01*
X236277619Y-53746128D02*
X236087143Y-53698509D01*
X236087143Y-53698509D02*
X235991905Y-53650890D01*
X235991905Y-53650890D02*
X235944286Y-53603271D01*
X235944286Y-53603271D02*
X235896667Y-53508033D01*
X235896667Y-53508033D02*
X235896667Y-53412795D01*
X235896667Y-53412795D02*
X235944286Y-53317557D01*
X235944286Y-53317557D02*
X235991905Y-53269938D01*
X235991905Y-53269938D02*
X236087143Y-53222319D01*
X236087143Y-53222319D02*
X236325238Y-53222319D01*
X236325238Y-53222319D02*
X236468095Y-53269938D01*
X236801429Y-53222319D02*
X237039524Y-54222319D01*
X237039524Y-54222319D02*
X237230000Y-53508033D01*
X237230000Y-53508033D02*
X237420476Y-54222319D01*
X237420476Y-54222319D02*
X237658572Y-53222319D01*
X238515714Y-53222319D02*
X238039524Y-53222319D01*
X238039524Y-53222319D02*
X237991905Y-53698509D01*
X237991905Y-53698509D02*
X238039524Y-53650890D01*
X238039524Y-53650890D02*
X238134762Y-53603271D01*
X238134762Y-53603271D02*
X238372857Y-53603271D01*
X238372857Y-53603271D02*
X238468095Y-53650890D01*
X238468095Y-53650890D02*
X238515714Y-53698509D01*
X238515714Y-53698509D02*
X238563333Y-53793747D01*
X238563333Y-53793747D02*
X238563333Y-54031842D01*
X238563333Y-54031842D02*
X238515714Y-54127080D01*
X238515714Y-54127080D02*
X238468095Y-54174700D01*
X238468095Y-54174700D02*
X238372857Y-54222319D01*
X238372857Y-54222319D02*
X238134762Y-54222319D01*
X238134762Y-54222319D02*
X238039524Y-54174700D01*
X238039524Y-54174700D02*
X237991905Y-54127080D01*
X39850476Y-96997200D02*
X39993333Y-97044819D01*
X39993333Y-97044819D02*
X40231428Y-97044819D01*
X40231428Y-97044819D02*
X40326666Y-96997200D01*
X40326666Y-96997200D02*
X40374285Y-96949580D01*
X40374285Y-96949580D02*
X40421904Y-96854342D01*
X40421904Y-96854342D02*
X40421904Y-96759104D01*
X40421904Y-96759104D02*
X40374285Y-96663866D01*
X40374285Y-96663866D02*
X40326666Y-96616247D01*
X40326666Y-96616247D02*
X40231428Y-96568628D01*
X40231428Y-96568628D02*
X40040952Y-96521009D01*
X40040952Y-96521009D02*
X39945714Y-96473390D01*
X39945714Y-96473390D02*
X39898095Y-96425771D01*
X39898095Y-96425771D02*
X39850476Y-96330533D01*
X39850476Y-96330533D02*
X39850476Y-96235295D01*
X39850476Y-96235295D02*
X39898095Y-96140057D01*
X39898095Y-96140057D02*
X39945714Y-96092438D01*
X39945714Y-96092438D02*
X40040952Y-96044819D01*
X40040952Y-96044819D02*
X40279047Y-96044819D01*
X40279047Y-96044819D02*
X40421904Y-96092438D01*
X40755238Y-96044819D02*
X40993333Y-97044819D01*
X40993333Y-97044819D02*
X41183809Y-96330533D01*
X41183809Y-96330533D02*
X41374285Y-97044819D01*
X41374285Y-97044819D02*
X41612381Y-96044819D01*
X41945714Y-96140057D02*
X41993333Y-96092438D01*
X41993333Y-96092438D02*
X42088571Y-96044819D01*
X42088571Y-96044819D02*
X42326666Y-96044819D01*
X42326666Y-96044819D02*
X42421904Y-96092438D01*
X42421904Y-96092438D02*
X42469523Y-96140057D01*
X42469523Y-96140057D02*
X42517142Y-96235295D01*
X42517142Y-96235295D02*
X42517142Y-96330533D01*
X42517142Y-96330533D02*
X42469523Y-96473390D01*
X42469523Y-96473390D02*
X41898095Y-97044819D01*
X41898095Y-97044819D02*
X42517142Y-97044819D01*
X42850476Y-96044819D02*
X43517142Y-96044819D01*
X43517142Y-96044819D02*
X43088571Y-97044819D01*
X178746667Y-74812200D02*
X178889524Y-74859819D01*
X178889524Y-74859819D02*
X179127619Y-74859819D01*
X179127619Y-74859819D02*
X179222857Y-74812200D01*
X179222857Y-74812200D02*
X179270476Y-74764580D01*
X179270476Y-74764580D02*
X179318095Y-74669342D01*
X179318095Y-74669342D02*
X179318095Y-74574104D01*
X179318095Y-74574104D02*
X179270476Y-74478866D01*
X179270476Y-74478866D02*
X179222857Y-74431247D01*
X179222857Y-74431247D02*
X179127619Y-74383628D01*
X179127619Y-74383628D02*
X178937143Y-74336009D01*
X178937143Y-74336009D02*
X178841905Y-74288390D01*
X178841905Y-74288390D02*
X178794286Y-74240771D01*
X178794286Y-74240771D02*
X178746667Y-74145533D01*
X178746667Y-74145533D02*
X178746667Y-74050295D01*
X178746667Y-74050295D02*
X178794286Y-73955057D01*
X178794286Y-73955057D02*
X178841905Y-73907438D01*
X178841905Y-73907438D02*
X178937143Y-73859819D01*
X178937143Y-73859819D02*
X179175238Y-73859819D01*
X179175238Y-73859819D02*
X179318095Y-73907438D01*
X179651429Y-73859819D02*
X179889524Y-74859819D01*
X179889524Y-74859819D02*
X180080000Y-74145533D01*
X180080000Y-74145533D02*
X180270476Y-74859819D01*
X180270476Y-74859819D02*
X180508572Y-73859819D01*
X181032381Y-74288390D02*
X180937143Y-74240771D01*
X180937143Y-74240771D02*
X180889524Y-74193152D01*
X180889524Y-74193152D02*
X180841905Y-74097914D01*
X180841905Y-74097914D02*
X180841905Y-74050295D01*
X180841905Y-74050295D02*
X180889524Y-73955057D01*
X180889524Y-73955057D02*
X180937143Y-73907438D01*
X180937143Y-73907438D02*
X181032381Y-73859819D01*
X181032381Y-73859819D02*
X181222857Y-73859819D01*
X181222857Y-73859819D02*
X181318095Y-73907438D01*
X181318095Y-73907438D02*
X181365714Y-73955057D01*
X181365714Y-73955057D02*
X181413333Y-74050295D01*
X181413333Y-74050295D02*
X181413333Y-74097914D01*
X181413333Y-74097914D02*
X181365714Y-74193152D01*
X181365714Y-74193152D02*
X181318095Y-74240771D01*
X181318095Y-74240771D02*
X181222857Y-74288390D01*
X181222857Y-74288390D02*
X181032381Y-74288390D01*
X181032381Y-74288390D02*
X180937143Y-74336009D01*
X180937143Y-74336009D02*
X180889524Y-74383628D01*
X180889524Y-74383628D02*
X180841905Y-74478866D01*
X180841905Y-74478866D02*
X180841905Y-74669342D01*
X180841905Y-74669342D02*
X180889524Y-74764580D01*
X180889524Y-74764580D02*
X180937143Y-74812200D01*
X180937143Y-74812200D02*
X181032381Y-74859819D01*
X181032381Y-74859819D02*
X181222857Y-74859819D01*
X181222857Y-74859819D02*
X181318095Y-74812200D01*
X181318095Y-74812200D02*
X181365714Y-74764580D01*
X181365714Y-74764580D02*
X181413333Y-74669342D01*
X181413333Y-74669342D02*
X181413333Y-74478866D01*
X181413333Y-74478866D02*
X181365714Y-74383628D01*
X181365714Y-74383628D02*
X181318095Y-74336009D01*
X181318095Y-74336009D02*
X181222857Y-74288390D01*
X58832976Y-92367200D02*
X58975833Y-92414819D01*
X58975833Y-92414819D02*
X59213928Y-92414819D01*
X59213928Y-92414819D02*
X59309166Y-92367200D01*
X59309166Y-92367200D02*
X59356785Y-92319580D01*
X59356785Y-92319580D02*
X59404404Y-92224342D01*
X59404404Y-92224342D02*
X59404404Y-92129104D01*
X59404404Y-92129104D02*
X59356785Y-92033866D01*
X59356785Y-92033866D02*
X59309166Y-91986247D01*
X59309166Y-91986247D02*
X59213928Y-91938628D01*
X59213928Y-91938628D02*
X59023452Y-91891009D01*
X59023452Y-91891009D02*
X58928214Y-91843390D01*
X58928214Y-91843390D02*
X58880595Y-91795771D01*
X58880595Y-91795771D02*
X58832976Y-91700533D01*
X58832976Y-91700533D02*
X58832976Y-91605295D01*
X58832976Y-91605295D02*
X58880595Y-91510057D01*
X58880595Y-91510057D02*
X58928214Y-91462438D01*
X58928214Y-91462438D02*
X59023452Y-91414819D01*
X59023452Y-91414819D02*
X59261547Y-91414819D01*
X59261547Y-91414819D02*
X59404404Y-91462438D01*
X59737738Y-91414819D02*
X59975833Y-92414819D01*
X59975833Y-92414819D02*
X60166309Y-91700533D01*
X60166309Y-91700533D02*
X60356785Y-92414819D01*
X60356785Y-92414819D02*
X60594881Y-91414819D01*
X60880595Y-91414819D02*
X61499642Y-91414819D01*
X61499642Y-91414819D02*
X61166309Y-91795771D01*
X61166309Y-91795771D02*
X61309166Y-91795771D01*
X61309166Y-91795771D02*
X61404404Y-91843390D01*
X61404404Y-91843390D02*
X61452023Y-91891009D01*
X61452023Y-91891009D02*
X61499642Y-91986247D01*
X61499642Y-91986247D02*
X61499642Y-92224342D01*
X61499642Y-92224342D02*
X61452023Y-92319580D01*
X61452023Y-92319580D02*
X61404404Y-92367200D01*
X61404404Y-92367200D02*
X61309166Y-92414819D01*
X61309166Y-92414819D02*
X61023452Y-92414819D01*
X61023452Y-92414819D02*
X60928214Y-92367200D01*
X60928214Y-92367200D02*
X60880595Y-92319580D01*
X62452023Y-92414819D02*
X61880595Y-92414819D01*
X62166309Y-92414819D02*
X62166309Y-91414819D01*
X62166309Y-91414819D02*
X62071071Y-91557676D01*
X62071071Y-91557676D02*
X61975833Y-91652914D01*
X61975833Y-91652914D02*
X61880595Y-91700533D01*
X197320476Y-108149700D02*
X197463333Y-108197319D01*
X197463333Y-108197319D02*
X197701428Y-108197319D01*
X197701428Y-108197319D02*
X197796666Y-108149700D01*
X197796666Y-108149700D02*
X197844285Y-108102080D01*
X197844285Y-108102080D02*
X197891904Y-108006842D01*
X197891904Y-108006842D02*
X197891904Y-107911604D01*
X197891904Y-107911604D02*
X197844285Y-107816366D01*
X197844285Y-107816366D02*
X197796666Y-107768747D01*
X197796666Y-107768747D02*
X197701428Y-107721128D01*
X197701428Y-107721128D02*
X197510952Y-107673509D01*
X197510952Y-107673509D02*
X197415714Y-107625890D01*
X197415714Y-107625890D02*
X197368095Y-107578271D01*
X197368095Y-107578271D02*
X197320476Y-107483033D01*
X197320476Y-107483033D02*
X197320476Y-107387795D01*
X197320476Y-107387795D02*
X197368095Y-107292557D01*
X197368095Y-107292557D02*
X197415714Y-107244938D01*
X197415714Y-107244938D02*
X197510952Y-107197319D01*
X197510952Y-107197319D02*
X197749047Y-107197319D01*
X197749047Y-107197319D02*
X197891904Y-107244938D01*
X198225238Y-107197319D02*
X198463333Y-108197319D01*
X198463333Y-108197319D02*
X198653809Y-107483033D01*
X198653809Y-107483033D02*
X198844285Y-108197319D01*
X198844285Y-108197319D02*
X199082381Y-107197319D01*
X199415714Y-107292557D02*
X199463333Y-107244938D01*
X199463333Y-107244938D02*
X199558571Y-107197319D01*
X199558571Y-107197319D02*
X199796666Y-107197319D01*
X199796666Y-107197319D02*
X199891904Y-107244938D01*
X199891904Y-107244938D02*
X199939523Y-107292557D01*
X199939523Y-107292557D02*
X199987142Y-107387795D01*
X199987142Y-107387795D02*
X199987142Y-107483033D01*
X199987142Y-107483033D02*
X199939523Y-107625890D01*
X199939523Y-107625890D02*
X199368095Y-108197319D01*
X199368095Y-108197319D02*
X199987142Y-108197319D01*
X200939523Y-108197319D02*
X200368095Y-108197319D01*
X200653809Y-108197319D02*
X200653809Y-107197319D01*
X200653809Y-107197319D02*
X200558571Y-107340176D01*
X200558571Y-107340176D02*
X200463333Y-107435414D01*
X200463333Y-107435414D02*
X200368095Y-107483033D01*
X97010476Y-108157200D02*
X97153333Y-108204819D01*
X97153333Y-108204819D02*
X97391428Y-108204819D01*
X97391428Y-108204819D02*
X97486666Y-108157200D01*
X97486666Y-108157200D02*
X97534285Y-108109580D01*
X97534285Y-108109580D02*
X97581904Y-108014342D01*
X97581904Y-108014342D02*
X97581904Y-107919104D01*
X97581904Y-107919104D02*
X97534285Y-107823866D01*
X97534285Y-107823866D02*
X97486666Y-107776247D01*
X97486666Y-107776247D02*
X97391428Y-107728628D01*
X97391428Y-107728628D02*
X97200952Y-107681009D01*
X97200952Y-107681009D02*
X97105714Y-107633390D01*
X97105714Y-107633390D02*
X97058095Y-107585771D01*
X97058095Y-107585771D02*
X97010476Y-107490533D01*
X97010476Y-107490533D02*
X97010476Y-107395295D01*
X97010476Y-107395295D02*
X97058095Y-107300057D01*
X97058095Y-107300057D02*
X97105714Y-107252438D01*
X97105714Y-107252438D02*
X97200952Y-107204819D01*
X97200952Y-107204819D02*
X97439047Y-107204819D01*
X97439047Y-107204819D02*
X97581904Y-107252438D01*
X97915238Y-107204819D02*
X98153333Y-108204819D01*
X98153333Y-108204819D02*
X98343809Y-107490533D01*
X98343809Y-107490533D02*
X98534285Y-108204819D01*
X98534285Y-108204819D02*
X98772381Y-107204819D01*
X99581904Y-107538152D02*
X99581904Y-108204819D01*
X99343809Y-107157200D02*
X99105714Y-107871485D01*
X99105714Y-107871485D02*
X99724761Y-107871485D01*
X100296190Y-107204819D02*
X100391428Y-107204819D01*
X100391428Y-107204819D02*
X100486666Y-107252438D01*
X100486666Y-107252438D02*
X100534285Y-107300057D01*
X100534285Y-107300057D02*
X100581904Y-107395295D01*
X100581904Y-107395295D02*
X100629523Y-107585771D01*
X100629523Y-107585771D02*
X100629523Y-107823866D01*
X100629523Y-107823866D02*
X100581904Y-108014342D01*
X100581904Y-108014342D02*
X100534285Y-108109580D01*
X100534285Y-108109580D02*
X100486666Y-108157200D01*
X100486666Y-108157200D02*
X100391428Y-108204819D01*
X100391428Y-108204819D02*
X100296190Y-108204819D01*
X100296190Y-108204819D02*
X100200952Y-108157200D01*
X100200952Y-108157200D02*
X100153333Y-108109580D01*
X100153333Y-108109580D02*
X100105714Y-108014342D01*
X100105714Y-108014342D02*
X100058095Y-107823866D01*
X100058095Y-107823866D02*
X100058095Y-107585771D01*
X100058095Y-107585771D02*
X100105714Y-107395295D01*
X100105714Y-107395295D02*
X100153333Y-107300057D01*
X100153333Y-107300057D02*
X100200952Y-107252438D01*
X100200952Y-107252438D02*
X100296190Y-107204819D01*
X216370476Y-86718450D02*
X216513333Y-86766069D01*
X216513333Y-86766069D02*
X216751428Y-86766069D01*
X216751428Y-86766069D02*
X216846666Y-86718450D01*
X216846666Y-86718450D02*
X216894285Y-86670830D01*
X216894285Y-86670830D02*
X216941904Y-86575592D01*
X216941904Y-86575592D02*
X216941904Y-86480354D01*
X216941904Y-86480354D02*
X216894285Y-86385116D01*
X216894285Y-86385116D02*
X216846666Y-86337497D01*
X216846666Y-86337497D02*
X216751428Y-86289878D01*
X216751428Y-86289878D02*
X216560952Y-86242259D01*
X216560952Y-86242259D02*
X216465714Y-86194640D01*
X216465714Y-86194640D02*
X216418095Y-86147021D01*
X216418095Y-86147021D02*
X216370476Y-86051783D01*
X216370476Y-86051783D02*
X216370476Y-85956545D01*
X216370476Y-85956545D02*
X216418095Y-85861307D01*
X216418095Y-85861307D02*
X216465714Y-85813688D01*
X216465714Y-85813688D02*
X216560952Y-85766069D01*
X216560952Y-85766069D02*
X216799047Y-85766069D01*
X216799047Y-85766069D02*
X216941904Y-85813688D01*
X217275238Y-85766069D02*
X217513333Y-86766069D01*
X217513333Y-86766069D02*
X217703809Y-86051783D01*
X217703809Y-86051783D02*
X217894285Y-86766069D01*
X217894285Y-86766069D02*
X218132381Y-85766069D01*
X219037142Y-86766069D02*
X218465714Y-86766069D01*
X218751428Y-86766069D02*
X218751428Y-85766069D01*
X218751428Y-85766069D02*
X218656190Y-85908926D01*
X218656190Y-85908926D02*
X218560952Y-86004164D01*
X218560952Y-86004164D02*
X218465714Y-86051783D01*
X219894285Y-85766069D02*
X219703809Y-85766069D01*
X219703809Y-85766069D02*
X219608571Y-85813688D01*
X219608571Y-85813688D02*
X219560952Y-85861307D01*
X219560952Y-85861307D02*
X219465714Y-86004164D01*
X219465714Y-86004164D02*
X219418095Y-86194640D01*
X219418095Y-86194640D02*
X219418095Y-86575592D01*
X219418095Y-86575592D02*
X219465714Y-86670830D01*
X219465714Y-86670830D02*
X219513333Y-86718450D01*
X219513333Y-86718450D02*
X219608571Y-86766069D01*
X219608571Y-86766069D02*
X219799047Y-86766069D01*
X219799047Y-86766069D02*
X219894285Y-86718450D01*
X219894285Y-86718450D02*
X219941904Y-86670830D01*
X219941904Y-86670830D02*
X219989523Y-86575592D01*
X219989523Y-86575592D02*
X219989523Y-86337497D01*
X219989523Y-86337497D02*
X219941904Y-86242259D01*
X219941904Y-86242259D02*
X219894285Y-86194640D01*
X219894285Y-86194640D02*
X219799047Y-86147021D01*
X219799047Y-86147021D02*
X219608571Y-86147021D01*
X219608571Y-86147021D02*
X219513333Y-86194640D01*
X219513333Y-86194640D02*
X219465714Y-86242259D01*
X219465714Y-86242259D02*
X219418095Y-86337497D01*
X97072976Y-50889700D02*
X97215833Y-50937319D01*
X97215833Y-50937319D02*
X97453928Y-50937319D01*
X97453928Y-50937319D02*
X97549166Y-50889700D01*
X97549166Y-50889700D02*
X97596785Y-50842080D01*
X97596785Y-50842080D02*
X97644404Y-50746842D01*
X97644404Y-50746842D02*
X97644404Y-50651604D01*
X97644404Y-50651604D02*
X97596785Y-50556366D01*
X97596785Y-50556366D02*
X97549166Y-50508747D01*
X97549166Y-50508747D02*
X97453928Y-50461128D01*
X97453928Y-50461128D02*
X97263452Y-50413509D01*
X97263452Y-50413509D02*
X97168214Y-50365890D01*
X97168214Y-50365890D02*
X97120595Y-50318271D01*
X97120595Y-50318271D02*
X97072976Y-50223033D01*
X97072976Y-50223033D02*
X97072976Y-50127795D01*
X97072976Y-50127795D02*
X97120595Y-50032557D01*
X97120595Y-50032557D02*
X97168214Y-49984938D01*
X97168214Y-49984938D02*
X97263452Y-49937319D01*
X97263452Y-49937319D02*
X97501547Y-49937319D01*
X97501547Y-49937319D02*
X97644404Y-49984938D01*
X97977738Y-49937319D02*
X98215833Y-50937319D01*
X98215833Y-50937319D02*
X98406309Y-50223033D01*
X98406309Y-50223033D02*
X98596785Y-50937319D01*
X98596785Y-50937319D02*
X98834881Y-49937319D01*
X99120595Y-49937319D02*
X99739642Y-49937319D01*
X99739642Y-49937319D02*
X99406309Y-50318271D01*
X99406309Y-50318271D02*
X99549166Y-50318271D01*
X99549166Y-50318271D02*
X99644404Y-50365890D01*
X99644404Y-50365890D02*
X99692023Y-50413509D01*
X99692023Y-50413509D02*
X99739642Y-50508747D01*
X99739642Y-50508747D02*
X99739642Y-50746842D01*
X99739642Y-50746842D02*
X99692023Y-50842080D01*
X99692023Y-50842080D02*
X99644404Y-50889700D01*
X99644404Y-50889700D02*
X99549166Y-50937319D01*
X99549166Y-50937319D02*
X99263452Y-50937319D01*
X99263452Y-50937319D02*
X99168214Y-50889700D01*
X99168214Y-50889700D02*
X99120595Y-50842080D01*
X100072976Y-49937319D02*
X100739642Y-49937319D01*
X100739642Y-49937319D02*
X100311071Y-50937319D01*
X178270476Y-93862200D02*
X178413333Y-93909819D01*
X178413333Y-93909819D02*
X178651428Y-93909819D01*
X178651428Y-93909819D02*
X178746666Y-93862200D01*
X178746666Y-93862200D02*
X178794285Y-93814580D01*
X178794285Y-93814580D02*
X178841904Y-93719342D01*
X178841904Y-93719342D02*
X178841904Y-93624104D01*
X178841904Y-93624104D02*
X178794285Y-93528866D01*
X178794285Y-93528866D02*
X178746666Y-93481247D01*
X178746666Y-93481247D02*
X178651428Y-93433628D01*
X178651428Y-93433628D02*
X178460952Y-93386009D01*
X178460952Y-93386009D02*
X178365714Y-93338390D01*
X178365714Y-93338390D02*
X178318095Y-93290771D01*
X178318095Y-93290771D02*
X178270476Y-93195533D01*
X178270476Y-93195533D02*
X178270476Y-93100295D01*
X178270476Y-93100295D02*
X178318095Y-93005057D01*
X178318095Y-93005057D02*
X178365714Y-92957438D01*
X178365714Y-92957438D02*
X178460952Y-92909819D01*
X178460952Y-92909819D02*
X178699047Y-92909819D01*
X178699047Y-92909819D02*
X178841904Y-92957438D01*
X179175238Y-92909819D02*
X179413333Y-93909819D01*
X179413333Y-93909819D02*
X179603809Y-93195533D01*
X179603809Y-93195533D02*
X179794285Y-93909819D01*
X179794285Y-93909819D02*
X180032381Y-92909819D01*
X180937142Y-93909819D02*
X180365714Y-93909819D01*
X180651428Y-93909819D02*
X180651428Y-92909819D01*
X180651428Y-92909819D02*
X180556190Y-93052676D01*
X180556190Y-93052676D02*
X180460952Y-93147914D01*
X180460952Y-93147914D02*
X180365714Y-93195533D01*
X181794285Y-93243152D02*
X181794285Y-93909819D01*
X181556190Y-92862200D02*
X181318095Y-93576485D01*
X181318095Y-93576485D02*
X181937142Y-93576485D01*
X58942976Y-54062200D02*
X59085833Y-54109819D01*
X59085833Y-54109819D02*
X59323928Y-54109819D01*
X59323928Y-54109819D02*
X59419166Y-54062200D01*
X59419166Y-54062200D02*
X59466785Y-54014580D01*
X59466785Y-54014580D02*
X59514404Y-53919342D01*
X59514404Y-53919342D02*
X59514404Y-53824104D01*
X59514404Y-53824104D02*
X59466785Y-53728866D01*
X59466785Y-53728866D02*
X59419166Y-53681247D01*
X59419166Y-53681247D02*
X59323928Y-53633628D01*
X59323928Y-53633628D02*
X59133452Y-53586009D01*
X59133452Y-53586009D02*
X59038214Y-53538390D01*
X59038214Y-53538390D02*
X58990595Y-53490771D01*
X58990595Y-53490771D02*
X58942976Y-53395533D01*
X58942976Y-53395533D02*
X58942976Y-53300295D01*
X58942976Y-53300295D02*
X58990595Y-53205057D01*
X58990595Y-53205057D02*
X59038214Y-53157438D01*
X59038214Y-53157438D02*
X59133452Y-53109819D01*
X59133452Y-53109819D02*
X59371547Y-53109819D01*
X59371547Y-53109819D02*
X59514404Y-53157438D01*
X59847738Y-53109819D02*
X60085833Y-54109819D01*
X60085833Y-54109819D02*
X60276309Y-53395533D01*
X60276309Y-53395533D02*
X60466785Y-54109819D01*
X60466785Y-54109819D02*
X60704881Y-53109819D01*
X61038214Y-53205057D02*
X61085833Y-53157438D01*
X61085833Y-53157438D02*
X61181071Y-53109819D01*
X61181071Y-53109819D02*
X61419166Y-53109819D01*
X61419166Y-53109819D02*
X61514404Y-53157438D01*
X61514404Y-53157438D02*
X61562023Y-53205057D01*
X61562023Y-53205057D02*
X61609642Y-53300295D01*
X61609642Y-53300295D02*
X61609642Y-53395533D01*
X61609642Y-53395533D02*
X61562023Y-53538390D01*
X61562023Y-53538390D02*
X60990595Y-54109819D01*
X60990595Y-54109819D02*
X61609642Y-54109819D01*
X62085833Y-54109819D02*
X62276309Y-54109819D01*
X62276309Y-54109819D02*
X62371547Y-54062200D01*
X62371547Y-54062200D02*
X62419166Y-54014580D01*
X62419166Y-54014580D02*
X62514404Y-53871723D01*
X62514404Y-53871723D02*
X62562023Y-53681247D01*
X62562023Y-53681247D02*
X62562023Y-53300295D01*
X62562023Y-53300295D02*
X62514404Y-53205057D01*
X62514404Y-53205057D02*
X62466785Y-53157438D01*
X62466785Y-53157438D02*
X62371547Y-53109819D01*
X62371547Y-53109819D02*
X62181071Y-53109819D01*
X62181071Y-53109819D02*
X62085833Y-53157438D01*
X62085833Y-53157438D02*
X62038214Y-53205057D01*
X62038214Y-53205057D02*
X61990595Y-53300295D01*
X61990595Y-53300295D02*
X61990595Y-53538390D01*
X61990595Y-53538390D02*
X62038214Y-53633628D01*
X62038214Y-53633628D02*
X62085833Y-53681247D01*
X62085833Y-53681247D02*
X62181071Y-53728866D01*
X62181071Y-53728866D02*
X62371547Y-53728866D01*
X62371547Y-53728866D02*
X62466785Y-53681247D01*
X62466785Y-53681247D02*
X62514404Y-53633628D01*
X62514404Y-53633628D02*
X62562023Y-53538390D01*
X216370476Y-67668450D02*
X216513333Y-67716069D01*
X216513333Y-67716069D02*
X216751428Y-67716069D01*
X216751428Y-67716069D02*
X216846666Y-67668450D01*
X216846666Y-67668450D02*
X216894285Y-67620830D01*
X216894285Y-67620830D02*
X216941904Y-67525592D01*
X216941904Y-67525592D02*
X216941904Y-67430354D01*
X216941904Y-67430354D02*
X216894285Y-67335116D01*
X216894285Y-67335116D02*
X216846666Y-67287497D01*
X216846666Y-67287497D02*
X216751428Y-67239878D01*
X216751428Y-67239878D02*
X216560952Y-67192259D01*
X216560952Y-67192259D02*
X216465714Y-67144640D01*
X216465714Y-67144640D02*
X216418095Y-67097021D01*
X216418095Y-67097021D02*
X216370476Y-67001783D01*
X216370476Y-67001783D02*
X216370476Y-66906545D01*
X216370476Y-66906545D02*
X216418095Y-66811307D01*
X216418095Y-66811307D02*
X216465714Y-66763688D01*
X216465714Y-66763688D02*
X216560952Y-66716069D01*
X216560952Y-66716069D02*
X216799047Y-66716069D01*
X216799047Y-66716069D02*
X216941904Y-66763688D01*
X217275238Y-66716069D02*
X217513333Y-67716069D01*
X217513333Y-67716069D02*
X217703809Y-67001783D01*
X217703809Y-67001783D02*
X217894285Y-67716069D01*
X217894285Y-67716069D02*
X218132381Y-66716069D01*
X219037142Y-67716069D02*
X218465714Y-67716069D01*
X218751428Y-67716069D02*
X218751428Y-66716069D01*
X218751428Y-66716069D02*
X218656190Y-66858926D01*
X218656190Y-66858926D02*
X218560952Y-66954164D01*
X218560952Y-66954164D02*
X218465714Y-67001783D01*
X219656190Y-66716069D02*
X219751428Y-66716069D01*
X219751428Y-66716069D02*
X219846666Y-66763688D01*
X219846666Y-66763688D02*
X219894285Y-66811307D01*
X219894285Y-66811307D02*
X219941904Y-66906545D01*
X219941904Y-66906545D02*
X219989523Y-67097021D01*
X219989523Y-67097021D02*
X219989523Y-67335116D01*
X219989523Y-67335116D02*
X219941904Y-67525592D01*
X219941904Y-67525592D02*
X219894285Y-67620830D01*
X219894285Y-67620830D02*
X219846666Y-67668450D01*
X219846666Y-67668450D02*
X219751428Y-67716069D01*
X219751428Y-67716069D02*
X219656190Y-67716069D01*
X219656190Y-67716069D02*
X219560952Y-67668450D01*
X219560952Y-67668450D02*
X219513333Y-67620830D01*
X219513333Y-67620830D02*
X219465714Y-67525592D01*
X219465714Y-67525592D02*
X219418095Y-67335116D01*
X219418095Y-67335116D02*
X219418095Y-67097021D01*
X219418095Y-67097021D02*
X219465714Y-66906545D01*
X219465714Y-66906545D02*
X219513333Y-66811307D01*
X219513333Y-66811307D02*
X219560952Y-66763688D01*
X219560952Y-66763688D02*
X219656190Y-66716069D01*
X58932976Y-111357200D02*
X59075833Y-111404819D01*
X59075833Y-111404819D02*
X59313928Y-111404819D01*
X59313928Y-111404819D02*
X59409166Y-111357200D01*
X59409166Y-111357200D02*
X59456785Y-111309580D01*
X59456785Y-111309580D02*
X59504404Y-111214342D01*
X59504404Y-111214342D02*
X59504404Y-111119104D01*
X59504404Y-111119104D02*
X59456785Y-111023866D01*
X59456785Y-111023866D02*
X59409166Y-110976247D01*
X59409166Y-110976247D02*
X59313928Y-110928628D01*
X59313928Y-110928628D02*
X59123452Y-110881009D01*
X59123452Y-110881009D02*
X59028214Y-110833390D01*
X59028214Y-110833390D02*
X58980595Y-110785771D01*
X58980595Y-110785771D02*
X58932976Y-110690533D01*
X58932976Y-110690533D02*
X58932976Y-110595295D01*
X58932976Y-110595295D02*
X58980595Y-110500057D01*
X58980595Y-110500057D02*
X59028214Y-110452438D01*
X59028214Y-110452438D02*
X59123452Y-110404819D01*
X59123452Y-110404819D02*
X59361547Y-110404819D01*
X59361547Y-110404819D02*
X59504404Y-110452438D01*
X59837738Y-110404819D02*
X60075833Y-111404819D01*
X60075833Y-111404819D02*
X60266309Y-110690533D01*
X60266309Y-110690533D02*
X60456785Y-111404819D01*
X60456785Y-111404819D02*
X60694881Y-110404819D01*
X60980595Y-110404819D02*
X61599642Y-110404819D01*
X61599642Y-110404819D02*
X61266309Y-110785771D01*
X61266309Y-110785771D02*
X61409166Y-110785771D01*
X61409166Y-110785771D02*
X61504404Y-110833390D01*
X61504404Y-110833390D02*
X61552023Y-110881009D01*
X61552023Y-110881009D02*
X61599642Y-110976247D01*
X61599642Y-110976247D02*
X61599642Y-111214342D01*
X61599642Y-111214342D02*
X61552023Y-111309580D01*
X61552023Y-111309580D02*
X61504404Y-111357200D01*
X61504404Y-111357200D02*
X61409166Y-111404819D01*
X61409166Y-111404819D02*
X61123452Y-111404819D01*
X61123452Y-111404819D02*
X61028214Y-111357200D01*
X61028214Y-111357200D02*
X60980595Y-111309580D01*
X61980595Y-110500057D02*
X62028214Y-110452438D01*
X62028214Y-110452438D02*
X62123452Y-110404819D01*
X62123452Y-110404819D02*
X62361547Y-110404819D01*
X62361547Y-110404819D02*
X62456785Y-110452438D01*
X62456785Y-110452438D02*
X62504404Y-110500057D01*
X62504404Y-110500057D02*
X62552023Y-110595295D01*
X62552023Y-110595295D02*
X62552023Y-110690533D01*
X62552023Y-110690533D02*
X62504404Y-110833390D01*
X62504404Y-110833390D02*
X61932976Y-111404819D01*
X61932976Y-111404819D02*
X62552023Y-111404819D01*
X197796667Y-50999700D02*
X197939524Y-51047319D01*
X197939524Y-51047319D02*
X198177619Y-51047319D01*
X198177619Y-51047319D02*
X198272857Y-50999700D01*
X198272857Y-50999700D02*
X198320476Y-50952080D01*
X198320476Y-50952080D02*
X198368095Y-50856842D01*
X198368095Y-50856842D02*
X198368095Y-50761604D01*
X198368095Y-50761604D02*
X198320476Y-50666366D01*
X198320476Y-50666366D02*
X198272857Y-50618747D01*
X198272857Y-50618747D02*
X198177619Y-50571128D01*
X198177619Y-50571128D02*
X197987143Y-50523509D01*
X197987143Y-50523509D02*
X197891905Y-50475890D01*
X197891905Y-50475890D02*
X197844286Y-50428271D01*
X197844286Y-50428271D02*
X197796667Y-50333033D01*
X197796667Y-50333033D02*
X197796667Y-50237795D01*
X197796667Y-50237795D02*
X197844286Y-50142557D01*
X197844286Y-50142557D02*
X197891905Y-50094938D01*
X197891905Y-50094938D02*
X197987143Y-50047319D01*
X197987143Y-50047319D02*
X198225238Y-50047319D01*
X198225238Y-50047319D02*
X198368095Y-50094938D01*
X198701429Y-50047319D02*
X198939524Y-51047319D01*
X198939524Y-51047319D02*
X199130000Y-50333033D01*
X199130000Y-50333033D02*
X199320476Y-51047319D01*
X199320476Y-51047319D02*
X199558572Y-50047319D01*
X199844286Y-50047319D02*
X200463333Y-50047319D01*
X200463333Y-50047319D02*
X200130000Y-50428271D01*
X200130000Y-50428271D02*
X200272857Y-50428271D01*
X200272857Y-50428271D02*
X200368095Y-50475890D01*
X200368095Y-50475890D02*
X200415714Y-50523509D01*
X200415714Y-50523509D02*
X200463333Y-50618747D01*
X200463333Y-50618747D02*
X200463333Y-50856842D01*
X200463333Y-50856842D02*
X200415714Y-50952080D01*
X200415714Y-50952080D02*
X200368095Y-50999700D01*
X200368095Y-50999700D02*
X200272857Y-51047319D01*
X200272857Y-51047319D02*
X199987143Y-51047319D01*
X199987143Y-51047319D02*
X199891905Y-50999700D01*
X199891905Y-50999700D02*
X199844286Y-50952080D01*
X77895476Y-67518450D02*
X78038333Y-67566069D01*
X78038333Y-67566069D02*
X78276428Y-67566069D01*
X78276428Y-67566069D02*
X78371666Y-67518450D01*
X78371666Y-67518450D02*
X78419285Y-67470830D01*
X78419285Y-67470830D02*
X78466904Y-67375592D01*
X78466904Y-67375592D02*
X78466904Y-67280354D01*
X78466904Y-67280354D02*
X78419285Y-67185116D01*
X78419285Y-67185116D02*
X78371666Y-67137497D01*
X78371666Y-67137497D02*
X78276428Y-67089878D01*
X78276428Y-67089878D02*
X78085952Y-67042259D01*
X78085952Y-67042259D02*
X77990714Y-66994640D01*
X77990714Y-66994640D02*
X77943095Y-66947021D01*
X77943095Y-66947021D02*
X77895476Y-66851783D01*
X77895476Y-66851783D02*
X77895476Y-66756545D01*
X77895476Y-66756545D02*
X77943095Y-66661307D01*
X77943095Y-66661307D02*
X77990714Y-66613688D01*
X77990714Y-66613688D02*
X78085952Y-66566069D01*
X78085952Y-66566069D02*
X78324047Y-66566069D01*
X78324047Y-66566069D02*
X78466904Y-66613688D01*
X78800238Y-66566069D02*
X79038333Y-67566069D01*
X79038333Y-67566069D02*
X79228809Y-66851783D01*
X79228809Y-66851783D02*
X79419285Y-67566069D01*
X79419285Y-67566069D02*
X79657381Y-66566069D01*
X79943095Y-66566069D02*
X80562142Y-66566069D01*
X80562142Y-66566069D02*
X80228809Y-66947021D01*
X80228809Y-66947021D02*
X80371666Y-66947021D01*
X80371666Y-66947021D02*
X80466904Y-66994640D01*
X80466904Y-66994640D02*
X80514523Y-67042259D01*
X80514523Y-67042259D02*
X80562142Y-67137497D01*
X80562142Y-67137497D02*
X80562142Y-67375592D01*
X80562142Y-67375592D02*
X80514523Y-67470830D01*
X80514523Y-67470830D02*
X80466904Y-67518450D01*
X80466904Y-67518450D02*
X80371666Y-67566069D01*
X80371666Y-67566069D02*
X80085952Y-67566069D01*
X80085952Y-67566069D02*
X79990714Y-67518450D01*
X79990714Y-67518450D02*
X79943095Y-67470830D01*
X81419285Y-66899402D02*
X81419285Y-67566069D01*
X81181190Y-66518450D02*
X80943095Y-67232735D01*
X80943095Y-67232735D02*
X81562142Y-67232735D01*
X39892976Y-58827200D02*
X40035833Y-58874819D01*
X40035833Y-58874819D02*
X40273928Y-58874819D01*
X40273928Y-58874819D02*
X40369166Y-58827200D01*
X40369166Y-58827200D02*
X40416785Y-58779580D01*
X40416785Y-58779580D02*
X40464404Y-58684342D01*
X40464404Y-58684342D02*
X40464404Y-58589104D01*
X40464404Y-58589104D02*
X40416785Y-58493866D01*
X40416785Y-58493866D02*
X40369166Y-58446247D01*
X40369166Y-58446247D02*
X40273928Y-58398628D01*
X40273928Y-58398628D02*
X40083452Y-58351009D01*
X40083452Y-58351009D02*
X39988214Y-58303390D01*
X39988214Y-58303390D02*
X39940595Y-58255771D01*
X39940595Y-58255771D02*
X39892976Y-58160533D01*
X39892976Y-58160533D02*
X39892976Y-58065295D01*
X39892976Y-58065295D02*
X39940595Y-57970057D01*
X39940595Y-57970057D02*
X39988214Y-57922438D01*
X39988214Y-57922438D02*
X40083452Y-57874819D01*
X40083452Y-57874819D02*
X40321547Y-57874819D01*
X40321547Y-57874819D02*
X40464404Y-57922438D01*
X40797738Y-57874819D02*
X41035833Y-58874819D01*
X41035833Y-58874819D02*
X41226309Y-58160533D01*
X41226309Y-58160533D02*
X41416785Y-58874819D01*
X41416785Y-58874819D02*
X41654881Y-57874819D01*
X41988214Y-57970057D02*
X42035833Y-57922438D01*
X42035833Y-57922438D02*
X42131071Y-57874819D01*
X42131071Y-57874819D02*
X42369166Y-57874819D01*
X42369166Y-57874819D02*
X42464404Y-57922438D01*
X42464404Y-57922438D02*
X42512023Y-57970057D01*
X42512023Y-57970057D02*
X42559642Y-58065295D01*
X42559642Y-58065295D02*
X42559642Y-58160533D01*
X42559642Y-58160533D02*
X42512023Y-58303390D01*
X42512023Y-58303390D02*
X41940595Y-58874819D01*
X41940595Y-58874819D02*
X42559642Y-58874819D01*
X43464404Y-57874819D02*
X42988214Y-57874819D01*
X42988214Y-57874819D02*
X42940595Y-58351009D01*
X42940595Y-58351009D02*
X42988214Y-58303390D01*
X42988214Y-58303390D02*
X43083452Y-58255771D01*
X43083452Y-58255771D02*
X43321547Y-58255771D01*
X43321547Y-58255771D02*
X43416785Y-58303390D01*
X43416785Y-58303390D02*
X43464404Y-58351009D01*
X43464404Y-58351009D02*
X43512023Y-58446247D01*
X43512023Y-58446247D02*
X43512023Y-58684342D01*
X43512023Y-58684342D02*
X43464404Y-58779580D01*
X43464404Y-58779580D02*
X43416785Y-58827200D01*
X43416785Y-58827200D02*
X43321547Y-58874819D01*
X43321547Y-58874819D02*
X43083452Y-58874819D01*
X43083452Y-58874819D02*
X42988214Y-58827200D01*
X42988214Y-58827200D02*
X42940595Y-58779580D01*
X159220476Y-116087200D02*
X159363333Y-116134819D01*
X159363333Y-116134819D02*
X159601428Y-116134819D01*
X159601428Y-116134819D02*
X159696666Y-116087200D01*
X159696666Y-116087200D02*
X159744285Y-116039580D01*
X159744285Y-116039580D02*
X159791904Y-115944342D01*
X159791904Y-115944342D02*
X159791904Y-115849104D01*
X159791904Y-115849104D02*
X159744285Y-115753866D01*
X159744285Y-115753866D02*
X159696666Y-115706247D01*
X159696666Y-115706247D02*
X159601428Y-115658628D01*
X159601428Y-115658628D02*
X159410952Y-115611009D01*
X159410952Y-115611009D02*
X159315714Y-115563390D01*
X159315714Y-115563390D02*
X159268095Y-115515771D01*
X159268095Y-115515771D02*
X159220476Y-115420533D01*
X159220476Y-115420533D02*
X159220476Y-115325295D01*
X159220476Y-115325295D02*
X159268095Y-115230057D01*
X159268095Y-115230057D02*
X159315714Y-115182438D01*
X159315714Y-115182438D02*
X159410952Y-115134819D01*
X159410952Y-115134819D02*
X159649047Y-115134819D01*
X159649047Y-115134819D02*
X159791904Y-115182438D01*
X160125238Y-115134819D02*
X160363333Y-116134819D01*
X160363333Y-116134819D02*
X160553809Y-115420533D01*
X160553809Y-115420533D02*
X160744285Y-116134819D01*
X160744285Y-116134819D02*
X160982381Y-115134819D01*
X161887142Y-116134819D02*
X161315714Y-116134819D01*
X161601428Y-116134819D02*
X161601428Y-115134819D01*
X161601428Y-115134819D02*
X161506190Y-115277676D01*
X161506190Y-115277676D02*
X161410952Y-115372914D01*
X161410952Y-115372914D02*
X161315714Y-115420533D01*
X162363333Y-116134819D02*
X162553809Y-116134819D01*
X162553809Y-116134819D02*
X162649047Y-116087200D01*
X162649047Y-116087200D02*
X162696666Y-116039580D01*
X162696666Y-116039580D02*
X162791904Y-115896723D01*
X162791904Y-115896723D02*
X162839523Y-115706247D01*
X162839523Y-115706247D02*
X162839523Y-115325295D01*
X162839523Y-115325295D02*
X162791904Y-115230057D01*
X162791904Y-115230057D02*
X162744285Y-115182438D01*
X162744285Y-115182438D02*
X162649047Y-115134819D01*
X162649047Y-115134819D02*
X162458571Y-115134819D01*
X162458571Y-115134819D02*
X162363333Y-115182438D01*
X162363333Y-115182438D02*
X162315714Y-115230057D01*
X162315714Y-115230057D02*
X162268095Y-115325295D01*
X162268095Y-115325295D02*
X162268095Y-115563390D01*
X162268095Y-115563390D02*
X162315714Y-115658628D01*
X162315714Y-115658628D02*
X162363333Y-115706247D01*
X162363333Y-115706247D02*
X162458571Y-115753866D01*
X162458571Y-115753866D02*
X162649047Y-115753866D01*
X162649047Y-115753866D02*
X162744285Y-115706247D01*
X162744285Y-115706247D02*
X162791904Y-115658628D01*
X162791904Y-115658628D02*
X162839523Y-115563390D01*
%TO.C,SW17*%
D12*
X230130000Y-92777500D02*
X230130000Y-106977500D01*
X230130000Y-106977500D02*
X244330000Y-106977500D01*
X244330000Y-92777500D02*
X230130000Y-92777500D01*
X244330000Y-106977500D02*
X244330000Y-92777500D01*
%TO.C,SW30*%
X53540000Y-73565000D02*
X53540000Y-87765000D01*
X53540000Y-87765000D02*
X67740000Y-87765000D01*
X67740000Y-73565000D02*
X53540000Y-73565000D01*
X67740000Y-87765000D02*
X67740000Y-73565000D01*
%TO.C,SW38*%
X91670000Y-70392500D02*
X91670000Y-84592500D01*
X91670000Y-84592500D02*
X105870000Y-84592500D01*
X105870000Y-70392500D02*
X91670000Y-70392500D01*
X105870000Y-84592500D02*
X105870000Y-70392500D01*
%TO.C,SW12*%
X249180000Y-78480000D02*
X249180000Y-92680000D01*
X249180000Y-92680000D02*
X263380000Y-92680000D01*
X263380000Y-78480000D02*
X249180000Y-78480000D01*
X263380000Y-92680000D02*
X263380000Y-78480000D01*
%TO.C,SW33*%
X72722500Y-48993750D02*
X72722500Y-63193750D01*
X72722500Y-63193750D02*
X86922500Y-63193750D01*
X86922500Y-48993750D02*
X72722500Y-48993750D01*
X86922500Y-63193750D02*
X86922500Y-48993750D01*
%TO.C,SW23*%
X230130000Y-111817500D02*
X230130000Y-126017500D01*
X230130000Y-126017500D02*
X244330000Y-126017500D01*
X244330000Y-111817500D02*
X230130000Y-111817500D01*
X244330000Y-126017500D02*
X244330000Y-111817500D01*
%TO.C,U1*%
D13*
X267613750Y-131719000D02*
X267613750Y-114574000D01*
X269518750Y-133624000D02*
X283488750Y-133624000D01*
X272008750Y-112669000D02*
X272012478Y-111658728D01*
X272512478Y-111159000D02*
X280507750Y-111159000D01*
X281007750Y-111659000D02*
X281007750Y-112669000D01*
D14*
X283488750Y-112669000D02*
X269518750Y-112669000D01*
D13*
X283488750Y-112669000D02*
X269518750Y-112669000D01*
X285393750Y-131719000D02*
X285393750Y-114574000D01*
X267613750Y-114574000D02*
G75*
G02*
X269518750Y-112669000I1905001J-1D01*
G01*
X269518750Y-133624000D02*
G75*
G02*
X267613750Y-131719000I1J1905001D01*
G01*
X272012478Y-111658728D02*
G75*
G02*
X272512478Y-111159001I500018J-291D01*
G01*
X280507750Y-111159000D02*
G75*
G02*
X281007750Y-111659000I-100J-500100D01*
G01*
X283488750Y-112669000D02*
G75*
G02*
X285393750Y-114574000I0J-1905000D01*
G01*
X285393750Y-131719000D02*
G75*
G02*
X283488750Y-133624000I-1905000J0D01*
G01*
D15*
X267905750Y-112810000D02*
G75*
G02*
X267401750Y-112810000I-252000J0D01*
G01*
X267401750Y-112810000D02*
G75*
G02*
X267905750Y-112810000I252000J0D01*
G01*
X269048750Y-113690000D02*
G75*
G02*
X268544750Y-113690000I-252000J0D01*
G01*
X268544750Y-113690000D02*
G75*
G02*
X269048750Y-113690000I252000J0D01*
G01*
%TO.C,SW46*%
D12*
X129735000Y-78330000D02*
X129735000Y-92530000D01*
X129735000Y-92530000D02*
X143935000Y-92530000D01*
X143935000Y-78330000D02*
X129735000Y-78330000D01*
X143935000Y-92530000D02*
X143935000Y-78330000D01*
%TO.C,SW28*%
X34500000Y-116460000D02*
X34500000Y-130660000D01*
X34500000Y-130660000D02*
X48700000Y-130660000D01*
X48700000Y-116460000D02*
X34500000Y-116460000D01*
X48700000Y-130660000D02*
X48700000Y-116460000D01*
%TO.C,SW45*%
X129847500Y-59320000D02*
X129847500Y-73520000D01*
X129847500Y-73520000D02*
X144047500Y-73520000D01*
X144047500Y-59320000D02*
X129847500Y-59320000D01*
X144047500Y-73520000D02*
X144047500Y-59320000D01*
%TO.C,SW13*%
X153930000Y-97530000D02*
X153930000Y-111730000D01*
X153930000Y-111730000D02*
X168130000Y-111730000D01*
X168130000Y-97530000D02*
X153930000Y-97530000D01*
X168130000Y-111730000D02*
X168130000Y-97530000D01*
%TO.C,SW24*%
X249180000Y-116580000D02*
X249180000Y-130780000D01*
X249180000Y-130780000D02*
X263380000Y-130780000D01*
X263380000Y-116580000D02*
X249180000Y-116580000D01*
X263380000Y-130780000D02*
X263380000Y-116580000D01*
%TO.C,SW44*%
X110760000Y-113380000D02*
X110760000Y-127580000D01*
X110760000Y-127580000D02*
X124960000Y-127580000D01*
X124960000Y-113380000D02*
X110760000Y-113380000D01*
X124960000Y-127580000D02*
X124960000Y-113380000D01*
%TO.C,SW35*%
X72632500Y-87230000D02*
X72632500Y-101430000D01*
X72632500Y-101430000D02*
X86832500Y-101430000D01*
X86832500Y-87230000D02*
X72632500Y-87230000D01*
X86832500Y-101430000D02*
X86832500Y-87230000D01*
%TO.C,SW2*%
X172980000Y-56255000D02*
X172980000Y-70455000D01*
X172980000Y-70455000D02*
X187180000Y-70455000D01*
X187180000Y-56255000D02*
X172980000Y-56255000D01*
X187180000Y-70455000D02*
X187180000Y-56255000D01*
%TO.C,SW42*%
X110685000Y-75155000D02*
X110685000Y-89355000D01*
X110685000Y-89355000D02*
X124885000Y-89355000D01*
X124885000Y-75155000D02*
X110685000Y-75155000D01*
X124885000Y-89355000D02*
X124885000Y-75155000D01*
%TO.C,SW20*%
X172980000Y-113405000D02*
X172980000Y-127605000D01*
X172980000Y-127605000D02*
X187180000Y-127605000D01*
X187180000Y-113405000D02*
X172980000Y-113405000D01*
X187180000Y-127605000D02*
X187180000Y-113405000D01*
%TO.C,SW22*%
X211080000Y-106261250D02*
X211080000Y-120461250D01*
X211080000Y-120461250D02*
X225280000Y-120461250D01*
X225280000Y-106261250D02*
X211080000Y-106261250D01*
X225280000Y-120461250D02*
X225280000Y-106261250D01*
%TO.C,SW43*%
X110732500Y-94270000D02*
X110732500Y-108470000D01*
X110732500Y-108470000D02*
X124932500Y-108470000D01*
X124932500Y-94270000D02*
X110732500Y-94270000D01*
X124932500Y-108470000D02*
X124932500Y-94270000D01*
%TO.C,SW11*%
X230130000Y-73717500D02*
X230130000Y-87917500D01*
X230130000Y-87917500D02*
X244330000Y-87917500D01*
X244330000Y-73717500D02*
X230130000Y-73717500D01*
X244330000Y-87917500D02*
X244330000Y-73717500D01*
%TO.C,SW4*%
X211080000Y-49111250D02*
X211080000Y-63311250D01*
X211080000Y-63311250D02*
X225280000Y-63311250D01*
X225280000Y-49111250D02*
X211080000Y-49111250D01*
X225280000Y-63311250D02*
X225280000Y-49111250D01*
%TO.C,SW47*%
X129790000Y-97510000D02*
X129790000Y-111710000D01*
X129790000Y-111710000D02*
X143990000Y-111710000D01*
X143990000Y-97510000D02*
X129790000Y-97510000D01*
X143990000Y-111710000D02*
X143990000Y-97510000D01*
%TO.C,SW36*%
X72500000Y-106250000D02*
X72500000Y-120450000D01*
X72500000Y-120450000D02*
X86700000Y-120450000D01*
X86700000Y-106250000D02*
X72500000Y-106250000D01*
X86700000Y-120450000D02*
X86700000Y-106250000D01*
%TO.C,SW9*%
X192030000Y-70542500D02*
X192030000Y-84742500D01*
X192030000Y-84742500D02*
X206230000Y-84742500D01*
X206230000Y-70542500D02*
X192030000Y-70542500D01*
X206230000Y-84742500D02*
X206230000Y-70542500D01*
%TO.C,SW41*%
X110797500Y-56145000D02*
X110797500Y-70345000D01*
X110797500Y-70345000D02*
X124997500Y-70345000D01*
X124997500Y-56145000D02*
X110797500Y-56145000D01*
X124997500Y-70345000D02*
X124997500Y-56145000D01*
%TO.C,SW26*%
X34490000Y-78330000D02*
X34490000Y-92530000D01*
X34490000Y-92530000D02*
X48690000Y-92530000D01*
X48690000Y-78330000D02*
X34490000Y-78330000D01*
X48690000Y-92530000D02*
X48690000Y-78330000D01*
%TO.C,SW39*%
X91612500Y-89570000D02*
X91612500Y-103770000D01*
X91612500Y-103770000D02*
X105812500Y-103770000D01*
X105812500Y-89570000D02*
X91612500Y-89570000D01*
X105812500Y-103770000D02*
X105812500Y-89570000D01*
%TO.C,SW48*%
X129690000Y-116440000D02*
X129690000Y-130640000D01*
X129690000Y-130640000D02*
X143890000Y-130640000D01*
X143890000Y-116440000D02*
X129690000Y-116440000D01*
X143890000Y-130640000D02*
X143890000Y-116440000D01*
%TO.C,SW18*%
X249180000Y-97530000D02*
X249180000Y-111730000D01*
X249180000Y-111730000D02*
X263380000Y-111730000D01*
X263380000Y-97530000D02*
X249180000Y-97530000D01*
X263380000Y-111730000D02*
X263380000Y-97530000D01*
%TO.C,SW6*%
X249180000Y-59430000D02*
X249180000Y-73630000D01*
X249180000Y-73630000D02*
X263380000Y-73630000D01*
X263380000Y-59430000D02*
X249180000Y-59430000D01*
X263380000Y-73630000D02*
X263380000Y-59430000D01*
%TO.C,U2*%
D13*
X11933750Y-131662750D02*
X11933750Y-114517750D01*
X13838750Y-133567750D02*
X27808750Y-133567750D01*
X16328750Y-112612750D02*
X16332478Y-111602478D01*
X16832478Y-111102750D02*
X24827750Y-111102750D01*
X25327750Y-111602750D02*
X25327750Y-112612750D01*
D14*
X27808750Y-112612750D02*
X13838750Y-112612750D01*
D13*
X27808750Y-112612750D02*
X13838750Y-112612750D01*
X29713750Y-131662750D02*
X29713750Y-114517750D01*
X11933750Y-114517750D02*
G75*
G02*
X13838750Y-112612750I1905001J-1D01*
G01*
X13838750Y-133567750D02*
G75*
G02*
X11933750Y-131662750I1J1905001D01*
G01*
X16332478Y-111602478D02*
G75*
G02*
X16832478Y-111102751I500018J-291D01*
G01*
X24827750Y-111102750D02*
G75*
G02*
X25327750Y-111602750I-100J-500100D01*
G01*
X27808750Y-112612750D02*
G75*
G02*
X29713750Y-114517750I0J-1905000D01*
G01*
X29713750Y-131662750D02*
G75*
G02*
X27808750Y-133567750I-1905000J0D01*
G01*
D15*
X12225750Y-112753750D02*
G75*
G02*
X11721750Y-112753750I-252000J0D01*
G01*
X11721750Y-112753750D02*
G75*
G02*
X12225750Y-112753750I252000J0D01*
G01*
X13368750Y-113633750D02*
G75*
G02*
X12864750Y-113633750I-252000J0D01*
G01*
X12864750Y-113633750D02*
G75*
G02*
X13368750Y-113633750I252000J0D01*
G01*
%TO.C,SW7*%
D12*
X153930000Y-78480000D02*
X153930000Y-92680000D01*
X153930000Y-92680000D02*
X168130000Y-92680000D01*
X168130000Y-78480000D02*
X153930000Y-78480000D01*
X168130000Y-92680000D02*
X168130000Y-78480000D01*
%TO.C,SW15*%
X192030000Y-89592500D02*
X192030000Y-103792500D01*
X192030000Y-103792500D02*
X206230000Y-103792500D01*
X206230000Y-89592500D02*
X192030000Y-89592500D01*
X206230000Y-103792500D02*
X206230000Y-89592500D01*
%TO.C,SW1*%
X153930000Y-59430000D02*
X153930000Y-73630000D01*
X153930000Y-73630000D02*
X168130000Y-73630000D01*
X168130000Y-59430000D02*
X153930000Y-59430000D01*
X168130000Y-73630000D02*
X168130000Y-59430000D01*
%TO.C,SW5*%
X230130000Y-54667500D02*
X230130000Y-68867500D01*
X230130000Y-68867500D02*
X244330000Y-68867500D01*
X244330000Y-54667500D02*
X230130000Y-54667500D01*
X244330000Y-68867500D02*
X244330000Y-54667500D01*
%TO.C,SW27*%
X34560000Y-97490000D02*
X34560000Y-111690000D01*
X34560000Y-111690000D02*
X48760000Y-111690000D01*
X48760000Y-97490000D02*
X34560000Y-97490000D01*
X48760000Y-111690000D02*
X48760000Y-97490000D01*
%TO.C,SW8*%
X172980000Y-75305000D02*
X172980000Y-89505000D01*
X172980000Y-89505000D02*
X187180000Y-89505000D01*
X187180000Y-75305000D02*
X172980000Y-75305000D01*
X187180000Y-89505000D02*
X187180000Y-75305000D01*
%TO.C,SW31*%
X53542500Y-92860000D02*
X53542500Y-107060000D01*
X53542500Y-107060000D02*
X67742500Y-107060000D01*
X67742500Y-92860000D02*
X53542500Y-92860000D01*
X67742500Y-107060000D02*
X67742500Y-92860000D01*
%TO.C,SW21*%
X192030000Y-108642500D02*
X192030000Y-122842500D01*
X192030000Y-122842500D02*
X206230000Y-122842500D01*
X206230000Y-108642500D02*
X192030000Y-108642500D01*
X206230000Y-122842500D02*
X206230000Y-108642500D01*
%TO.C,SW40*%
X91720000Y-108650000D02*
X91720000Y-122850000D01*
X91720000Y-122850000D02*
X105920000Y-122850000D01*
X105920000Y-108650000D02*
X91720000Y-108650000D01*
X105920000Y-122850000D02*
X105920000Y-108650000D01*
%TO.C,SW16*%
X211080000Y-87211250D02*
X211080000Y-101411250D01*
X211080000Y-101411250D02*
X225280000Y-101411250D01*
X225280000Y-87211250D02*
X211080000Y-87211250D01*
X225280000Y-101411250D02*
X225280000Y-87211250D01*
%TO.C,SW37*%
X91782500Y-51382500D02*
X91782500Y-65582500D01*
X91782500Y-65582500D02*
X105982500Y-65582500D01*
X105982500Y-51382500D02*
X91782500Y-51382500D01*
X105982500Y-65582500D02*
X105982500Y-51382500D01*
%TO.C,SW14*%
X172980000Y-94355000D02*
X172980000Y-108555000D01*
X172980000Y-108555000D02*
X187180000Y-108555000D01*
X187180000Y-94355000D02*
X172980000Y-94355000D01*
X187180000Y-108555000D02*
X187180000Y-94355000D01*
%TO.C,SW29*%
X53652500Y-54555000D02*
X53652500Y-68755000D01*
X53652500Y-68755000D02*
X67852500Y-68755000D01*
X67852500Y-54555000D02*
X53652500Y-54555000D01*
X67852500Y-68755000D02*
X67852500Y-54555000D01*
%TO.C,SW10*%
X211080000Y-68161250D02*
X211080000Y-82361250D01*
X211080000Y-82361250D02*
X225280000Y-82361250D01*
X225280000Y-68161250D02*
X211080000Y-68161250D01*
X225280000Y-82361250D02*
X225280000Y-68161250D01*
%TO.C,SW32*%
X53642500Y-111850000D02*
X53642500Y-126050000D01*
X53642500Y-126050000D02*
X67842500Y-126050000D01*
X67842500Y-111850000D02*
X53642500Y-111850000D01*
X67842500Y-126050000D02*
X67842500Y-111850000D01*
%TO.C,SW3*%
X192030000Y-51492500D02*
X192030000Y-65692500D01*
X192030000Y-65692500D02*
X206230000Y-65692500D01*
X206230000Y-51492500D02*
X192030000Y-51492500D01*
X206230000Y-65692500D02*
X206230000Y-51492500D01*
%TO.C,SW34*%
X72605000Y-68011250D02*
X72605000Y-82211250D01*
X72605000Y-82211250D02*
X86805000Y-82211250D01*
X86805000Y-68011250D02*
X72605000Y-68011250D01*
X86805000Y-82211250D02*
X86805000Y-68011250D01*
%TO.C,SW25*%
X34602500Y-59320000D02*
X34602500Y-73520000D01*
X34602500Y-73520000D02*
X48802500Y-73520000D01*
X48802500Y-59320000D02*
X34602500Y-59320000D01*
X48802500Y-73520000D02*
X48802500Y-59320000D01*
%TO.C,SW19*%
X153930000Y-116580000D02*
X153930000Y-130780000D01*
X153930000Y-130780000D02*
X168130000Y-130780000D01*
X168130000Y-116580000D02*
X153930000Y-116580000D01*
X168130000Y-130780000D02*
X168130000Y-116580000D01*
%TD*%
M02*
